<svg xmlns="http://www.w3.org/2000/svg" width="207" height="117" viewBox="0 0 207 117" fill="none">
  <path d="M26.1567 98.0596L21.7808 136.901H23.9708L28.5911 98.0596H26.1567Z" fill="#EBEBEB"/>
  <path d="M39.8228 98.0596L35.4468 136.901H37.6368L42.2571 98.0596H39.8228Z" fill="#EBEBEB"/>
  <path d="M36.7965 130.628C38.0762 130.629 39.342 130.363 40.5134 129.848C41.6848 129.332 42.7363 128.579 43.601 127.636C44.4657 126.692 45.1248 125.58 45.5363 124.368C45.9478 123.156 46.1028 121.872 45.9914 120.597L42.431 79.9093C42.2301 77.6093 41.1743 75.4682 39.4721 73.9085C37.7698 72.3489 35.5448 71.4839 33.2361 71.4844C31.9567 71.4847 30.6914 71.751 29.5205 72.2664C28.3495 72.7819 27.2986 73.5352 26.4343 74.4785C25.57 75.4218 24.9114 76.5345 24.5001 77.7459C24.0888 78.9574 23.9339 80.2411 24.0453 81.5156L27.6057 122.204C27.8056 124.503 28.8605 126.644 30.5621 128.204C32.2637 129.764 34.4882 130.629 36.7965 130.628Z" fill="#E0E0E0"/>
  <path d="M44.8898 121.389C44.8621 121.816 44.7984 122.239 44.6994 122.655C44.5199 123.443 44.2181 124.197 43.8052 124.891C43.7348 125.019 43.6561 125.144 43.5733 125.268C43.309 125.666 43.0082 126.039 42.6749 126.381L42.4804 126.58C41.871 127.175 41.1726 127.671 40.4104 128.05C40.1669 128.169 39.9167 128.274 39.661 128.365C38.5049 128.787 37.267 128.938 36.0431 128.806C34.8192 128.673 33.6423 128.261 32.6035 127.6C31.5647 126.94 30.6919 126.049 30.0527 124.997C29.4136 123.945 29.0252 122.76 28.9177 121.534L25.7341 81.6322C25.7341 81.3921 25.7051 81.1561 25.7051 80.9243C25.706 79.45 26.1139 78.0047 26.8838 76.7475C27.6538 75.4903 28.7559 74.4701 30.0686 73.7993C30.2576 73.6967 30.4525 73.6054 30.6524 73.5261C31.4954 73.1734 32.3934 72.9702 33.3061 72.9258C33.4427 72.9258 33.5752 72.9258 33.7201 72.9258C34.0578 72.9255 34.3952 72.9462 34.7303 72.9879L35.0573 73.0417C35.554 73.1201 36.0411 73.2505 36.5105 73.4309L36.734 73.5137C38.101 74.0705 39.2879 74.9935 40.1643 76.1811C41.0408 77.3687 41.5729 78.775 41.702 80.2453L44.8857 120.147C44.9177 120.56 44.919 120.975 44.8898 121.389Z" fill="#FAFAFA"/>
  <path d="M42.6751 126.385L42.4805 126.584C41.8712 127.179 41.1728 127.675 40.4105 128.054C40.1671 128.173 39.9169 128.278 39.6612 128.368L30.0605 73.8032C30.2495 73.7006 30.4444 73.6093 30.6443 73.53C31.4873 73.1773 32.3853 72.9741 33.298 72.9297L42.6751 126.385Z" fill="white"/>
  <path d="M44.89 121.389C44.8623 121.815 44.7986 122.239 44.6996 122.655C44.52 123.443 44.2183 124.197 43.8053 124.891L34.7222 72.9795L35.0492 73.0333C35.5459 73.1117 36.033 73.2421 36.5024 73.4225L44.89 121.389Z" fill="white"/>
  <path d="M171.545 80.377L170.754 79.7229C166.817 76.4854 165.952 72.5566 165.877 72.1757C165.796 71.9242 165.774 71.6575 165.813 71.3961C165.852 71.1347 165.95 70.8858 166.101 70.6687C166.226 70.5068 166.386 70.3761 166.57 70.287C166.754 70.1978 166.956 70.1528 167.161 70.1554C167.496 70.1538 167.824 70.2581 168.096 70.4535C168.585 70.8219 169.815 71.6955 170.075 71.8693C172.394 72.6435 171.814 78.2367 171.673 79.3545L171.545 80.377ZM167.161 71.2897C167.131 71.2863 167.101 71.2906 167.073 71.3022C167.046 71.3138 167.022 71.3323 167.003 71.356C166.96 71.4391 166.935 71.5305 166.93 71.624C166.925 71.7175 166.94 71.8111 166.975 71.8983V71.9439C167.592 74.3058 168.863 76.4455 170.643 78.1166C170.787 75.881 170.605 73.2066 169.686 72.9375C168.898 72.4543 168.137 71.9291 167.405 71.3643C167.334 71.3143 167.248 71.2882 167.161 71.2897Z" fill="#F0F0F0"/>
  <path d="M178.782 80.3771L178.654 79.3545C178.513 78.2367 177.938 72.6435 180.252 71.8694C180.513 71.712 181.738 70.8261 182.231 70.4535C182.503 70.2581 182.831 70.1538 183.166 70.1554C183.371 70.1525 183.573 70.1974 183.757 70.2865C183.941 70.3757 184.102 70.5066 184.226 70.6688C184.378 70.8854 184.477 71.1344 184.516 71.3959C184.554 71.6574 184.532 71.9244 184.45 72.1757C184.375 72.5566 183.51 76.4855 179.577 79.7229L178.782 80.3771ZM182.922 71.3643C182.192 71.9291 181.432 72.4543 180.645 72.9375C179.726 73.2066 179.54 75.881 179.689 78.1166C181.468 76.4461 182.738 74.306 183.353 71.9439V71.8983C183.387 71.8113 183.403 71.718 183.398 71.6245C183.394 71.531 183.37 71.4395 183.328 71.356C183.308 71.3329 183.283 71.3148 183.255 71.3033C183.227 71.2918 183.197 71.2871 183.166 71.2898C183.075 71.287 182.985 71.3131 182.91 71.3643H182.922Z" fill="#F0F0F0"/>
  <path d="M175.159 85.8094C172.261 85.8094 169.939 76.2045 169.939 73.319V70.3506H180.38V73.319C180.38 76.2045 178.041 85.8094 175.159 85.8094Z" fill="#F5F5F5"/>
  <path d="M176.045 85.3369H174.352V93.6873H176.045V85.3369Z" fill="#F5F5F5"/>
  <path d="M179.623 98.0713H170.61L169.894 95.4424H180.335L179.623 98.0713Z" fill="#E6E6E6"/>
  <path d="M176.079 91.2119L174.344 91.2368L173.5 92.7023H176.882L176.079 91.2119Z" fill="#F0F0F0"/>
  <path d="M176.6 92.0732H173.772L172.493 93.7582H177.912L176.6 92.0732Z" fill="#EBEBEB"/>
  <path d="M172.518 93.5303H177.871L180.335 95.443H169.894L172.518 93.5303Z" fill="#F5F5F5"/>
  <path d="M174.344 86.7197L176.078 86.6948L176.873 84.8525H173.495L174.344 86.7197Z" fill="#F0F0F0"/>
  <path d="M182.255 100.485H156.72V132.591H182.255V100.485Z" fill="#E0E0E0"/>
  <path d="M186.155 98.0967H182.947V136.756H186.155V98.0967Z" fill="#E6E6E6"/>
  <path d="M162.876 103.015H160.785V115.012H162.876V103.015Z" fill="#FAFAFA"/>
  <path d="M171.553 103.015H169.462V115.012H171.553V103.015Z" fill="#F5F5F5"/>
  <path d="M164.971 103.855H162.88V115.009H164.971V103.855Z" fill="#F5F5F5"/>
  <path d="M169.463 103.855H167.372V115.009H169.463V103.855Z" fill="#FAFAFA"/>
  <path d="M167.372 103.015H166.018V115.012H167.372V103.015Z" fill="#EBEBEB"/>
  <path d="M166.018 103.855H164.971V115.009H166.018V103.855Z" fill="#FAFAFA"/>
  <path d="M173.644 103.015H171.553V115.012H173.644V103.015Z" fill="#EBEBEB"/>
  <path d="M175.739 103.855H173.648V115.009H175.739V103.855Z" fill="#E6E6E6"/>
  <path d="M180.231 103.855H178.14V115.009H180.231V103.855Z" fill="#E6E6E6"/>
  <path d="M178.14 103.015H176.786V115.012H178.14V103.015Z" fill="#FAFAFA"/>
  <path d="M176.786 103.855H175.739V115.009H176.786V103.855Z" fill="#EBEBEB"/>
  <path d="M181.278 103.296H180.23V115.008H181.278V103.296Z" fill="#FAFAFA"/>
  <path d="M182.131 98.0967H155.913V134.591H181.274V136.76H182.988V98.0967H182.131ZM181.274 131.092H157.527V117.016H181.274V131.092ZM181.274 115.025H157.527V101.599H181.274V115.025Z" fill="#E6E6E6"/>
  <path d="M131.143 132.596H156.678V100.49H131.143V132.596Z" fill="#E0E0E0"/>
  <path d="M153.731 115.013H155.821V103.015H153.731V115.013Z" fill="#FAFAFA"/>
  <path d="M145.049 115.013H147.14V103.015H145.049V115.013Z" fill="#F5F5F5"/>
  <path d="M151.636 115.013H153.727V103.86H151.636V115.013Z" fill="#F5F5F5"/>
  <path d="M147.144 115.013H149.234V103.86H147.144V115.013Z" fill="#FAFAFA"/>
  <path d="M149.235 115.013H150.588V103.015H149.235V115.013Z" fill="#EBEBEB"/>
  <path d="M150.588 115.013H151.636V103.86H150.588V115.013Z" fill="#FAFAFA"/>
  <path d="M144.341 115.013H146.432V103.015H144.341V115.013Z" fill="#EBEBEB"/>
  <path d="M142.246 115.013H144.337V103.86H142.246V115.013Z" fill="#E6E6E6"/>
  <path d="M137.758 115.013H139.849V103.86H137.758V115.013Z" fill="#E6E6E6"/>
  <path d="M139.845 115.013H141.199V103.015H139.845V115.013Z" fill="#FAFAFA"/>
  <path d="M141.199 115.013H142.246V103.86H141.199V115.013Z" fill="#EBEBEB"/>
  <path d="M136.711 115.013H137.758V103.301H136.711V115.013Z" fill="#F5F5F5"/>
  <path d="M130.41 98.0967V136.76H132.124V134.591H157.486V98.0967H130.41ZM132.124 117.025H155.871V131.101H132.128L132.124 117.025ZM132.124 101.599H155.871V115.025H132.128L132.124 101.599Z" fill="#E6E6E6"/>
  <path d="M104.328 38.0664L114.719 5.6709L114.591 39.6934L134.488 12.092L123.852 44.4089L151.3 24.3092L131.201 51.7574L163.518 41.1217L135.916 61.0186L169.939 60.8902L137.543 71.2816L169.939 81.673L135.916 81.5447L163.518 101.442L131.201 90.8059L151.3 118.254L123.852 98.1544L134.488 130.471L114.591 102.87L114.719 136.892L104.328 104.497L93.9366 136.892L94.0649 102.87L74.1681 130.471L84.8038 98.1544L57.3556 118.254L77.4553 90.8059L45.1384 101.442L72.7398 81.5447L38.7173 81.673L71.1128 71.2816L38.7173 60.8902L72.7398 61.0186L45.1384 41.1217L77.4553 51.7574L57.3556 24.3092L84.8038 44.4089L74.1681 12.092L94.0649 39.6934L93.9366 5.6709L104.328 38.0664Z" fill="#F5F5F5"/>
  <path d="M111.337 57.5686C109.851 56.6081 109.267 54.3559 109.106 51.992C109.008 50.1951 109.081 48.3929 109.325 46.61C109.37 46.1546 109.437 45.7157 109.515 45.3017C109.581 44.8833 109.67 44.4687 109.78 44.0597L96.2798 38.4873C97.7619 40.7229 98.8921 47.881 98.5775 50.1828C98.2339 52.7662 98.1304 56.3928 96.789 57.3284L111.337 57.5686Z" fill="#407BFF"/>
  <g opacity="0.7">
    <path d="M111.337 57.5686C109.851 56.6081 109.267 54.3559 109.106 51.992C109.008 50.1951 109.081 48.3929 109.325 46.61C109.37 46.1546 109.437 45.7157 109.515 45.3017C109.581 44.8833 109.67 44.4687 109.78 44.0597L96.2798 38.4873C97.7619 40.7229 98.8921 47.881 98.5775 50.1828C98.2339 52.7662 98.1304 56.3928 96.789 57.3284L111.337 57.5686Z" fill="white"/>
  </g>
  <path d="M96.7894 57.3291C93.8914 59.3991 95.1334 62.6531 97.489 65.311C98.3953 66.3303 99.3705 67.2861 100.408 68.1718C104.92 72.0344 112 70.3949 114.107 64.8391C115.03 62.3758 114.711 59.7344 111.337 57.5734L96.7894 57.3291Z" fill="#FFB573"/>
  <path opacity="0.2" d="M109.106 51.9928C109.008 50.1959 109.081 48.3938 109.325 46.6108C109.371 46.1554 109.437 45.7166 109.516 45.3026L99.0786 43.2988C101.269 45.4682 104.328 49.9063 109.106 51.9928Z" fill="black"/>
  <path d="M122.875 27.7854C122.544 30.0293 119.468 33.6767 119.617 33.4572C119.741 33.2194 119.785 32.9478 119.741 32.6831C119.674 31.6728 119.426 30.6828 119.009 29.7602C118.748 31.0022 118.35 33.6063 117.113 33.627C116.62 32.6996 116.015 31.8551 116.102 30.8035C115.817 31.8799 115.552 32.9646 115.274 34.041C112.873 32.563 111.354 29.1516 111.855 26.3033C111.963 25.6125 112.203 24.949 112.563 24.3492C113.008 23.6947 113.548 23.11 114.165 22.6146C115.734 21.2401 116.371 20.6025 118.433 20.6025C122.933 20.6025 123.207 25.5416 122.875 27.7854Z" fill="#407BFF"/>
  <path opacity="0.3" d="M122.875 27.7854C122.544 30.0293 119.468 33.6767 119.617 33.4572C119.741 33.2194 119.785 32.9478 119.741 32.6831C119.674 31.6728 119.426 30.6828 119.009 29.7602C118.748 31.0022 118.35 33.6063 117.113 33.627C116.62 32.6996 116.015 31.8551 116.102 30.8035C115.817 31.8799 115.552 32.9646 115.274 34.041C112.873 32.563 111.354 29.1516 111.855 26.3033C111.963 25.6125 112.203 24.949 112.563 24.3492C113.008 23.6947 113.548 23.11 114.165 22.6146C115.734 21.2401 116.371 20.6025 118.433 20.6025C122.933 20.6025 123.207 25.5416 122.875 27.7854Z" fill="black"/>
  <path d="M120.545 38.773C118.868 47.91 107.93 52.729 100.71 46.1836C96.5411 42.4121 95.8787 37.9036 95.1169 30.8988C94.9968 29.8348 94.8768 28.717 94.7443 27.5288C94.5208 25.679 94.7103 23.8028 95.2991 22.035C95.5407 21.2995 95.857 20.5906 96.243 19.9195C97.6549 17.3802 99.9124 15.4163 102.623 14.3694C105.333 13.3226 108.324 13.259 111.077 14.1897C120.127 17.2368 122.064 30.551 120.545 38.773Z" fill="#407BFF"/>
  <path opacity="0.7" d="M120.545 38.773C118.868 47.91 107.93 52.729 100.71 46.1836C96.5411 42.4121 95.8787 37.9036 95.1169 30.8988C94.9968 29.8348 94.8768 28.717 94.7443 27.5288C94.5208 25.679 94.7103 23.8028 95.2991 22.035C95.5407 21.2995 95.857 20.5906 96.243 19.9195C97.6549 17.3802 99.9124 15.4163 102.623 14.3694C105.333 13.3226 108.324 13.259 111.077 14.1897C120.127 17.2368 122.064 30.551 120.545 38.773Z" fill="white"/>
  <path d="M109.251 27.7982C109.731 27.7651 110.149 28.3447 110.187 29.0775C110.224 29.8103 109.934 30.4313 109.396 30.4602C108.858 30.4892 108.435 29.9179 108.394 29.1768C108.353 28.4358 108.775 27.8272 109.251 27.7982Z" fill="#407BFF"/>
  <path opacity="0.3" d="M109.251 27.7982C109.731 27.7651 110.149 28.3447 110.187 29.0775C110.224 29.8103 109.934 30.4313 109.396 30.4602C108.858 30.4892 108.435 29.9179 108.394 29.1768C108.353 28.4358 108.775 27.8272 109.251 27.7982Z" fill="black"/>
  <path d="M117.447 27.724C117.928 27.6909 118.346 28.2622 118.387 28.995C118.429 29.7278 118.081 30.3446 117.592 30.3778C117.104 30.4109 116.686 29.8396 116.644 29.1068C116.603 28.374 116.971 27.753 117.447 27.724Z" fill="#407BFF"/>
  <path opacity="0.3" d="M117.447 27.724C117.928 27.6909 118.346 28.2622 118.387 28.995C118.429 29.7278 118.081 30.3446 117.592 30.3778C117.104 30.4109 116.686 29.8396 116.644 29.1068C116.603 28.374 116.971 27.753 117.447 27.724Z" fill="black"/>
  <path d="M113.999 36.3306C115.241 36.4589 117.506 35.7054 118.404 34.8236C116.694 33.1303 114.786 31.2259 113.614 29.127L113.999 36.3306Z" fill="#407BFF"/>
  <path opacity="0.5" d="M113.999 36.3306C115.241 36.4589 117.506 35.7054 118.404 34.8236C116.694 33.1303 114.786 31.2259 113.614 29.127L113.999 36.3306Z" fill="white"/>
  <path d="M107.88 24.9164C108.417 24.815 108.97 24.8412 109.495 24.9929C110.02 25.1446 110.502 25.4177 110.902 25.79C110.925 25.829 110.955 25.864 110.989 25.8935C111.032 25.9307 111.082 25.9591 111.136 25.977C111.191 25.9948 111.248 26.0018 111.305 25.9976C111.362 25.9934 111.417 25.978 111.468 25.9523C111.519 25.9266 111.564 25.8912 111.602 25.8479C111.639 25.8047 111.667 25.7546 111.685 25.7004C111.703 25.6462 111.71 25.589 111.706 25.5321C111.702 25.4753 111.686 25.4197 111.661 25.3688C111.635 25.3178 111.599 25.2725 111.556 25.2352C111.067 24.7561 110.47 24.4009 109.815 24.1992C109.16 23.9976 108.467 23.9553 107.793 24.076C107.736 24.0819 107.681 24.0995 107.631 24.1278C107.581 24.1561 107.538 24.1944 107.504 24.2403C107.469 24.2862 107.445 24.3388 107.432 24.3946C107.419 24.4504 107.418 24.5083 107.429 24.5645C107.438 24.6398 107.47 24.7105 107.52 24.7674C107.564 24.8181 107.62 24.8578 107.682 24.8837C107.745 24.9095 107.812 24.9207 107.88 24.9164Z" fill="#407BFF"/>
  <path opacity="0.3" d="M107.88 24.9164C108.417 24.815 108.97 24.8412 109.495 24.9929C110.02 25.1446 110.502 25.4177 110.902 25.79C110.925 25.829 110.955 25.864 110.989 25.8935C111.032 25.9307 111.082 25.9591 111.136 25.977C111.191 25.9948 111.248 26.0018 111.305 25.9976C111.362 25.9934 111.417 25.978 111.468 25.9523C111.519 25.9266 111.564 25.8912 111.602 25.8479C111.639 25.8047 111.667 25.7546 111.685 25.7004C111.703 25.6462 111.71 25.589 111.706 25.5321C111.702 25.4753 111.686 25.4197 111.661 25.3688C111.635 25.3178 111.599 25.2725 111.556 25.2352C111.067 24.7561 110.47 24.4009 109.815 24.1992C109.16 23.9976 108.467 23.9553 107.793 24.076C107.736 24.0819 107.681 24.0995 107.631 24.1278C107.581 24.1561 107.538 24.1944 107.504 24.2403C107.469 24.2862 107.445 24.3388 107.432 24.3946C107.419 24.4504 107.418 24.5083 107.429 24.5645C107.438 24.6398 107.47 24.7105 107.52 24.7674C107.564 24.8181 107.62 24.8578 107.682 24.8837C107.745 24.9095 107.812 24.9207 107.88 24.9164Z" fill="black"/>
  <path d="M120.441 24.0394C120.434 23.9274 120.385 23.822 120.304 23.745C120.222 23.668 120.114 23.6252 120.002 23.6254C119.318 23.6079 118.64 23.7566 118.027 24.0588C117.413 24.3609 116.882 24.8074 116.479 25.3601C116.448 25.4065 116.426 25.4587 116.416 25.5135C116.406 25.5684 116.406 25.6248 116.418 25.6793C116.43 25.7338 116.453 25.7854 116.486 25.8308C116.518 25.8763 116.559 25.9147 116.607 25.9438H116.636C116.73 26.0001 116.842 26.017 116.949 25.9906C117.055 25.9642 117.147 25.8968 117.203 25.803C117.531 25.3732 117.957 25.0274 118.445 24.7942C118.933 24.561 119.469 24.4471 120.01 24.4617C120.082 24.4649 120.153 24.4494 120.217 24.4167C120.281 24.384 120.335 24.3353 120.374 24.2754C120.414 24.2027 120.436 24.122 120.441 24.0394Z" fill="#407BFF"/>
  <path opacity="0.3" d="M120.441 24.0394C120.434 23.9274 120.385 23.822 120.304 23.745C120.222 23.668 120.114 23.6252 120.002 23.6254C119.318 23.6079 118.64 23.7566 118.027 24.0588C117.413 24.3609 116.882 24.8074 116.479 25.3601C116.448 25.4065 116.426 25.4587 116.416 25.5135C116.406 25.5684 116.406 25.6248 116.418 25.6793C116.43 25.7338 116.453 25.7854 116.486 25.8308C116.518 25.8763 116.559 25.9147 116.607 25.9438H116.636C116.73 26.0001 116.842 26.017 116.949 25.9906C117.055 25.9642 117.147 25.8968 117.203 25.803C117.531 25.3732 117.957 25.0274 118.445 24.7942C118.933 24.561 119.469 24.4471 120.01 24.4617C120.082 24.4649 120.153 24.4494 120.217 24.4167C120.281 24.384 120.335 24.3353 120.374 24.2754C120.414 24.2027 120.436 24.122 120.441 24.0394Z" fill="black"/>
  <path d="M99.8858 44.2259C98.78 44.0162 97.7366 43.5575 96.8346 42.8845C96.8346 44.0975 96.0066 46.1965 96.0066 46.1965C92.1481 44.9255 88.9686 37.2086 88.5546 34.65C86.4101 38.6369 86.5964 36.3433 86.4308 34.65C86.1906 32.2116 86.1285 29.682 86.9607 27.3843C87.7928 25.0866 89.6889 23.0291 92.1067 22.6316C92.5565 22.5905 93.0092 22.6705 93.4176 22.8634C93.826 23.0564 94.1753 23.3551 94.4292 23.7287C94.8405 24.4668 95.1088 25.2758 95.22 26.1134C96.3502 32.1619 96.3005 39.2247 99.8858 44.2259Z" fill="#407BFF"/>
  <path opacity="0.3" d="M99.8858 44.2259C98.78 44.0162 97.7366 43.5575 96.8346 42.8845C96.8346 44.0975 96.0066 46.1965 96.0066 46.1965C92.1481 44.9255 88.9686 37.2086 88.5546 34.65C86.4101 38.6369 86.5964 36.3433 86.4308 34.65C86.1906 32.2116 86.1285 29.682 86.9607 27.3843C87.7928 25.0866 89.6889 23.0291 92.1067 22.6316C92.5565 22.5905 93.0092 22.6705 93.4176 22.8634C93.826 23.0564 94.1753 23.3551 94.4292 23.7287C94.8405 24.4668 95.1088 25.2758 95.22 26.1134C96.3502 32.1619 96.3005 39.2247 99.8858 44.2259Z" fill="black"/>
  <path d="M94.4168 30.3565C97.3687 30.4227 99.1696 34.1446 99.4842 36.6907C99.8527 39.5266 97.9483 41.8574 95.2117 40.603C94.1914 40.1297 93.2759 39.4574 92.5187 38.6257C91.7616 37.7939 91.1782 36.8194 90.8026 35.7592C89.8877 33.1261 91.4609 30.2944 94.4168 30.3565Z" fill="#407BFF"/>
  <path opacity="0.7" d="M94.4168 30.3565C97.3687 30.4227 99.1696 34.1446 99.4842 36.6907C99.8527 39.5266 97.9483 41.8574 95.2117 40.603C94.1914 40.1297 93.2759 39.4574 92.5187 38.6257C91.7616 37.7939 91.1782 36.8194 90.8026 35.7592C89.8877 33.1261 91.4609 30.2944 94.4168 30.3565Z" fill="white"/>
  <path d="M100.329 21.6754C101.101 22.507 101.678 23.5005 102.017 24.5834C102.357 25.6664 102.45 26.8114 102.291 27.9351C101.947 30.1789 98.7721 33.8221 98.9211 33.6027C99.0478 33.3658 99.0943 33.0941 99.0536 32.8285C98.9801 31.816 98.7219 30.8254 98.2918 29.9057C98.0227 31.1477 97.6129 33.7518 96.3336 33.7683C95.8244 32.8451 95.1992 32.0005 95.2862 30.9448C94.9922 32.0254 94.719 33.1101 94.4251 34.1865C91.9411 32.7043 90.3679 29.293 90.8812 26.4447C90.9943 25.7514 91.2433 25.0873 91.614 24.4906C92.078 23.8343 92.6359 23.2498 93.27 22.7559C94.8929 21.3814 97.0415 20.0111 98.9998 20.835C99.2813 20.9674 100.403 21.3773 100.329 21.6754Z" fill="#407BFF"/>
  <path opacity="0.3" d="M100.329 21.6754C101.101 22.507 101.678 23.5005 102.017 24.5834C102.357 25.6664 102.45 26.8114 102.291 27.9351C101.947 30.1789 98.7721 33.8221 98.9211 33.6027C99.0478 33.3658 99.0943 33.0941 99.0536 32.8285C98.9801 31.816 98.7219 30.8254 98.2918 29.9057C98.0227 31.1477 97.6129 33.7518 96.3336 33.7683C95.8244 32.8451 95.1992 32.0005 95.2862 30.9448C94.9922 32.0254 94.719 33.1101 94.4251 34.1865C91.9411 32.7043 90.3679 29.293 90.8812 26.4447C90.9943 25.7514 91.2433 25.0873 91.614 24.4906C92.078 23.8343 92.6359 23.2498 93.27 22.7559C94.8929 21.3814 97.0415 20.0111 98.9998 20.835C99.2813 20.9674 100.403 21.3773 100.329 21.6754Z" fill="black"/>
  <path d="M116.334 38.8397C116.334 38.8397 113.804 37.813 106.348 36.9229C106.762 39.6304 108.418 40.773 112.231 41.187C116.044 41.601 116.334 38.8397 116.334 38.8397Z" fill="#263238"/>
  <path d="M115.995 38.7446C115.881 39.0417 115.691 39.3041 115.445 39.5059C115.199 39.7077 114.905 39.8419 114.591 39.8955C112.389 39.6297 110.219 39.1471 108.112 38.4548C107.755 38.3734 107.429 38.1925 107.171 37.9331C106.913 37.6737 106.734 37.3464 106.655 36.9893C109.815 37.2879 112.942 37.8754 115.995 38.7446Z" fill="white"/>
  <path d="M114.442 39.6721C112.563 38.9084 110.577 38.4405 108.555 38.2852C107.988 38.3469 107.449 38.5615 106.994 38.9062C107.822 40.2475 109.478 40.9141 112.198 41.2204C113.222 41.4016 114.277 41.2092 115.171 40.6781C114.974 40.3116 114.729 39.9732 114.442 39.6721Z" fill="white"/>
  <path d="M121.199 56.7043C120.879 59.7062 119.757 62.5665 117.949 64.9843C117.816 65.1623 117.68 65.3404 117.535 65.5142C113.511 70.6106 106.278 72.1921 100.263 69.5135C98.361 68.6895 96.5352 67.7004 94.8063 66.5575C91.3949 64.264 88.4514 61.0762 87.0645 57.3336L97.6422 55.9715L104.875 55.04L109.818 55.5451L121.199 56.7043Z" fill="#FFB573"/>
  <path d="M68.8979 63.4853C68.4839 94.5353 45.569 121.445 43.2051 152.425H156.935C145.629 128.206 138.545 102.233 135.987 75.6279L134.227 57.3291H76.0229C76.0229 57.3291 68.9393 60.4465 68.8979 63.4853Z" fill="#407BFF"/>
  <path opacity="0.6" d="M68.8979 63.4853C68.4839 94.5353 45.569 121.445 43.2051 152.425H156.935C145.629 128.206 138.545 102.233 135.987 75.6279L134.227 57.3291H76.0229C76.0229 57.3291 68.9393 60.4465 68.8979 63.4853Z" fill="white"/>
  <path opacity="0.2" d="M57.3553 152.384C57.3553 152.384 56.6929 120.41 67.2913 87.3318C77.8897 54.2532 64.5838 97.2512 66.6538 135.575C67.2417 146.625 70.1355 152.549 70.1355 152.549L57.3553 152.384Z" fill="white"/>
  <path opacity="0.2" d="M146.498 152.549C146.498 152.549 132.604 120.327 130.108 77.7969C130.108 77.7969 126.705 115.434 138.446 152.425L146.498 152.549Z" fill="white"/>
  <path d="M142.784 52.0216C142.84 51.9938 142.898 51.9703 142.958 51.9512L142.892 51.9802L142.784 52.0216Z" fill="#407BFF"/>
  <path d="M143.7 51.6816L143.406 51.7893L143.165 51.8762H143.128L142.958 51.9383C143.194 51.8555 143.443 51.7686 143.7 51.6816Z" fill="#407BFF"/>
  <path d="M173.392 53.3297C173.392 64.6899 153.006 71.8397 143.911 74.4437C135.283 77.3417 130.108 77.7764 130.108 77.7764C129.789 74.7749 123.281 57.1592 123.281 57.1592C123.281 57.1592 127.173 55.5032 129.963 55.7516H130.034C133.3 56.0096 136.566 55.2612 139.394 53.6071C140.422 53.0134 141.493 52.4972 142.598 52.0629L142.785 51.9925L142.892 51.9511L143.128 51.86H143.166L143.406 51.7731L143.7 51.6655L144.043 51.5537L144.147 51.5206L144.254 51.4874L144.333 51.4667H144.362C145.167 51.2338 145.983 51.0458 146.809 50.9037C149.23 50.4315 151.738 50.7208 153.988 51.7317C154.415 51.9412 154.888 52.0407 155.364 52.0212C155.84 52.0017 156.303 51.8638 156.712 51.6199C157.126 51.355 157.304 51.0693 156.906 50.8457L137.556 28.7133L143.455 25.4717C143.455 25.4717 173.392 41.2906 173.392 53.3297Z" fill="#407BFF"/>
  <path d="M173.392 53.3297C173.392 64.6899 153.006 71.8397 143.911 74.4437C135.283 77.3417 130.108 77.7764 130.108 77.7764C129.789 74.7749 123.281 57.1592 123.281 57.1592C123.281 57.1592 127.173 55.5032 129.963 55.7516H130.034C133.3 56.0096 136.566 55.2612 139.394 53.6071C140.422 53.0134 141.493 52.4972 142.598 52.0629L142.785 51.9925L142.892 51.9511L143.128 51.86H143.166L143.406 51.7731L143.7 51.6655L144.043 51.5537L144.147 51.5206L144.254 51.4874L144.333 51.4667H144.362C145.167 51.2338 145.983 51.0458 146.809 50.9037C149.23 50.4315 151.738 50.7208 153.988 51.7317C154.415 51.9412 154.888 52.0407 155.364 52.0212C155.84 52.0017 156.303 51.8638 156.712 51.6199C157.126 51.355 157.304 51.0693 156.906 50.8457L137.556 28.7133L143.455 25.4717C143.455 25.4717 173.392 41.2906 173.392 53.3297Z" fill="#407BFF"/>
  <g opacity="0.3">
    <path d="M173.392 53.3297C173.392 64.6899 153.006 71.8397 143.911 74.4437C135.283 77.3417 130.108 77.7764 130.108 77.7764C129.789 74.7749 123.281 57.1592 123.281 57.1592C123.281 57.1592 127.173 55.5032 129.963 55.7516H130.034C133.3 56.0096 136.566 55.2612 139.394 53.6071C140.422 53.0134 141.493 52.4972 142.598 52.0629L142.785 51.9925L142.892 51.9511L143.128 51.86H143.166L143.406 51.7731L143.7 51.6655L144.043 51.5537L144.147 51.5206L144.254 51.4874L144.333 51.4667H144.362C145.167 51.2338 145.983 51.0458 146.809 50.9037C149.23 50.4315 151.738 50.7208 153.988 51.7317C154.415 51.9412 154.888 52.0407 155.364 52.0212C155.84 52.0017 156.303 51.8638 156.712 51.6199C157.126 51.355 157.304 51.0693 156.906 50.8457L137.556 28.7133L143.455 25.4717C143.455 25.4717 173.392 41.2906 173.392 53.3297Z" fill="white"/>
  </g>
  <path d="M139.149 29.2886L130.903 26.0221L125.935 19.3981L133.072 17.8125L139.82 21.3108L143.869 25.7158C144.057 25.9203 144.19 26.1688 144.256 26.4382C144.323 26.7077 144.32 26.9896 144.25 27.2579C144.179 27.5263 144.041 27.7725 143.851 27.974C143.66 28.1754 143.421 28.3257 143.157 28.4109L140.259 29.3341C139.895 29.4471 139.503 29.431 139.149 29.2886Z" fill="#407BFF"/>
  <path opacity="0.7" d="M139.149 29.2886L130.903 26.0221L125.935 19.3981L133.072 17.8125L139.82 21.3108L143.869 25.7158C144.057 25.9203 144.19 26.1688 144.256 26.4382C144.323 26.7077 144.32 26.9896 144.25 27.2579C144.179 27.5263 144.041 27.7725 143.851 27.974C143.66 28.1754 143.421 28.3257 143.157 28.4109L140.259 29.3341C139.895 29.4471 139.503 29.431 139.149 29.2886Z" fill="white"/>
  <path opacity="0.2" d="M133.751 68.7432L134.579 77.1184C134.579 77.1184 146.788 74.2866 153.689 71.1278L148.146 71.43C143.56 71.7447 138.969 70.881 134.811 68.9212L133.751 68.7432Z" fill="black"/>
  <path d="M135.213 76.9241C135.092 103.582 130.195 106.099 130.427 129.043C130.427 129.043 84.2698 129.229 82.7049 129.27C78.9789 98.3941 75.1825 96.9782 76.1844 73.2685C75.7 65.4811 80.1174 58.6336 84.5596 57.7435L104.883 55.04L124.432 57.11C129.4 57.8221 133.892 61.7386 135.213 76.9241Z" fill="#407BFF"/>
  <path opacity="0.3" d="M135.213 76.9241C135.092 103.582 130.195 106.099 130.427 129.043C130.427 129.043 84.2698 129.229 82.7049 129.27C78.9789 98.3941 75.1825 96.9782 76.1844 73.2685C75.7 65.4811 80.1174 58.6336 84.5596 57.7435L104.883 55.04L124.432 57.11C129.4 57.8221 133.892 61.7386 135.213 76.9241Z" fill="white"/>
  <path d="M101.877 24.8636C100.635 22.1312 98.9791 20.8105 99.9437 20.9595C102.535 21.3735 104.121 19.0924 106.025 20.3758C106.953 21.4356 105.885 23.4063 105.839 23.2986C106.791 23.7499 107.979 23.3939 108.762 22.6983C109.544 22.0028 109.818 20.7857 110.203 19.8003C110.491 20.8598 110.465 21.9803 110.128 23.0254C110.811 23.5677 112.219 22.5493 112.86 21.9573C113.502 21.2781 113.981 20.463 114.264 19.5726C114.508 20.5248 114.699 21.4936 114.016 22.6404C114.984 22.6942 116.255 22.3961 116.893 21.6716C117.226 21.2942 117.473 20.8486 117.616 20.3659C117.759 19.8832 117.795 19.3751 117.721 18.8771C117.94 19.3656 117.973 21.3611 117.539 21.6965C119.195 21.1541 120.731 19.0841 120.644 17.3577C120.564 16.4916 120.277 15.6574 119.806 14.926C119.335 14.1945 118.695 13.5872 117.94 13.1556C117.199 12.7127 116.375 12.4229 115.597 12.042C114.401 11.4541 106.8 5.7823 95.6381 12.249C88.7119 16.2648 90.0657 24.255 90.8895 25.1244C91.9121 26.1966 93.5226 26.5568 95.0088 26.4078C96.4951 26.2587 102.2 25.5881 101.877 24.8636Z" fill="#407BFF"/>
  <path opacity="0.3" d="M101.877 24.8636C100.635 22.1312 98.9791 20.8105 99.9437 20.9595C102.535 21.3735 104.121 19.0924 106.025 20.3758C106.953 21.4356 105.885 23.4063 105.839 23.2986C106.791 23.7499 107.979 23.3939 108.762 22.6983C109.544 22.0028 109.818 20.7857 110.203 19.8003C110.491 20.8598 110.465 21.9803 110.128 23.0254C110.811 23.5677 112.219 22.5493 112.86 21.9573C113.502 21.2781 113.981 20.463 114.264 19.5726C114.508 20.5248 114.699 21.4936 114.016 22.6404C114.984 22.6942 116.255 22.3961 116.893 21.6716C117.226 21.2942 117.473 20.8486 117.616 20.3659C117.759 19.8832 117.795 19.3751 117.721 18.8771C117.94 19.3656 117.973 21.3611 117.539 21.6965C119.195 21.1541 120.731 19.0841 120.644 17.3577C120.564 16.4916 120.277 15.6574 119.806 14.926C119.335 14.1945 118.695 13.5872 117.94 13.1556C117.199 12.7127 116.375 12.4229 115.597 12.042C114.401 11.4541 106.8 5.7823 95.6381 12.249C88.7119 16.2648 90.0657 24.255 90.8895 25.1244C91.9121 26.1966 93.5226 26.5568 95.0088 26.4078C96.4951 26.2587 102.2 25.5881 101.877 24.8636Z" fill="black"/>
  <path d="M116.334 38.8397C116.334 38.8397 113.804 37.813 106.348 36.9229C106.762 39.6304 108.418 40.773 112.231 41.187C116.044 41.601 116.334 38.8397 116.334 38.8397Z" fill="#407BFF"/>
  <path opacity="0.3" d="M116.334 38.8397C116.334 38.8397 113.804 37.813 106.348 36.9229C106.762 39.6304 108.418 40.773 112.231 41.187C116.044 41.601 116.334 38.8397 116.334 38.8397Z" fill="black"/>
  <path d="M115.995 38.7446C115.881 39.0417 115.691 39.3041 115.445 39.5059C115.199 39.7077 114.905 39.8419 114.591 39.8955C112.389 39.6297 110.219 39.1471 108.112 38.4548C107.755 38.3734 107.429 38.1925 107.171 37.9331C106.913 37.6737 106.734 37.3464 106.655 36.9893C109.815 37.2879 112.942 37.8754 115.995 38.7446Z" fill="white"/>
  <path d="M114.442 39.6721C112.563 38.9084 110.577 38.4405 108.555 38.2852C107.988 38.3469 107.449 38.5615 106.994 38.9062C107.822 40.2475 109.478 40.9141 112.198 41.2204C113.222 41.4016 114.277 41.2092 115.171 40.6781C114.974 40.3116 114.729 39.9732 114.442 39.6721Z" fill="white"/>
  <path d="M80.3158 117.513C80.3158 117.513 90.0779 112.338 90.0241 112.905C89.9703 113.472 90.227 124.422 90.227 124.422L79.583 124.178L80.3158 117.513Z" fill="#407BFF"/>
  <path d="M90.0161 112.904C90.0161 112.904 99.0041 113.198 98.9544 114.196C98.9047 115.194 97.9359 123.569 97.9359 123.569L90.219 124.426L90.0161 112.904Z" fill="#407BFF"/>
  <g opacity="0.7">
    <path d="M98.9465 114.196C98.8968 115.198 97.9322 123.565 97.9322 123.565L90.2152 124.422L79.5713 124.178L80.3041 117.513C80.3041 117.513 90.0662 112.338 90.0124 112.905C90.0165 112.905 99.0044 113.219 98.9465 114.196Z" fill="white"/>
  </g>
  <path d="M121.199 56.7043C120.879 59.7062 119.757 62.5665 117.949 64.9843C117.816 65.1623 117.68 65.3404 117.535 65.5142C113.511 70.6106 106.278 72.1921 100.263 69.5135C98.361 68.6895 96.5352 67.7004 94.8063 66.5575C91.3949 64.264 88.4514 61.0762 87.0645 57.3336L97.6422 55.9715L104.875 55.04L109.818 55.5451L121.199 56.7043Z" fill="#407BFF"/>
  <path opacity="0.7" d="M121.199 56.7043C120.879 59.7062 119.757 62.5665 117.949 64.9843C117.816 65.1623 117.68 65.3404 117.535 65.5142C113.511 70.6106 106.278 72.1921 100.263 69.5135C98.361 68.6895 96.5352 67.7004 94.8063 66.5575C91.3949 64.264 88.4514 61.0762 87.0645 57.3336L97.6422 55.9715L104.875 55.04L109.818 55.5451L121.199 56.7043Z" fill="white"/>
  <path opacity="0.2" d="M76.2505 83.5886C76.2654 88.2442 76.6809 92.8898 77.4925 97.4742L80.9494 75.8965L76.2505 83.5886Z" fill="black"/>
  <path d="M57.5128 99.2013L80.6347 115.538L79.5749 125.147C79.5749 125.147 44.8734 117.169 39.6197 106.343C37.1647 101.292 39.9302 95.1151 44.2027 89.4019C44.2046 89.3951 44.2046 89.388 44.2027 89.3812C49.2825 81.0722 53.8986 76.1332 57.3803 73.2145C60.795 70.4358 63.761 67.1473 66.1737 63.4648C72.1684 54.0546 85.6317 57.8675 85.6317 57.8675C82.5639 65.0463 82.5308 78.7 82.5308 78.7C82.5308 78.7 79.521 80.9687 76.2339 83.5893C76.2008 85.8042 74.8553 88.5159 72.2553 91.5796C68.8398 95.6202 58.6803 97.922 57.5128 99.2013Z" fill="#407BFF"/>
  <path opacity="0.3" d="M57.5128 99.2013L80.6347 115.538L79.5749 125.147C79.5749 125.147 44.8734 117.169 39.6197 106.343C37.1647 101.292 39.9302 95.1151 44.2027 89.4019C44.2046 89.3951 44.2046 89.388 44.2027 89.3812C49.2825 81.0722 53.8986 76.1332 57.3803 73.2145C60.795 70.4358 63.761 67.1473 66.1737 63.4648C72.1684 54.0546 85.6317 57.8675 85.6317 57.8675C82.5639 65.0463 82.5308 78.7 82.5308 78.7C82.5308 78.7 79.521 80.9687 76.2339 83.5893C76.2008 85.8042 74.8553 88.5159 72.2553 91.5796C68.8398 95.6202 58.6803 97.922 57.5128 99.2013Z" fill="white"/>
  <path d="M74.9796 55.0852C82.2895 61.1648 90.5951 65.9353 99.5298 69.186C99.5298 66.3832 98.6356 60.7197 97.0458 57.209C96.5945 56.2237 96.0232 55.2342 95.1 54.667C94.1768 54.0999 92.823 54.104 92.1358 54.9444C89.511 53.0897 85.193 53.0028 82.6469 54.9444C80.6762 54.2613 77.8776 53.1766 75.8242 53.5451C73.7707 53.9136 71.237 56.6501 71.5434 58.716C73.4375 57.8093 75.4911 57.2833 77.5878 57.1676C77.0248 56.5011 77.5754 57.1883 74.9796 55.0852Z" fill="#407BFF"/>
  <path opacity="0.6" d="M74.9796 55.0852C82.2895 61.1648 90.5951 65.9353 99.5298 69.186C99.5298 66.3832 98.6356 60.7197 97.0458 57.209C96.5945 56.2237 96.0232 55.2342 95.1 54.667C94.1768 54.0999 92.823 54.104 92.1358 54.9444C89.511 53.0897 85.193 53.0028 82.6469 54.9444C80.6762 54.2613 77.8776 53.1766 75.8242 53.5451C73.7707 53.9136 71.237 56.6501 71.5434 58.716C73.4375 57.8093 75.4911 57.2833 77.5878 57.1676C77.0248 56.5011 77.5754 57.1883 74.9796 55.0852Z" fill="white"/>
  <path d="M128.104 55.7928C126.917 55.2556 125.629 54.9777 124.326 54.9777C123.023 54.9777 121.735 55.2556 120.548 55.7928C118.926 54.6046 116.429 54.3521 114.752 55.4906C114.489 55.1751 114.162 54.918 113.794 54.7356C113.425 54.5531 113.023 54.4493 112.612 54.4307C111.784 54.4018 111.254 54.9731 110.687 55.5651C111.879 56.1654 112.488 57.5026 112.91 58.7695C113.988 61.9784 114.447 65.3626 114.264 68.7427C119.977 65.9524 124.825 61.27 128.104 55.7928Z" fill="#407BFF"/>
  <path opacity="0.6" d="M128.104 55.7928C126.917 55.2556 125.629 54.9777 124.326 54.9777C123.023 54.9777 121.735 55.2556 120.548 55.7928C118.926 54.6046 116.429 54.3521 114.752 55.4906C114.489 55.1751 114.162 54.918 113.794 54.7356C113.425 54.5531 113.023 54.4493 112.612 54.4307C111.784 54.4018 111.254 54.9731 110.687 55.5651C111.879 56.1654 112.488 57.5026 112.91 58.7695C113.988 61.9784 114.447 65.3626 114.264 68.7427C119.977 65.9524 124.825 61.27 128.104 55.7928Z" fill="white"/>
  <path opacity="0.5" d="M126.986 88.0561C126.986 94.3448 118.035 105.585 106.994 105.585C95.9526 105.585 87.002 94.3448 87.002 88.0561C87.002 81.7675 95.9526 76.667 106.994 76.667C118.035 76.667 126.986 81.755 126.986 88.0561Z" fill="white"/>
  <path d="M124.299 88.5983C124.299 93.7774 116.926 103.039 107.83 103.039C98.7349 103.039 91.3657 93.7609 91.3657 88.5983C91.3657 83.4357 98.7349 79.2129 107.83 79.2129C116.926 79.2129 124.299 83.4109 124.299 88.5983Z" fill="#407BFF"/>
  <path opacity="0.5" d="M124.299 88.5983C124.299 93.7774 116.926 103.039 107.83 103.039C98.7349 103.039 91.3657 93.7609 91.3657 88.5983C91.3657 83.4357 98.7349 79.2129 107.83 79.2129C116.926 79.2129 124.299 83.4109 124.299 88.5983Z" fill="white"/>
  <path opacity="0.2" d="M122.875 27.7654C122.701 28.937 121.786 30.4854 120.967 31.6694C121.1 34.0387 120.961 36.4154 120.553 38.753C120.056 41.5062 118.664 44.0184 116.594 45.8996C114.523 47.7809 111.889 48.9258 109.101 49.1568C109.05 50.0945 109.05 51.0343 109.101 51.972C109.16 53.185 109.4 54.3824 109.813 55.5241L121.186 56.6833C120.867 59.6852 119.744 62.5455 117.936 64.9633C117.804 65.1413 117.667 65.3194 117.522 65.4932C113.498 70.5896 106.265 72.1711 100.25 69.4925C98.3526 68.6679 96.5309 67.6788 94.8059 66.5365C91.3946 64.243 88.451 61.0552 87.0641 57.3126L97.6418 55.9505C98.1883 54.4022 98.3125 52.0175 98.5609 50.1545C98.7348 48.8836 98.4698 46.1346 97.9482 43.5554C97.5512 43.3582 97.1729 43.1254 96.818 42.8599C96.818 44.0729 95.99 46.1719 95.99 46.1719C92.1315 44.9009 88.952 37.1839 88.538 34.6254C86.3893 38.6122 86.5798 36.3187 86.4142 34.6254C86.174 32.1869 86.1119 29.6574 86.9441 27.3597C87.5379 25.651 88.7092 24.203 90.2561 23.2652C89.8421 20.4583 90.4134 15.2378 95.5884 12.2363C106.766 5.7696 114.351 11.4414 115.547 12.0293C116.326 12.4102 117.145 12.7 117.891 13.1429C118.646 13.5745 119.286 14.1818 119.756 14.9133C120.227 15.6447 120.514 16.4789 120.594 17.345C120.648 18.4711 120.019 19.738 119.116 20.6363C122.958 21.129 123.19 25.6499 122.875 27.7654Z" fill="white"/>
  <path opacity="0.2" d="M114.93 20.0403L114.79 19.8043C114.841 19.4974 114.841 19.1839 114.79 18.877C114.898 19.2547 114.946 19.6475 114.93 20.0403Z" fill="white"/>
  <path d="M83.6858 140.055C82.5217 140.434 81.3336 140.735 80.1296 140.957C79.9433 140.99 79.7611 141.023 79.5831 141.048C78.9993 141.135 78.4529 141.189 77.9271 141.214C69.9162 141.628 69.7092 134.938 69.5105 131.53C69.3132 126.974 69.4266 122.409 69.8499 117.868C70.4047 111.547 71.4563 104.98 72.9839 100.066C75.1947 92.9786 78.7799 92.2003 81.8228 92.1465C82.4107 92.1465 82.9862 92.1465 83.5244 92.1465C83.5244 92.1465 83.1352 94.1544 82.9489 96.0919L81.74 104.678L80.0592 116.593L79.7984 118.452V118.556L78.8876 125.006L78.6764 126.492C78.5812 127.481 78.5108 128.877 79.5914 129.671C79.7436 129.789 79.9107 129.887 80.0882 129.961C80.792 130.276 81.8311 130.404 83.3422 130.226L83.4954 134.457L83.5244 135.219L83.574 136.536L83.6568 138.928L83.6858 140.055Z" fill="#FFB573"/>
  <path d="M65.4739 115.456C67.7675 118.076 69.6139 117.758 72.7852 118.254C75.9564 118.751 78.6888 118.577 81.8932 118.283C82.5431 109.37 83.6402 100.481 83.5492 91.5762C80.9492 91.7708 78.1672 91.6631 76.0351 92.9548C73.195 94.6812 73.0046 99.1151 71.0919 102.241C68.8315 105.934 65.9335 108.96 63.0645 111.949C64.1077 113.771 64.1698 113.945 65.4739 115.456Z" fill="#407BFF"/>
  <g opacity="0.6">
    <path d="M65.4739 115.456C67.7675 118.076 69.6139 117.758 72.7852 118.254C75.9564 118.751 78.6888 118.577 81.8932 118.283C82.5431 109.37 83.6402 100.481 83.5492 91.5762C80.9492 91.7708 78.1672 91.6631 76.0351 92.9548C73.195 94.6812 73.0046 99.1151 71.0919 102.241C68.8315 105.934 65.9335 108.96 63.0645 111.949C64.1077 113.771 64.1698 113.945 65.4739 115.456Z" fill="black"/>
  </g>
  <path opacity="0.2" d="M81.7404 104.675L77.3188 118.569H82.8996L81.7404 104.675Z" fill="black"/>
  <path d="M124.457 120.514C123.948 122.791 123.339 125.023 122.718 127.867C122.586 128.476 122.449 129.109 122.304 129.788C122.118 130.732 121.931 131.734 121.753 132.827C121.555 134.069 121.36 135.394 121.174 136.867C121.008 138.142 120.855 139.517 120.71 141.007C120.648 141.657 120.582 142.328 120.524 143.032C120.408 144.402 120.296 145.864 120.197 147.424C120.097 148.985 120.006 150.716 119.924 152.529C118.574 152.496 78.6851 152.529 78.6851 152.529C78.9086 149.875 79.0991 147.379 79.2812 144.969C79.3764 143.632 79.4717 142.324 79.5503 141.032V141.003C79.5793 140.589 79.6041 140.217 79.6248 139.827C79.6869 138.842 79.7408 137.869 79.7904 136.9C79.9105 134.582 80.0016 132.289 80.0595 129.949C80.0595 129.85 80.0595 129.751 80.0595 129.651C80.0927 128.211 80.1134 126.753 80.1216 125.255C80.1216 123.102 80.1216 120.879 80.0761 118.544C80.0761 118.502 80.0761 118.461 80.0761 118.42C80.0761 117.815 80.0554 117.202 80.0388 116.581C79.9892 114.677 79.9229 112.69 79.8318 110.599C79.7201 107.991 79.5752 105.217 79.393 102.261C79.1777 98.7628 79.4261 94.1136 81.7983 92.1388C82.0332 91.9413 82.2902 91.7718 82.5642 91.6337C82.9713 91.4274 83.4088 91.2876 83.8601 91.2197L96.3836 89.2698L100.751 88.5908L107.185 89.8328L121.302 92.6066C121.471 92.6392 121.638 92.6807 121.803 92.7308C122.716 92.9975 123.515 93.5559 124.08 94.3206C125.537 96.2705 125.84 99.7026 125.55 104.323C125.91 112.309 125.351 116.482 124.457 120.514Z" fill="#407BFF"/>
  <path opacity="0.6" d="M124.457 120.514C123.948 122.791 123.339 125.023 122.718 127.867C122.586 128.476 122.449 129.109 122.304 129.788C122.118 130.732 121.931 131.734 121.753 132.827C121.555 134.069 121.36 135.394 121.174 136.867C121.008 138.142 120.855 139.517 120.71 141.007C120.648 141.657 120.582 142.328 120.524 143.032C120.408 144.402 120.296 145.864 120.197 147.424C120.097 148.985 120.006 150.716 119.924 152.529C118.574 152.496 78.6851 152.529 78.6851 152.529C78.9086 149.875 79.0991 147.379 79.2812 144.969C79.3764 143.632 79.4717 142.324 79.5503 141.032V141.003C79.5793 140.589 79.6041 140.217 79.6248 139.827C79.6869 138.842 79.7408 137.869 79.7904 136.9C79.9105 134.582 80.0016 132.289 80.0595 129.949C80.0595 129.85 80.0595 129.751 80.0595 129.651C80.0927 128.211 80.1134 126.753 80.1216 125.255C80.1216 123.102 80.1216 120.879 80.0761 118.544C80.0761 118.502 80.0761 118.461 80.0761 118.42C80.0761 117.815 80.0554 117.202 80.0388 116.581C79.9892 114.677 79.9229 112.69 79.8318 110.599C79.7201 107.991 79.5752 105.217 79.393 102.261C79.1777 98.7628 79.4261 94.1136 81.7983 92.1388C82.0332 91.9413 82.2902 91.7718 82.5642 91.6337C82.9713 91.4274 83.4088 91.2876 83.8601 91.2197L96.3836 89.2698L100.751 88.5908L107.185 89.8328L121.302 92.6066C121.471 92.6392 121.638 92.6807 121.803 92.7308C122.716 92.9975 123.515 93.5559 124.08 94.3206C125.537 96.2705 125.84 99.7026 125.55 104.323C125.91 112.309 125.351 116.482 124.457 120.514Z" fill="black"/>
  <path d="M107.769 90.5781C110.277 92.3665 109.213 95.1776 107.168 97.4753C102.908 102.257 98.4742 103.743 98.4742 103.743C98.408 103.714 87.408 95.7655 95.1622 90.7933C96.4456 89.9653 96.9466 88.0154 97.0873 85.9744C97.1727 84.4153 97.1103 82.8517 96.901 81.3045C96.8638 80.9153 96.8017 80.5344 96.7354 80.1742C96.6692 79.814 96.5947 79.4497 96.5077 79.1144L108.212 74.3037C106.928 76.233 105.951 82.4181 106.224 84.4095C106.522 86.6368 106.609 89.7542 107.769 90.5781Z" fill="#FFB573"/>
  <path opacity="0.2" d="M97.1244 85.974C97.2097 84.415 97.1473 82.8514 96.9381 81.3041C96.9008 80.9149 96.8387 80.5341 96.7725 80.1739L105.794 78.4434C103.914 80.3353 101.248 84.169 97.1244 85.974Z" fill="black"/>
  <path d="M84.8991 65.543C85.193 67.4805 87.9378 70.6311 87.7971 70.4406C87.6872 70.2369 87.6479 70.0025 87.6853 69.7741C87.7479 68.8977 87.971 68.0403 88.3436 67.2446C88.5713 68.3292 88.9273 70.5566 90.0327 70.5855C90.4715 69.7865 91.0139 69.0579 90.9393 68.1471C91.196 69.0786 91.4279 70.0142 91.6804 70.9457C92.7734 70.2374 93.6421 69.2323 94.1846 68.0482C94.7272 66.8641 94.9212 65.55 94.744 64.2596C94.6469 63.6595 94.4331 63.0843 94.1147 62.5664C93.719 61.995 93.2404 61.4857 92.6947 61.0553C91.2954 59.8671 89.511 58.8942 87.7267 59.3993C84.3567 60.3597 84.6051 63.6055 84.8991 65.543Z" fill="#263238"/>
  <path d="M87.2421 74.5477C88.6911 82.4426 98.1427 86.6075 104.382 80.9522C107.983 77.6941 108.559 73.8066 109.213 67.7456C109.317 66.8266 109.42 65.8619 109.54 64.8476C109.731 63.2498 109.566 61.6295 109.056 60.1032C108.845 59.4656 108.568 58.8522 108.228 58.2733C107.009 56.0735 105.056 54.3713 102.711 53.4634C100.366 52.5555 97.7761 52.4996 95.3937 53.3053C87.6022 55.9384 85.9297 67.4434 87.2421 74.5477Z" fill="#FFB573"/>
  <path d="M94.9095 63.3491C94.8516 63.3284 94.8012 63.2909 94.7646 63.2415C94.7068 63.1634 94.6823 63.0656 94.6962 62.9695C94.7102 62.8733 94.7615 62.7866 94.8391 62.7281C95.304 62.3725 95.8485 62.1354 96.4255 62.0373C97.0026 61.9392 97.5948 61.9831 98.1511 62.1651C98.1955 62.1832 98.2358 62.21 98.2698 62.2437C98.3038 62.2775 98.3308 62.3177 98.3493 62.3619C98.3677 62.4061 98.3773 62.4536 98.3774 62.5015C98.3775 62.5494 98.3681 62.5969 98.3498 62.6412C98.3121 62.7321 98.2404 62.8047 98.1498 62.8434C98.0593 62.8821 97.9572 62.8838 97.8655 62.8482C97.4243 62.7035 96.9545 62.6689 96.497 62.7476C96.0395 62.8263 95.6081 63.0157 95.2407 63.2994C95.1945 63.3356 95.1397 63.3593 95.0816 63.368C95.0236 63.3767 94.9643 63.3702 94.9095 63.3491Z" fill="#263238"/>
  <path d="M90.9102 63.9035C90.8709 63.8571 90.8211 63.8205 90.765 63.7968C90.709 63.7731 90.6481 63.7628 90.5873 63.7669C90.1137 63.8266 89.6326 63.7755 89.1821 63.6174C88.7316 63.4593 88.324 63.1987 87.9915 62.8561C87.9272 62.7803 87.8357 62.7326 87.7367 62.7233C87.6377 62.7141 87.539 62.7439 87.4616 62.8064C87.3878 62.8699 87.3407 62.959 87.33 63.0558C87.3192 63.1526 87.3456 63.2499 87.4037 63.3281C87.8133 63.7672 88.322 64.1019 88.8874 64.3043C89.4527 64.5067 90.0583 64.5709 90.6536 64.4914C90.7037 64.4878 90.7526 64.4741 90.7973 64.4512C90.842 64.4282 90.8816 64.3964 90.9137 64.3577C90.9458 64.319 90.9698 64.2743 90.9841 64.2261C90.9984 64.1779 91.0029 64.1273 90.9972 64.0774C90.9824 64.0134 90.9526 63.9538 90.9102 63.9035Z" fill="#263238"/>
  <path d="M92.3222 72.2542C91.1871 72.2649 90.0825 71.8865 89.1924 71.182C90.4054 69.9772 91.7633 68.6234 92.5955 67.1289L92.3222 72.2542Z" fill="#ED893E"/>
  <path d="M89.4988 67.5801C89.1889 67.5556 88.887 67.4698 88.6105 67.3277C88.3341 67.1855 88.0886 66.9899 87.8884 66.7521C87.8696 66.7323 87.8549 66.7089 87.8452 66.6834C87.8355 66.6579 87.8309 66.6307 87.8316 66.6034C87.8324 66.5762 87.8385 66.5493 87.8497 66.5243C87.8608 66.4994 87.8768 66.4769 87.8966 66.4582C87.9165 66.4394 87.9398 66.4248 87.9653 66.415C87.9909 66.4053 88.018 66.4007 88.0453 66.4014C88.0726 66.4022 88.0995 66.4084 88.1244 66.4195C88.1493 66.4307 88.1718 66.4466 88.1906 66.4665C88.6501 66.9509 89.3705 67.4311 90.1819 66.955C90.2293 66.9273 90.2857 66.9191 90.339 66.9322C90.3924 66.9454 90.4385 66.9788 90.4676 67.0254C90.495 67.0733 90.5025 67.13 90.4885 67.1834C90.4746 67.2368 90.4403 67.2826 90.3931 67.311C90.1246 67.4795 89.8157 67.5724 89.4988 67.5801Z" fill="#263238"/>
  <path d="M96.7023 74.1665C96.1192 74.6137 95.4526 74.9397 94.7415 75.1253C94.0305 75.3109 93.2895 75.3523 92.5623 75.247C92.5129 75.2418 92.4674 75.2179 92.435 75.1801C92.4027 75.1424 92.386 75.0938 92.3884 75.0441C92.3895 75.0208 92.3951 74.9978 92.4051 74.9766C92.415 74.9554 92.429 74.9364 92.4463 74.9206C92.4637 74.9049 92.4839 74.8927 92.5059 74.8847C92.528 74.8768 92.5513 74.8733 92.5747 74.8744C93.3677 74.9863 94.1757 74.9147 94.9366 74.6649C95.6975 74.4151 96.3908 73.9938 96.9631 73.4337C96.997 73.401 97.0423 73.3828 97.0894 73.3828C97.1365 73.3828 97.1817 73.401 97.2157 73.4337C97.2482 73.4701 97.2663 73.5173 97.2663 73.5662C97.2663 73.615 97.2482 73.6622 97.2157 73.6986C97.0611 73.867 96.89 74.0229 96.7023 74.1665Z" fill="#263238"/>
  <path d="M105.094 79.2718C106.049 79.0931 106.952 78.698 107.731 78.1168C107.731 79.1642 108.435 80.961 108.435 80.961C111.767 79.8639 114.512 73.1943 114.881 70.9836C116.735 74.428 116.574 72.4491 116.719 70.9836C116.926 68.8763 116.976 66.6945 116.259 64.7073C115.543 62.7201 113.9 60.9441 111.813 60.6004C111.424 60.5638 111.033 60.6321 110.68 60.7981C110.327 60.9641 110.025 61.2218 109.805 61.5444C109.448 62.1851 109.215 62.8873 109.118 63.6144C108.149 68.8349 108.19 74.9414 105.094 79.2718Z" fill="#263238"/>
  <path d="M109.822 67.2653C107.272 67.3191 105.711 70.5359 105.442 72.7384C105.123 75.1851 106.771 77.2013 109.135 76.1166C110.016 75.7074 110.807 75.1265 111.461 74.4078C112.115 73.689 112.619 72.847 112.943 71.9311C113.73 69.6665 112.372 67.2197 109.822 67.2653Z" fill="#FFB573"/>
  <path opacity="0.2" d="M116.897 107.892C116.897 107.892 113.801 121.906 115.949 130.364C118.098 138.822 122.387 143.086 122.387 143.086L123.153 107.896L116.897 107.892Z" fill="black"/>
  <path d="M128.754 120.567C128.142 127.042 127.239 133.439 126.494 137.637C125.976 140.56 124.325 142.605 122.387 143.093C121.778 143.239 121.142 143.224 120.541 143.052C120.45 143.027 120.363 142.998 120.271 142.965L105.45 139.144L105.322 139.106L103.736 138.692L103.761 135.753V135.517V134.354L103.794 130.681L105.798 130.789L115.589 131.311C115.787 131.366 115.996 131.375 116.198 131.336C117.046 131.174 117.75 130.181 117.854 128.872L118.044 126.032L118.458 119.768L119.257 107.882L119.99 96.8784C120.071 95.6911 120.258 94.5134 120.549 93.3594C121.794 93.4123 123.01 93.7538 124.101 94.3571C126.407 95.5991 128.912 98.2363 129.317 103.643C129.657 108.131 129.342 114.382 128.754 120.567Z" fill="#FFB573"/>
  <path d="M137.614 118.676C136.705 119.329 135.658 119.764 134.554 119.947C127.359 121.139 122.801 120.535 117.001 119.533C115.978 109.907 116.235 102.455 118.081 97.0734C118.698 95.285 120.462 92.6809 122.35 92.7596C130.369 93.0949 131.735 101.16 132.65 104.881C133.787 109.65 135.452 114.277 137.614 118.676Z" fill="#407BFF"/>
  <path opacity="0.6" d="M137.614 118.676C136.705 119.329 135.658 119.764 134.554 119.947C127.359 121.139 122.801 120.535 117.001 119.533C115.978 109.907 116.235 102.455 118.081 97.0734C118.698 95.285 120.462 92.6809 122.35 92.7596C130.369 93.0949 131.735 101.16 132.65 104.881C133.787 109.65 135.452 114.277 137.614 118.676Z" fill="black"/>
  <path d="M103.338 63.4483C104.328 60.8981 105.777 59.6188 104.92 59.7927C102.602 60.2688 101.078 58.2609 99.4179 59.5153C98.6272 60.5214 99.6705 62.2809 99.7077 62.1815C98.8797 62.6328 97.7826 62.3595 97.0498 61.7675C96.3171 61.1755 96.019 60.0618 95.6298 59.1924C95.4168 60.1744 95.4872 61.1966 95.8327 62.1401C95.2407 62.6659 93.9324 61.7882 93.3487 61.2748C92.7454 60.6721 92.2843 59.9423 91.999 59.1386C91.8252 60.0163 91.6885 60.9147 92.3551 61.9331C91.4815 62.02 90.3265 61.8006 89.722 61.1631C89.4055 60.8304 89.1646 60.4332 89.016 59.9988C88.8673 59.5643 88.8144 59.1028 88.8609 58.6459C88.6829 59.1013 88.7367 60.9436 89.1424 61.2169C87.6189 60.8029 86.1575 58.9565 86.1616 57.375C86.1957 56.5824 86.419 55.8095 86.813 55.1209C87.207 54.4323 87.7602 53.8481 88.4262 53.4171C89.0721 53.0031 89.8007 52.6802 90.4962 52.2993C91.5478 51.7156 98.1594 46.2053 108.48 51.6659C114.889 55.0524 114.007 62.4299 113.299 63.2579C112.422 64.2805 110.985 64.6779 109.64 64.6034C108.294 64.5289 103.086 64.1232 103.338 63.4483Z" fill="#263238"/>
  <path d="M104.713 59.7718C104.044 60.4919 103.544 61.3527 103.25 62.2911C102.956 63.2295 102.876 64.2218 103.016 65.1952C103.31 67.1327 106.059 70.2874 105.914 70.0928C105.804 69.8891 105.765 69.6547 105.802 69.4262C105.865 68.5499 106.088 67.6924 106.46 66.8967C106.692 67.9814 107.044 70.2087 108.154 70.2377C108.593 69.4387 109.131 68.71 109.056 67.7992C109.313 68.7307 109.545 69.6664 109.801 70.5979C110.894 69.8888 111.762 68.8836 112.304 67.6997C112.847 66.5158 113.041 65.202 112.865 63.9118C112.766 63.3114 112.551 62.7362 112.232 62.2185C111.832 61.6511 111.349 61.1473 110.799 60.724C109.4 59.5358 107.545 58.3517 105.831 59.068C105.616 59.1632 104.647 59.5151 104.713 59.7718Z" fill="#263238"/>
  <path d="M97.8158 66.0646C97.8158 66.7104 97.4722 67.2279 97.0582 67.2403C96.6442 67.2527 96.3047 66.7394 96.2716 66.077C96.2384 65.4146 96.6152 64.9136 97.0333 64.9054C97.4515 64.8971 97.8199 65.427 97.8158 66.0646Z" fill="#263238"/>
  <path d="M34.0765 125.809C34.2772 124.875 34.4155 123.929 34.4905 122.977C34.9045 119.777 36.7841 117.301 39.1729 116.817L40.8992 116.461C40.8992 116.461 38.1917 116.461 37.0615 115.67C34.6685 114.014 34.1179 109.046 34.1179 109.046C34.1179 109.046 33.4472 114.014 31.0502 115.67C29.92 116.461 27.2124 116.461 27.2124 116.461L28.9388 116.817C31.3317 117.301 33.2278 119.777 33.6253 122.977C33.7138 123.93 33.8646 124.876 34.0765 125.809Z" fill="#407BFF"/>
  <g opacity="0.7">
    <path d="M34.0765 125.809C34.2772 124.875 34.4155 123.929 34.4905 122.977C34.9045 119.777 36.7841 117.301 39.1729 116.817L40.8992 116.461C40.8992 116.461 38.1917 116.461 37.0615 115.67C34.6685 114.014 34.1179 109.046 34.1179 109.046C34.1179 109.046 33.4472 114.014 31.0502 115.67C29.92 116.461 27.2124 116.461 27.2124 116.461L28.9388 116.817C31.3317 117.301 33.2278 119.777 33.6253 122.977C33.7138 123.93 33.8646 124.876 34.0765 125.809Z" fill="white"/>
  </g>
  <path d="M152.352 89.9156C152.531 89.1107 152.655 88.2947 152.724 87.473C153.068 84.7158 154.703 82.5837 156.765 82.1614L158.251 81.8592C158.251 81.8592 155.916 81.8592 154.939 81.1761C152.869 79.7312 152.402 75.4629 152.402 75.4629C152.402 75.4629 151.822 79.7312 149.76 81.1761C148.787 81.8592 146.448 81.8592 146.448 81.8592L147.939 82.1614C150.009 82.5754 151.636 84.7158 151.975 87.473C152.048 88.2945 152.174 89.1104 152.352 89.9156Z" fill="#407BFF"/>
  <g opacity="0.7">
    <path d="M152.352 89.9156C152.531 89.1107 152.655 88.2947 152.724 87.473C153.068 84.7158 154.703 82.5837 156.765 82.1614L158.251 81.8592C158.251 81.8592 155.916 81.8592 154.939 81.1761C152.869 79.7312 152.402 75.4629 152.402 75.4629C152.402 75.4629 151.822 79.7312 149.76 81.1761C148.787 81.8592 146.448 81.8592 146.448 81.8592L147.939 82.1614C150.009 82.5754 151.636 84.7158 151.975 87.473C152.048 88.2945 152.174 89.1104 152.352 89.9156Z" fill="white"/>
  </g>
  <path d="M69.4026 46.0109C69.4854 45.9778 69.7089 44.3549 69.9491 42.4257C70.45 38.3726 72.8471 35.2387 75.8817 34.6218L78.0676 34.1747C78.0676 34.1747 74.6355 34.1747 73.2072 33.1728C70.1726 31.0531 69.4812 24.7852 69.4812 24.7852C69.4812 24.7852 68.6532 31.0531 65.6021 33.1728C64.1696 34.1747 60.7417 34.1747 60.7417 34.1747L62.9276 34.6218C65.954 35.2387 68.3552 38.3726 68.8561 42.4257C69.0962 44.3715 69.3156 45.9778 69.4026 46.0109Z" fill="#407BFF"/>
  <g opacity="0.7">
    <path d="M69.4026 46.0109C69.4854 45.9778 69.7089 44.3549 69.9491 42.4257C70.45 38.3726 72.8471 35.2387 75.8817 34.6218L78.0676 34.1747C78.0676 34.1747 74.6355 34.1747 73.2072 33.1728C70.1726 31.0531 69.4812 24.7852 69.4812 24.7852C69.4812 24.7852 68.6532 31.0531 65.6021 33.1728C64.1696 34.1747 60.7417 34.1747 60.7417 34.1747L62.9276 34.6218C65.954 35.2387 68.3552 38.3726 68.8561 42.4257C69.0962 44.3715 69.3156 45.9778 69.4026 46.0109Z" fill="white"/>
  </g>
  <path d="M164.499 135.708C164.586 135.675 164.81 134.052 165.05 132.123C165.551 128.07 167.948 124.936 170.982 124.319L173.168 123.872C173.168 123.872 169.736 123.872 168.304 122.87C165.273 120.746 164.578 114.479 164.578 114.479C164.578 114.479 163.75 120.746 160.694 122.87C159.266 123.872 155.834 123.872 155.834 123.872L158.02 124.319C161.05 124.936 163.452 128.07 163.953 132.123C164.193 134.069 164.416 135.675 164.499 135.708Z" fill="#407BFF"/>
  <g opacity="0.7">
    <path d="M164.499 135.708C164.586 135.675 164.81 134.052 165.05 132.123C165.551 128.07 167.948 124.936 170.982 124.319L173.168 123.872C173.168 123.872 169.736 123.872 168.304 122.87C165.273 120.746 164.578 114.479 164.578 114.479C164.578 114.479 163.75 120.746 160.694 122.87C159.266 123.872 155.834 123.872 155.834 123.872L158.02 124.319C161.05 124.936 163.452 128.07 163.953 132.123C164.193 134.069 164.416 135.675 164.499 135.708Z" fill="white"/>
  </g>
  <path d="M129.648 46.9799C129.781 46.3823 129.874 45.7765 129.926 45.1666C130.178 43.1214 131.391 41.5358 132.923 41.2212L134.028 40.9976C134.028 40.9976 132.294 40.9976 131.573 40.4925C130.037 39.4203 129.685 36.249 129.685 36.249C129.685 36.249 129.271 39.4203 127.727 40.4925C127.003 40.9976 125.268 40.9976 125.268 40.9976L126.373 41.2212C127.905 41.5358 129.118 43.1214 129.371 45.1666C129.425 45.7762 129.518 46.3819 129.648 46.9799Z" fill="#407BFF"/>
  <g opacity="0.7">
    <path d="M129.648 46.9799C129.781 46.3823 129.874 45.7765 129.926 45.1666C130.178 43.1214 131.391 41.5358 132.923 41.2212L134.028 40.9976C134.028 40.9976 132.294 40.9976 131.573 40.4925C130.037 39.4203 129.685 36.249 129.685 36.249C129.685 36.249 129.271 39.4203 127.727 40.4925C127.003 40.9976 125.268 40.9976 125.268 40.9976L126.373 41.2212C127.905 41.5358 129.118 43.1214 129.371 45.1666C129.425 45.7762 129.518 46.3819 129.648 46.9799Z" fill="white"/>
  </g>
  <path d="M34.8425 72.4533C34.9776 71.8561 35.0702 71.2502 35.1199 70.64C35.3724 68.5948 36.5896 67.0092 38.1173 66.6946L39.2226 66.471C39.2226 66.471 37.488 66.471 36.7676 65.9659C35.2358 64.8937 34.8839 61.7266 34.8839 61.7266C34.8839 61.7266 34.4699 64.8937 32.9216 65.9659C32.1971 66.471 30.4624 66.471 30.4624 66.471L31.5678 66.6946C33.0996 67.0092 34.3126 68.5948 34.5651 70.64C34.6196 71.2496 34.7122 71.8553 34.8425 72.4533Z" fill="#407BFF"/>
  <g opacity="0.7">
    <path d="M34.8425 72.4533C34.9776 71.8561 35.0702 71.2502 35.1199 70.64C35.3724 68.5948 36.5896 67.0092 38.1173 66.6946L39.2226 66.471C39.2226 66.471 37.488 66.471 36.7676 65.9659C35.2358 64.8937 34.8839 61.7266 34.8839 61.7266C34.8839 61.7266 34.4699 64.8937 32.9216 65.9659C32.1971 66.471 30.4624 66.471 30.4624 66.471L31.5678 66.6946C33.0996 67.0092 34.3126 68.5948 34.5651 70.64C34.6196 71.2496 34.7122 71.8553 34.8425 72.4533Z" fill="white"/>
  </g>
</svg>