<svg xmlns="http://www.w3.org/2000/svg" width="24" height="24" viewBox="0 0 24 24" fill="none">
  <path fill-rule="evenodd" clip-rule="evenodd" d="M0.401777 7.05C-0.246207 8.4024 -0.0182127 9.9852 0.437777 13.1496L0.771368 15.474C1.35575 19.5396 1.64855 21.5712 3.05851 22.7856C4.46848 24 6.53603 24 10.6723 24H13.3267C17.463 24 19.5305 24 20.9405 22.7856C22.3505 21.5712 22.6433 19.5396 23.2276 15.474L23.5624 13.1496C24.0184 9.9852 24.2464 8.4024 23.5972 7.05C22.9492 5.6976 21.5681 4.8744 18.8069 3.2304L17.145 2.2404C14.6394 0.7464 13.3843 0 11.9995 0C10.6147 0 9.36077 0.7464 6.85402 2.2404L5.19206 3.2304C2.43213 4.8744 1.05096 5.6976 0.401777 7.05ZM7.49961 19.2C7.49961 18.9613 7.59443 18.7324 7.76321 18.5636C7.93199 18.3948 8.1609 18.3 8.39959 18.3H15.5994C15.8381 18.3 16.067 18.3948 16.2358 18.5636C16.4046 18.7324 16.4994 18.9613 16.4994 19.2C16.4994 19.4387 16.4046 19.6676 16.2358 19.8364C16.067 20.0052 15.8381 20.1 15.5994 20.1H8.39959C8.1609 20.1 7.93199 20.0052 7.76321 19.8364C7.59443 19.6676 7.49961 19.4387 7.49961 19.2Z" fill="#111111"/>
</svg>
