<svg xmlns="http://www.w3.org/2000/svg" width="25" height="25" viewBox="0 0 25 25" fill="none">
  <path d="M12.5 8.75C11.5054 8.75 10.5516 9.14509 9.84835 9.84835C9.14509 10.5516 8.75 11.5054 8.75 12.5C8.75 13.4946 9.14509 14.4484 9.84835 15.1517C10.5516 15.8549 11.5054 16.25 12.5 16.25C13.4946 16.25 14.4484 15.8549 15.1517 15.1517C15.8549 14.4484 16.25 13.4946 16.25 12.5C16.25 11.5054 15.8549 10.5516 15.1517 9.84835C14.4484 9.14509 13.4946 8.75 12.5 8.75ZM12.5 6.25C14.1576 6.25 15.7473 6.90848 16.9194 8.08058C18.0915 9.25268 18.75 10.8424 18.75 12.5C18.75 14.1576 18.0915 15.7473 16.9194 16.9194C15.7473 18.0915 14.1576 18.75 12.5 18.75C10.8424 18.75 9.25269 18.0915 8.08058 16.9194C6.90848 15.7473 6.25 14.1576 6.25 12.5C6.25 10.8424 6.90848 9.25268 8.08058 8.08058C9.25269 6.90848 10.8424 6.25 12.5 6.25ZM20.625 5.9375C20.625 6.3519 20.4604 6.74933 20.1674 7.04235C19.8743 7.33538 19.4769 7.5 19.0625 7.5C18.6481 7.5 18.2507 7.33538 17.9576 7.04235C17.6646 6.74933 17.5 6.3519 17.5 5.9375C17.5 5.5231 17.6646 5.12567 17.9576 4.83265C18.2507 4.53962 18.6481 4.375 19.0625 4.375C19.4769 4.375 19.8743 4.53962 20.1674 4.83265C20.4604 5.12567 20.625 5.5231 20.625 5.9375ZM12.5 2.5C9.4075 2.5 8.9025 2.50875 7.46375 2.5725C6.48375 2.61875 5.82625 2.75 5.21625 2.9875C4.70577 3.17492 4.24427 3.47533 3.86625 3.86625C3.47501 4.24425 3.17419 4.70573 2.98625 5.21625C2.74875 5.82875 2.6175 6.485 2.5725 7.46375C2.5075 8.84375 2.49875 9.32625 2.49875 12.5C2.49875 15.5938 2.5075 16.0975 2.57125 17.5362C2.6175 18.515 2.74875 19.1737 2.985 19.7825C3.1975 20.3263 3.4475 20.7175 3.8625 21.1325C4.28375 21.5525 4.675 21.8037 5.2125 22.0112C5.83 22.25 6.4875 22.3825 7.4625 22.4275C8.8425 22.4925 9.325 22.5 12.4988 22.5C15.5925 22.5 16.0963 22.4912 17.535 22.4275C18.5125 22.3812 19.17 22.25 19.7812 22.0138C20.2913 21.8254 20.7526 21.5251 21.1313 21.135C21.5525 20.715 21.8038 20.3237 22.0113 19.785C22.2488 19.17 22.3813 18.5125 22.4263 17.535C22.4912 16.1562 22.4988 15.6725 22.4988 12.5C22.4988 9.4075 22.49 8.9025 22.4263 7.46375C22.38 6.48625 22.2475 5.82625 22.0113 5.21625C21.8228 4.70627 21.5226 4.24498 21.1325 3.86625C20.7547 3.47481 20.2931 3.17396 19.7825 2.98625C19.17 2.74875 18.5125 2.6175 17.535 2.5725C16.1562 2.5075 15.675 2.5 12.5 2.5ZM12.5 0C15.8962 0 16.32 0.0124999 17.6538 0.0749999C18.9838 0.1375 19.8913 0.34625 20.6875 0.65625C21.5125 0.97375 22.2075 1.40375 22.9025 2.0975C23.5381 2.72237 24.0299 3.47824 24.3438 4.3125C24.6525 5.10875 24.8625 6.01625 24.925 7.3475C24.9838 8.68 25 9.10375 25 12.5C25 15.8962 24.9875 16.32 24.925 17.6525C24.8625 18.9837 24.6525 19.89 24.3438 20.6875C24.0308 21.5222 23.5389 22.2782 22.9025 22.9025C22.2775 23.5379 21.5216 24.0297 20.6875 24.3438C19.8913 24.6525 18.9838 24.8625 17.6538 24.925C16.32 24.9838 15.8962 25 12.5 25C9.10375 25 8.68 24.9875 7.34625 24.925C6.01625 24.8625 5.11 24.6525 4.3125 24.3438C3.47791 24.0306 2.72191 23.5387 2.0975 22.9025C1.46179 22.2777 0.96995 21.5218 0.65625 20.6875C0.34625 19.8912 0.1375 18.9837 0.0750002 17.6525C0.0150002 16.32 0 15.8962 0 12.5C0 9.10375 0.0125002 8.68 0.0750002 7.3475C0.1375 6.015 0.34625 5.11 0.65625 4.3125C0.969045 3.47772 1.461 2.72165 2.0975 2.0975C2.72209 1.46154 3.47804 0.969662 4.3125 0.65625C5.10875 0.34625 6.015 0.1375 7.34625 0.0749999C8.68 0.0162499 9.10375 0 12.5 0Z" fill="white"/>
</svg>