<svg xmlns="http://www.w3.org/2000/svg" width="68" height="153" viewBox="0 0 68 153" fill="none">
  <path d="M-13.5915 80.8943L27.2114 117.968C34.9225 124.974 47.3272 120.975 49.4937 110.784C50.5385 105.869 48.7672 100.78 44.8962 97.5767L41.0634 94.4046C36.2063 90.3849 33.3359 84.4526 33.1982 78.1493L33.1639 76.5801C33.0741 72.4677 31.9769 68.4402 29.9686 64.8504L25.0944 56.1382C23.2995 52.93 20.6365 50.293 17.4108 48.5298C11.8777 45.5053 8.1434 39.9974 7.38199 33.7377L5.94284 21.9062C5.8428 15.982 -0.2266 12.0459 -5.67641 14.3711L-13.2785 17.6145C-16.9257 19.1705 -19.7351 22.2096 -21.0005 25.9675L-24.8747 37.4737C-30.07 52.9037 -25.6415 69.9457 -13.5915 80.8943Z" fill="#FFB573"/>
  <g filter="url(#filter0_f_701_828)">
    <path d="M-15.9753 82.2281L24.8276 119.301C32.5387 126.308 44.9434 122.308 47.1099 112.117C48.1547 107.202 46.3834 102.114 42.5125 98.9104L38.6796 95.7384C33.8225 91.7186 30.9521 85.7863 30.8144 79.483L30.7801 77.9138C30.6903 73.8015 29.5931 69.7739 27.5848 66.1842L22.7106 57.4719C20.9157 54.2638 18.2527 51.6268 15.027 49.8636C9.49391 46.8391 5.75961 41.3311 4.99821 35.0715L3.55905 23.24C3.45902 17.3157 -2.61039 13.3797 -8.0602 15.7048L-15.6623 18.9482C-19.3095 20.5043 -22.1189 23.5433 -23.3843 27.3012L-27.2585 38.8075C-32.4538 54.2374 -28.0253 71.2795 -15.9753 82.2281Z" fill="#407BFF"/>
  </g>
  <path d="M-18.3594 83.5618L22.4435 120.635C30.1547 127.642 42.5594 123.642 44.7259 113.451C45.7707 108.536 43.9994 103.448 40.1284 100.244L36.2956 97.0721C31.4385 93.0523 28.5681 87.1201 28.4304 80.8168L28.3961 79.2476C28.3063 75.1352 27.2091 71.1077 25.2008 67.5179L20.3265 58.8056C18.5317 55.5975 15.8686 52.9605 12.643 51.1973C7.10988 48.1728 3.37558 42.6649 2.61417 36.4052L1.17502 24.5737C1.07498 18.6494 -4.99442 14.7134 -10.4442 17.0385L-18.0464 20.2819C-21.6935 21.838 -24.503 24.877 -25.7683 28.635L-29.6425 40.1412C-34.8379 55.5711 -30.4094 72.6132 -18.3594 83.5618Z" fill="#185777" stroke="#407BFF"/>
  <defs>
    <filter id="filter0_f_701_828" x="-44.4031" y="0.0268555" width="106.809" height="137.794" filterUnits="userSpaceOnUse" color-interpolation-filters="sRGB">
      <feFlood flood-opacity="0" result="BackgroundImageFix"/>
      <feBlend mode="normal" in="SourceGraphic" in2="BackgroundImageFix" result="shape"/>
      <feGaussianBlur stdDeviation="7.5" result="effect1_foregroundBlur_701_828"/>
    </filter>
  </defs>
</svg>