<svg xmlns="http://www.w3.org/2000/svg" width="20" height="24" viewBox="0 0 20 24" fill="none">
  <path d="M10.0295 21.4696C7.37188 21.4696 4.71434 21.059 2.19367 20.238C1.23559 19.9162 0.505624 19.2615 0.186263 18.4071C-0.144503 17.5528 -0.0304458 16.6096 0.494218 15.7663L1.80588 13.647C2.07962 13.2032 2.33054 12.3155 2.33054 11.794V8.58735C2.33054 4.45969 5.78648 1.09766 10.0295 1.09766C14.2724 1.09766 17.7283 4.45969 17.7283 8.58735V11.794C17.7283 12.3044 17.9793 13.2032 18.253 13.6581L19.5532 15.7663C20.0437 16.5652 20.1349 17.5306 19.8042 18.4071C19.4734 19.2837 18.7548 19.9495 17.8538 20.238C15.3445 21.059 12.687 21.4696 10.0295 21.4696ZM10.0295 2.76203C6.73316 2.76203 4.0414 5.36955 4.0414 8.58735V11.794C4.0414 12.604 3.69923 13.8024 3.27722 14.5014L1.96556 16.6207C1.71463 17.0313 1.6462 17.464 1.79447 17.8302C1.93134 18.2074 2.27351 18.4959 2.74115 18.6512C7.50875 20.2047 12.5615 20.2047 17.3291 18.6512C17.7397 18.5181 18.0591 18.2185 18.2074 17.8191C18.3556 17.4196 18.3214 16.9869 18.0933 16.6207L16.7816 14.5014C16.3482 13.7802 16.0175 12.5929 16.0175 11.7829V8.58735C16.0175 5.36955 13.3371 2.76203 10.0295 2.76203Z" fill="#292D32" fill-opacity="0.58"/>
  <path d="M12.1504 3.06245C12.0705 3.06245 11.9907 3.05135 11.9108 3.02916C11.5801 2.9404 11.2607 2.87382 10.9528 2.82944C9.98326 2.70738 9.04799 2.77396 8.16975 3.02916C7.85039 3.12903 7.50825 3.02916 7.29154 2.79615C7.07483 2.56314 7.0064 2.23026 7.13186 1.93068C7.5995 0.765613 8.74004 0 10.0403 0C11.3405 0 12.4811 0.754517 12.9488 1.93068C13.0628 2.23026 13.0058 2.56314 12.7891 2.79615C12.618 2.97368 12.3785 3.06245 12.1504 3.06245Z" fill="#292D32" fill-opacity="0.58"/>
  <path d="M10.0291 23.9998C8.8999 23.9998 7.80495 23.556 7.00658 22.7793C6.20818 22.0026 5.75195 20.9374 5.75195 19.8389H7.46281C7.46281 20.4935 7.73652 21.1371 8.21556 21.6031C8.6946 22.0691 9.35613 22.3354 10.0291 22.3354C11.4434 22.3354 12.5954 21.2148 12.5954 19.8389H14.3062C14.3062 22.1357 12.3901 23.9998 10.0291 23.9998Z" fill="#292D32" fill-opacity="0.58"/>
</svg>