<svg xmlns="http://www.w3.org/2000/svg" width="247" height="196" viewBox="0 0 247 196" fill="none">
  <g clip-path="url(#clip0_961_2664)">
    <path d="M123.5 196C176.399 196 219.282 193.412 219.282 190.22C219.282 187.028 176.399 184.44 123.5 184.44C70.6012 184.44 27.7183 187.028 27.7183 190.22C27.7183 193.412 70.6012 196 123.5 196Z" fill="#F5F5F5"/>
    <path d="M117.77 144.398H22.3831C21.6354 144.397 20.9187 144.09 20.39 143.543C19.8613 142.997 19.5637 142.256 19.5624 141.483V2.89001C19.5702 2.12161 19.8706 1.38735 20.3987 0.846372C20.9267 0.305396 21.6397 0.00130116 22.3831 0H117.77C118.517 0.00135266 119.233 0.309123 119.761 0.855746C120.289 1.40237 120.585 2.14318 120.585 2.91554V141.483C120.585 142.255 120.289 142.996 119.761 143.543C119.233 144.089 118.517 144.397 117.77 144.398ZM22.3831 0.102121C21.6682 0.103471 20.9829 0.397627 20.4773 0.920166C19.9718 1.4427 19.6872 2.15103 19.6859 2.89001V141.483C19.6872 142.222 19.9718 142.93 20.4773 143.453C20.9829 143.975 21.6682 144.269 22.3831 144.271H117.77C118.484 144.269 119.169 143.975 119.674 143.452C120.178 142.93 120.462 142.221 120.462 141.483V2.89001C120.462 2.1515 120.178 1.44316 119.674 0.920479C119.169 0.397795 118.484 0.103474 117.77 0.102121H22.3831Z" fill="#E6E6E6"/>
    <path d="M224.622 144.398H129.23C128.483 144.397 127.767 144.089 127.239 143.543C126.711 142.996 126.415 142.255 126.415 141.483V2.89001C126.421 2.12208 126.721 1.38781 127.248 0.846693C127.775 0.305576 128.487 0.00131551 129.23 0H224.622C225.365 0.00131551 226.077 0.305576 226.605 0.846693C227.132 1.38781 227.431 2.12208 227.438 2.89001V141.483C227.438 142.255 227.141 142.996 226.613 143.543C226.085 144.089 225.369 144.397 224.622 144.398ZM129.23 0.102121C128.516 0.103474 127.831 0.397795 127.326 0.920479C126.822 1.44316 126.538 2.1515 126.538 2.89001V141.483C126.538 142.221 126.822 142.93 127.326 143.452C127.831 143.975 128.516 144.269 129.23 144.271H224.622C225.337 144.27 226.023 143.976 226.529 143.453C227.036 142.931 227.321 142.222 227.324 141.483V2.89001C227.321 2.15056 227.036 1.44225 226.529 0.919852C226.023 0.397458 225.337 0.103465 224.622 0.102121H129.23Z" fill="#E6E6E6"/>
    <path d="M42.4544 170.276H22.0966V170.404H42.4544V170.276Z" fill="#E0E0E0"/>
    <path d="M83.9503 169.255H63.5333V169.383H83.9503V169.255Z" fill="#E0E0E0"/>
    <path d="M110.518 169.255H105.578V169.383H110.518V169.255Z" fill="#E0E0E0"/>
    <path d="M61.1424 173.615H38.2949V173.743H61.1424V173.615Z" fill="#E0E0E0"/>
    <path d="M140.167 170.209H129.497V170.337H140.167V170.209Z" fill="#E0E0E0"/>
    <path d="M158.362 170.209H144.564V170.337H158.362V170.209Z" fill="#E0E0E0"/>
    <path d="M224.903 172.369H194.058V172.497H224.903V172.369Z" fill="#E0E0E0"/>
    <path d="M247 165.267H0V165.394H247V165.267Z" fill="#EBEBEB"/>
    <path opacity="0.8" d="M165.406 10.5952L164.176 28.0987C164.134 28.6918 163.891 29.2507 163.489 29.6765C163.26 29.9288 162.984 30.1304 162.678 30.2691C162.371 30.4078 162.041 30.4806 161.706 30.4832H148.126C147.829 30.4863 147.535 30.4255 147.263 30.3046C146.99 30.1837 146.745 30.0054 146.542 29.781C146.34 29.5566 146.185 29.2911 146.088 29.0014C145.991 28.7118 145.953 28.4043 145.977 28.0987L147.212 10.5952C147.262 9.9512 147.543 9.34979 148 8.90875C148.457 8.46771 149.057 8.21879 149.682 8.21072H163.262C163.559 8.20593 163.853 8.26569 164.127 8.38611C164.4 8.50653 164.645 8.68494 164.847 8.90976C165.05 9.13458 165.204 9.4008 165.3 9.69115C165.396 9.98151 165.432 10.2895 165.406 10.5952Z" fill="#E0E0E0"/>
    <path d="M159.419 19.2994C159.935 16.7545 158.735 14.3417 156.74 13.9102C154.746 13.4787 152.711 15.1919 152.195 17.7368C151.68 20.2817 152.88 22.6945 154.874 23.126C156.869 23.5575 158.904 21.8443 159.419 19.2994Z" fill="white"/>
    <path d="M161.232 29.2779H148.803C148.012 29.2779 147.469 28.8847 147.449 28.3384C147.419 27.5418 151.45 24.0953 155.274 24.3965H155.363C157.712 24.4825 159.965 25.3816 161.76 26.9495C163.608 28.4507 161.864 29.2779 161.232 29.2779Z" fill="white"/>
    <path d="M95.3421 29.8446C94.0432 29.8393 92.7927 29.3353 91.8332 28.4304C90.8738 27.5255 90.2739 26.2843 90.1502 24.9479C90.0926 24.3132 90.1634 23.6731 90.3581 23.0682C90.5528 22.4634 90.8671 21.907 91.2811 21.4344C91.695 20.9619 92.1996 20.5836 92.7626 20.3235C93.3257 20.0634 93.935 19.9272 94.5517 19.9236C95.8505 19.9289 97.1011 20.4329 98.0606 21.3378C99.02 22.2427 99.6199 23.4839 99.7436 24.8203C99.8012 25.4549 99.7304 26.0951 99.5357 26.6999C99.341 27.3048 99.0267 27.8612 98.6127 28.3337C98.1988 28.8063 97.6942 29.1846 97.1311 29.4447C96.5681 29.7048 95.9588 29.841 95.3421 29.8446ZM94.7641 22.5583C94.4746 22.5583 94.1882 22.6209 93.9235 22.7422C93.6588 22.8634 93.4215 23.0406 93.227 23.2623C93.0326 23.484 92.8851 23.7454 92.7942 24.0295C92.7033 24.3137 92.6709 24.6143 92.6992 24.9122C92.76 25.538 93.0422 26.1186 93.4916 26.5426C93.9411 26.9666 94.5261 27.2042 95.1346 27.2099C95.4237 27.2092 95.7095 27.146 95.9737 27.0245C96.2378 26.9029 96.4744 26.7256 96.6684 26.504C96.8624 26.2823 97.0094 26.0213 97.1 25.7375C97.1906 25.4537 97.2228 25.1534 97.1946 24.856C97.1341 24.2328 96.854 23.6543 96.4077 23.2307C95.9613 22.807 95.3799 22.5677 94.774 22.5583H94.7641Z" fill="#E0E0E0"/>
    <path d="M95.5891 22.1752L93.7712 22.2008L92.8029 10.0893L94.6258 10.0688L95.5891 22.1752Z" fill="#E0E0E0"/>
    <path d="M96.3497 10.6102L92.9312 10.6562L92.783 8.77203L96.2015 8.72607L96.3497 10.6102Z" fill="#E0E0E0"/>
    <path d="M96.5474 13.0306L93.3314 13.0715L93.1832 11.1873L96.3942 11.1465L96.5474 13.0306Z" fill="#E0E0E0"/>
    <path d="M96.8241 16.4418L94.0181 16.4775L93.865 14.5985L96.6709 14.5627L96.8241 16.4418Z" fill="#E0E0E0"/>
    <path d="M39.1791 132.777C39.1896 132.93 39.2077 133.081 39.2335 133.232C39.4037 134.211 39.8769 135.107 40.5821 135.785C41.383 136.57 42.4419 137.014 43.5461 137.025H85.2841C86.2732 137.042 87.2286 136.654 87.9427 135.947C88.6568 135.239 89.0719 134.269 89.0978 133.247C89.1089 132.641 89.0041 132.039 88.7894 131.476C88.5746 130.912 88.2542 130.398 87.8465 129.963C87.4388 129.528 86.9519 129.18 86.4138 128.94C85.8758 128.7 85.2971 128.573 84.7111 128.565H42.978C42.4534 128.558 41.9333 128.664 41.4509 128.878C40.9686 129.091 40.5346 129.406 40.1769 129.802C39.8192 130.199 39.5457 130.669 39.3739 131.181C39.202 131.693 39.1357 132.237 39.1791 132.777Z" fill="#F0F0F0"/>
    <path d="M89.1127 133.231C89.1096 133.368 89.0963 133.505 89.0732 133.64C88.9527 132.526 88.4423 131.495 87.6379 130.743C86.8336 129.991 85.7909 129.568 84.7062 129.555L40.3203 129.627C41.0374 128.916 41.9948 128.524 42.9879 128.534H84.726C85.3155 128.529 85.8998 128.648 86.4435 128.884C86.9872 129.119 87.479 129.467 87.8891 129.904C88.2992 130.342 88.6191 130.861 88.8294 131.431C89.0397 132 89.1361 132.607 89.1127 133.216V133.231Z" fill="#E0E0E0"/>
    <path d="M81.9694 130.587L82.1077 132.629L83.9799 131.909L84.4048 132.931L82.4979 133.605L83.8317 135.336L82.9919 135.989L81.6927 134.192L80.6553 135.989L79.7315 135.336L80.8134 133.605L78.8374 132.956L79.119 131.935L81.095 132.629L80.9567 130.587H81.9694Z" fill="white"/>
    <path d="M70.553 130.587L70.6963 132.629L72.5636 131.909L72.9884 132.93L71.0767 133.579L72.4154 135.31L71.5509 135.963L70.2517 134.166L69.2143 135.963L68.2905 135.31L69.3724 133.579L67.3964 132.93L67.6829 131.909L69.6589 132.603L69.5206 130.561L70.553 130.587Z" fill="white"/>
    <path d="M59.1418 130.587L59.2801 132.629L61.1523 131.909L61.5772 132.93L59.6654 133.579L60.9992 135.31L60.1347 135.963L58.8355 134.166L57.7981 135.963L56.8743 135.31L57.9562 133.579L55.9802 132.93L56.2667 131.909L58.2427 132.603L58.1044 130.561L59.1418 130.587Z" fill="white"/>
    <path d="M47.7254 130.587L47.8637 132.629L49.736 131.909L50.1608 132.931L48.249 133.579L49.5828 135.31L48.7233 135.964L47.424 134.192L46.3817 135.989L45.448 135.336L46.5348 133.605L44.5588 132.956L44.8454 131.935L46.8214 132.629L46.683 130.587H47.7254Z" fill="white"/>
    <path d="M75.4535 127.058H73.5071L73.5121 126.548H75.4584L75.4535 127.058Z" fill="#E0E0E0"/>
    <path d="M83.817 127.058H77.4691L77.479 126.548H83.8269L83.817 127.058Z" fill="#E0E0E0"/>
    <g opacity="0.8">
      <path d="M133.074 124.485L140.948 137.01L166.913 110.173C166.938 110.15 166.959 110.122 166.973 110.09C166.988 110.059 166.997 110.025 166.999 109.99C167.001 109.955 166.996 109.92 166.985 109.887C166.974 109.854 166.957 109.824 166.935 109.797C166.913 109.771 166.885 109.75 166.855 109.735C166.825 109.719 166.792 109.71 166.758 109.708C166.724 109.706 166.69 109.711 166.659 109.722C166.627 109.734 166.597 109.751 166.572 109.775L141.827 129.831L137.154 122.044L133.074 124.485Z" fill="#E0E0E0"/>
    </g>
    <path opacity="0.1" d="M128.371 35.3438L109.727 107.42H115.996L134.432 35.3438H128.371Z" fill="white"/>
    <path opacity="0.1" d="M138.048 35.3438L119.405 107.42H131.844L150.28 35.3438H138.048Z" fill="white"/>
    <path d="M205.163 100.375L209.115 42.5232C209.152 42.0787 209.098 41.6312 208.957 41.2097C208.815 40.7881 208.59 40.4019 208.295 40.076C208.001 39.7502 207.643 39.4919 207.245 39.318C206.848 39.1441 206.42 39.0584 205.988 39.0664L108.305 39.1532C107.396 39.1662 106.524 39.5276 105.859 40.1673C105.193 40.807 104.782 41.6793 104.703 42.6151L100.776 100.472C100.74 100.916 100.795 101.364 100.936 101.785C101.078 102.207 101.304 102.593 101.599 102.919C101.894 103.245 102.252 103.503 102.65 103.677C103.048 103.851 103.476 103.936 103.908 103.928L201.552 103.842C202.463 103.832 203.339 103.471 204.007 102.83C204.675 102.189 205.087 101.313 205.163 100.375Z" fill="#263238"/>
    <path d="M203.908 99.1129L207.86 41.2616C207.898 40.8169 207.844 40.3691 207.704 39.9472C207.563 39.5253 207.337 39.1387 207.042 38.8127C206.748 38.4866 206.39 38.2284 205.992 38.0548C205.594 37.8811 205.165 37.796 204.733 37.8048L107.05 37.8916C106.141 37.9036 105.27 38.2647 104.605 38.9047C103.94 39.5447 103.53 40.4177 103.454 41.3535L99.5015 99.2099C99.4648 99.6544 99.5188 100.102 99.66 100.523C99.8012 100.945 100.027 101.331 100.321 101.657C100.616 101.983 100.974 102.241 101.371 102.415C101.769 102.589 102.197 102.675 102.629 102.667L200.307 102.58C201.217 102.568 202.09 102.206 202.756 101.565C203.421 100.924 203.832 100.05 203.908 99.1129Z" fill="#407BFF"/>
    <path opacity="0.6" d="M201.32 99.971C201.119 100.162 200.856 100.267 200.584 100.267L102.9 100.354C102.743 100.352 102.589 100.318 102.445 100.252C102.302 100.187 102.173 100.092 102.065 99.9739C101.958 99.8555 101.876 99.716 101.822 99.5637C101.769 99.4114 101.745 99.2495 101.754 99.0877L105.706 41.2364C105.721 40.9555 105.842 40.6918 106.042 40.5011C106.241 40.3083 106.505 40.2022 106.778 40.205L204.462 40.1182C204.618 40.12 204.773 40.1546 204.917 40.2199C205.06 40.2853 205.189 40.3799 205.296 40.4983C205.403 40.6166 205.486 40.7561 205.54 40.9084C205.593 41.0607 205.616 41.2227 205.608 41.3845L201.656 99.2358C201.638 99.516 201.518 99.7788 201.32 99.971Z" fill="white"/>
    <path d="M168.829 68.1653H134.541C134.239 68.1705 133.949 68.2887 133.724 68.4981C133.5 68.7075 133.357 68.9937 133.321 69.304L132.792 74.4866C132.775 74.6306 132.788 74.7767 132.83 74.9151C132.872 75.0535 132.943 75.1811 133.036 75.2893C133.13 75.3975 133.244 75.4839 133.373 75.5427C133.501 75.6015 133.64 75.6314 133.78 75.6303H168.069C168.372 75.624 168.663 75.5049 168.888 75.2948C169.113 75.0847 169.257 74.7977 169.294 74.4866L169.817 69.304C169.834 69.1603 169.82 69.0148 169.778 68.877C169.735 68.7392 169.665 68.6123 169.572 68.5047C169.478 68.397 169.364 68.3111 169.236 68.2526C169.108 68.1941 168.969 68.1643 168.829 68.1653Z" fill="white"/>
    <path d="M138.621 89.3301H133.271C132.968 89.3364 132.677 89.4555 132.452 89.6656C132.227 89.8757 132.083 90.1627 132.046 90.4739L131.523 95.6565C131.507 95.8001 131.52 95.9456 131.563 96.0834C131.605 96.2212 131.675 96.3481 131.769 96.4558C131.862 96.5634 131.976 96.6493 132.104 96.7078C132.232 96.7663 132.371 96.7961 132.511 96.7951H137.861C138.163 96.789 138.453 96.6706 138.678 96.4615C138.903 96.2525 139.048 95.9667 139.086 95.6565L139.609 90.4739C139.626 90.3298 139.613 90.1837 139.571 90.0453C139.529 89.9069 139.459 89.7794 139.366 89.6711C139.272 89.5629 139.157 89.4765 139.029 89.4177C138.901 89.3589 138.762 89.3291 138.621 89.3301Z" fill="white"/>
    <path d="M147.859 89.3301H142.509C142.206 89.3364 141.915 89.4555 141.69 89.6656C141.465 89.8757 141.321 90.1627 141.284 90.4739L140.76 95.6565C140.744 95.8001 140.758 95.9456 140.8 96.0834C140.843 96.2212 140.913 96.3481 141.006 96.4558C141.1 96.5634 141.214 96.6493 141.342 96.7078C141.47 96.7663 141.609 96.7961 141.748 96.7951H147.098C147.401 96.789 147.691 96.6706 147.916 96.4615C148.141 96.2525 148.286 95.9667 148.324 95.6565L148.847 90.4739C148.864 90.3298 148.851 90.1837 148.809 90.0453C148.767 89.9069 148.697 89.7794 148.603 89.6711C148.51 89.5629 148.395 89.4765 148.267 89.4177C148.139 89.3589 148 89.3291 147.859 89.3301Z" fill="white"/>
    <path d="M157.092 89.3301H151.747C151.444 89.3364 151.153 89.4555 150.928 89.6656C150.703 89.8757 150.559 90.1627 150.522 90.4739L149.998 95.6565C149.982 95.8001 149.996 95.9456 150.038 96.0834C150.08 96.2212 150.151 96.3481 150.244 96.4558C150.338 96.5634 150.452 96.6493 150.58 96.7078C150.708 96.7663 150.846 96.7961 150.986 96.7951H156.336C156.639 96.789 156.929 96.6706 157.154 96.4615C157.379 96.2525 157.523 95.9667 157.561 95.6565L158.08 90.4739C158.097 90.3298 158.084 90.1837 158.042 90.0453C158 89.9069 157.93 89.7794 157.836 89.6711C157.743 89.5629 157.628 89.4765 157.5 89.4177C157.371 89.3589 157.232 89.3291 157.092 89.3301Z" fill="white"/>
    <path d="M166.335 89.3301H160.985C160.681 89.3364 160.391 89.4555 160.166 89.6656C159.941 89.8757 159.796 90.1627 159.76 90.4739L159.236 95.6565C159.22 95.8001 159.233 95.9456 159.276 96.0834C159.318 96.2212 159.388 96.3481 159.482 96.4558C159.575 96.5634 159.69 96.6493 159.818 96.7078C159.946 96.7663 160.084 96.7961 160.224 96.7951H165.574C165.876 96.789 166.167 96.6706 166.392 96.4615C166.617 96.2525 166.761 95.9667 166.799 95.6565L167.323 90.4739C167.34 90.3298 167.327 90.1837 167.284 90.0453C167.242 89.9069 167.172 89.7794 167.079 89.6711C166.985 89.5629 166.871 89.4765 166.742 89.4177C166.614 89.3589 166.475 89.3291 166.335 89.3301Z" fill="white"/>
    <path d="M160.288 86.0569H138.844C138.569 86.0637 138.296 86.009 138.044 85.8966C137.792 85.7843 137.566 85.6169 137.382 85.406C137.198 85.195 137.06 84.9455 136.978 84.6745C136.897 84.4035 136.872 84.1174 136.907 83.8358L137.164 81.2828C137.235 80.6917 137.51 80.147 137.938 79.7484C138.367 79.3498 138.92 79.1241 139.496 79.1127H160.94C161.215 79.1068 161.488 79.1622 161.74 79.2751C161.993 79.388 162.218 79.5559 162.402 79.7672C162.586 79.9785 162.723 80.2283 162.805 80.4995C162.887 80.7708 162.912 81.0571 162.877 81.339L162.62 83.892C162.548 84.4821 162.272 85.0257 161.844 85.4232C161.416 85.8208 160.864 86.0457 160.288 86.0569ZM139.496 79.6284C139.041 79.6393 138.605 79.8184 138.267 80.1332C137.929 80.4479 137.711 80.8776 137.653 81.3441L137.396 83.8971C137.369 84.1078 137.386 84.3221 137.447 84.5251C137.508 84.7282 137.611 84.9151 137.748 85.073C137.886 85.2309 138.055 85.3559 138.245 85.4394C138.434 85.5229 138.638 85.5629 138.844 85.5565H160.288C160.743 85.5469 161.179 85.3689 161.517 85.055C161.855 84.7411 162.073 84.312 162.131 83.846L162.388 81.293C162.415 81.0823 162.398 80.868 162.337 80.665C162.276 80.4619 162.173 80.275 162.035 80.1171C161.898 79.9592 161.728 79.8342 161.539 79.7507C161.35 79.6672 161.146 79.6272 160.94 79.6336L139.496 79.6284Z" fill="#407BFF"/>
    <path d="M170.064 57.3711H135.776C135.474 57.3786 135.184 57.4983 134.96 57.7083C134.736 57.9183 134.592 58.2046 134.556 58.5148L134.027 63.6975C134.011 63.8411 134.025 63.9866 134.067 64.1244C134.109 64.2622 134.18 64.3891 134.273 64.4968C134.367 64.6044 134.481 64.6903 134.609 64.7488C134.737 64.8073 134.875 64.8371 135.015 64.8361H169.299C169.601 64.83 169.891 64.7116 170.116 64.5025C170.341 64.2934 170.486 64.0077 170.524 63.6975L171.048 58.5148C171.064 58.3713 171.051 58.2256 171.01 58.0875C170.968 57.9495 170.898 57.8222 170.805 57.7141C170.712 57.6059 170.598 57.5194 170.471 57.4603C170.343 57.4012 170.204 57.3708 170.064 57.3711Z" fill="white"/>
    <path d="M138.71 71.8979C138.731 71.7379 138.718 71.575 138.672 71.4207C138.626 71.2663 138.548 71.1241 138.444 71.0037C138.34 70.8834 138.212 70.7878 138.068 70.7236C137.925 70.6594 137.77 70.628 137.614 70.6316C137.278 70.6398 136.957 70.7721 136.707 71.0045C136.458 71.2368 136.298 71.5538 136.255 71.8979C136.236 72.0579 136.25 72.2202 136.297 72.374C136.344 72.5277 136.423 72.6692 136.527 72.7888C136.632 72.9085 136.76 73.0034 136.903 73.0673C137.046 73.1312 137.201 73.1625 137.357 73.1591C137.691 73.152 138.012 73.0206 138.261 72.789C138.509 72.5574 138.669 72.2411 138.71 71.8979Z" fill="#263238"/>
    <path d="M142.484 71.8979C142.504 71.7376 142.491 71.5746 142.444 71.4203C142.398 71.2659 142.319 71.1238 142.215 71.0036C142.11 70.8834 141.982 70.7879 141.838 70.7237C141.695 70.6595 141.539 70.6281 141.383 70.6316C141.048 70.6389 140.726 70.771 140.477 71.0036C140.229 71.2363 140.07 71.5538 140.029 71.8979C140.009 72.0576 140.023 72.2199 140.069 72.3736C140.116 72.5273 140.193 72.6689 140.298 72.7886C140.402 72.9084 140.53 73.0035 140.673 73.0674C140.816 73.1314 140.97 73.1626 141.126 73.1591C141.461 73.1521 141.783 73.0209 142.032 72.7894C142.281 72.5579 142.442 72.2415 142.484 71.8979Z" fill="#263238"/>
    <path d="M146.254 71.8979C146.274 71.7376 146.26 71.5746 146.213 71.4203C146.167 71.2659 146.089 71.1238 145.984 71.0036C145.879 70.8834 145.751 70.7879 145.607 70.7237C145.464 70.6595 145.308 70.6281 145.152 70.6316C144.817 70.6389 144.495 70.771 144.247 71.0036C143.998 71.2363 143.839 71.5538 143.799 71.8979C143.779 72.0579 143.794 72.2202 143.841 72.3739C143.888 72.5277 143.966 72.6692 144.07 72.7888C144.175 72.9084 144.303 73.0034 144.446 73.0673C144.589 73.1312 144.744 73.1625 144.9 73.1591C145.235 73.152 145.556 73.0206 145.804 72.789C146.053 72.5574 146.212 72.2411 146.254 71.8979Z" fill="#263238"/>
    <path d="M150.023 71.8979C150.044 71.7379 150.031 71.575 149.985 71.4207C149.939 71.2663 149.861 71.1241 149.757 71.0037C149.653 70.8834 149.524 70.7878 149.381 70.7236C149.238 70.6594 149.083 70.628 148.926 70.6316C148.591 70.6389 148.27 70.771 148.021 71.0037C147.772 71.2363 147.613 71.5538 147.573 71.8979C147.552 72.0596 147.566 72.2239 147.614 72.3793C147.662 72.5347 147.742 72.6773 147.849 72.7971C147.956 72.917 148.087 73.011 148.233 73.0727C148.379 73.1344 148.537 73.1621 148.694 73.154C149.024 73.1411 149.338 73.0077 149.581 72.7777C149.825 72.5477 149.981 72.236 150.023 71.8979Z" fill="#263238"/>
    <path d="M153.871 71.8979C153.891 71.7376 153.877 71.5746 153.831 71.4203C153.784 71.2659 153.706 71.1238 153.601 71.0036C153.497 70.8834 153.368 70.7879 153.225 70.7237C153.081 70.6595 152.926 70.6281 152.77 70.6316C152.434 70.6389 152.113 70.771 151.864 71.0036C151.615 71.2363 151.456 71.5538 151.416 71.8979C151.396 72.0576 151.41 72.2199 151.456 72.3736C151.502 72.5273 151.58 72.6689 151.684 72.7886C151.788 72.9084 151.916 73.0035 152.059 73.0674C152.202 73.1314 152.357 73.1626 152.513 73.1591C152.848 73.1521 153.169 73.0209 153.419 72.7894C153.668 72.5579 153.829 72.2415 153.871 71.8979Z" fill="#263238"/>
    <path d="M139.945 61.1039C139.966 60.9441 139.953 60.7814 139.907 60.6273C139.861 60.4732 139.783 60.3313 139.679 60.2113C139.575 60.0914 139.446 59.9963 139.303 59.9326C139.16 59.869 139.005 59.8383 138.849 59.8427C138.514 59.8498 138.193 59.9812 137.945 60.2128C137.696 60.4444 137.537 60.7607 137.495 61.1039C137.474 61.2637 137.487 61.4263 137.533 61.5805C137.579 61.7346 137.657 61.8765 137.761 61.9965C137.866 62.1164 137.994 62.2115 138.137 62.2751C138.281 62.3388 138.436 62.3695 138.592 62.3651C138.927 62.359 139.248 62.228 139.497 61.9962C139.746 61.7644 139.905 61.4475 139.945 61.1039Z" fill="#263238"/>
    <path d="M143.719 61.1037C143.739 60.9438 143.724 60.7814 143.677 60.6277C143.63 60.474 143.552 60.3325 143.448 60.2128C143.343 60.0932 143.215 59.9982 143.072 59.9343C142.929 59.8704 142.774 59.8391 142.618 59.8425C142.287 59.8545 141.971 59.988 141.726 60.2192C141.482 60.4503 141.325 60.7639 141.284 61.1037C141.264 61.2634 141.278 61.4257 141.324 61.5794C141.37 61.7331 141.448 61.8747 141.552 61.9945C141.657 62.1142 141.784 62.2093 141.927 62.2732C142.07 62.3372 142.225 62.3684 142.381 62.3649C142.713 62.3542 143.03 62.2212 143.275 61.9899C143.521 61.7587 143.678 61.4444 143.719 61.1037Z" fill="#263238"/>
    <path d="M147.489 61.1037C147.509 60.9441 147.495 60.7818 147.449 60.6281C147.402 60.4743 147.325 60.3328 147.22 60.213C147.116 60.0933 146.988 59.9982 146.845 59.9342C146.702 59.8703 146.548 59.839 146.392 59.8426C146.057 59.8495 145.735 59.9807 145.486 60.2122C145.237 60.4437 145.076 60.7601 145.034 61.1037C145.013 61.2639 145.027 61.4266 145.074 61.5807C145.12 61.7348 145.199 61.8766 145.303 61.9965C145.408 62.1163 145.537 62.2113 145.68 62.2749C145.824 62.3385 145.979 62.3692 146.135 62.3649C146.47 62.3588 146.791 62.2278 147.04 61.9961C147.289 61.7643 147.448 61.4474 147.489 61.1037Z" fill="#263238"/>
    <path d="M151.258 61.1039C151.279 60.9441 151.266 60.7814 151.22 60.6273C151.174 60.4732 151.096 60.3313 150.992 60.2113C150.887 60.0914 150.759 59.9963 150.616 59.9326C150.472 59.869 150.317 59.8383 150.161 59.8427C149.827 59.8498 149.506 59.9812 149.257 60.2128C149.009 60.4444 148.849 60.7607 148.808 61.1039C148.787 61.2637 148.8 61.4263 148.846 61.5805C148.892 61.7346 148.97 61.8765 149.074 61.9965C149.178 62.1164 149.307 62.2115 149.45 62.2751C149.593 62.3388 149.748 62.3695 149.904 62.3651C150.239 62.359 150.561 62.228 150.809 61.9962C151.058 61.7644 151.217 61.4475 151.258 61.1039Z" fill="#263238"/>
    <path d="M155.032 61.1037C155.051 60.9438 155.037 60.7814 154.99 60.6277C154.943 60.474 154.865 60.3325 154.76 60.2128C154.656 60.0932 154.527 59.9982 154.384 59.9343C154.241 59.8704 154.086 59.8391 153.93 59.8425C153.596 59.8497 153.275 59.9811 153.026 60.2126C152.778 60.4442 152.618 60.7605 152.577 61.1037C152.557 61.2638 152.571 61.4266 152.617 61.5807C152.664 61.7348 152.742 61.8766 152.847 61.9964C152.951 62.1163 153.08 62.2113 153.224 62.2749C153.367 62.3385 153.522 62.3692 153.678 62.3649C154.013 62.3588 154.335 62.2278 154.584 61.996C154.832 61.7643 154.992 61.4474 155.032 61.1037Z" fill="#263238"/>
    <path d="M158.801 61.1037C158.821 60.9441 158.808 60.7818 158.761 60.6281C158.715 60.4743 158.637 60.3328 158.533 60.213C158.429 60.0933 158.301 59.9982 158.158 59.9342C158.015 59.8703 157.86 59.839 157.705 59.8426C157.369 59.8495 157.048 59.9807 156.799 60.2122C156.549 60.4437 156.389 60.7601 156.346 61.1037C156.326 61.2639 156.34 61.4266 156.386 61.5807C156.433 61.7348 156.511 61.8766 156.616 61.9965C156.721 62.1163 156.849 62.2113 156.993 62.2749C157.136 62.3385 157.292 62.3692 157.448 62.3649C157.783 62.3588 158.104 62.2278 158.353 61.9961C158.601 61.7643 158.761 61.4474 158.801 61.1037Z" fill="#263238"/>
    <path d="M155.61 45.9443L155.343 48.5637C155.324 48.6776 155.269 48.7816 155.185 48.8586C155.102 48.9356 154.995 48.981 154.884 48.9875C154.831 48.9895 154.779 48.9795 154.73 48.9584C154.682 48.9372 154.638 48.9053 154.603 48.8649C154.568 48.8245 154.541 48.7766 154.526 48.7245C154.51 48.6725 154.506 48.6176 154.513 48.5637L154.78 45.9443C154.803 45.7503 154.786 45.5534 154.73 45.367C154.673 45.1805 154.578 45.0088 154.452 44.8635C154.325 44.7182 154.17 44.6028 153.996 44.525C153.823 44.4471 153.635 44.4088 153.446 44.4125H152.532C152.126 44.4225 151.737 44.5824 151.435 44.8635C151.134 45.1445 150.939 45.5279 150.887 45.9443L150.655 48.3747H149.825L150.057 45.9443C150.136 45.2945 150.438 44.6957 150.909 44.2577C151.38 43.8197 151.988 43.5719 152.621 43.5598H153.53C153.825 43.5521 154.118 43.6105 154.389 43.7309C154.661 43.8514 154.903 44.031 155.101 44.2576C155.298 44.4841 155.446 44.7521 155.534 45.0433C155.622 45.3344 155.648 45.6418 155.61 45.9443Z" fill="#407BFF"/>
    <path d="M155.61 48.4663L155.091 53.5724C155.071 53.7309 154.997 53.8767 154.882 53.9835C154.767 54.0903 154.619 54.1509 154.464 54.1544H149.524C149.453 54.1552 149.382 54.14 149.317 54.11C149.253 54.08 149.195 54.0359 149.148 53.9806C149.101 53.9253 149.066 53.8602 149.046 53.7898C149.025 53.7193 149.02 53.6452 149.03 53.5724L149.549 48.4663C149.558 48.3614 149.592 48.2603 149.647 48.1716C149.702 48.0828 149.777 48.0088 149.865 47.9557C149.959 47.8986 150.067 47.8686 150.176 47.8689H155.116C155.217 47.8678 155.316 47.8961 155.403 47.9506C155.482 48.0065 155.544 48.085 155.581 48.1766C155.617 48.2681 155.628 48.3688 155.61 48.4663Z" fill="#407BFF"/>
    <path d="M182.222 37.7947C182.156 37.7947 182.094 37.7678 182.047 37.72C182.001 37.6721 181.975 37.6071 181.975 37.5394C181.975 37.4717 182.001 37.4068 182.047 37.3589C182.094 37.311 182.156 37.2841 182.222 37.2841L194.295 37.2126C194.361 37.2126 194.424 37.2395 194.47 37.2874C194.516 37.3353 194.542 37.4002 194.542 37.4679C194.542 37.5357 194.516 37.6006 194.47 37.6485C194.424 37.6963 194.361 37.7232 194.295 37.7232L182.227 37.7947H182.222Z" fill="#263238"/>
    <path d="M196.612 37.7079C196.547 37.7079 196.484 37.681 196.437 37.6331C196.391 37.5852 196.365 37.5203 196.365 37.4526C196.365 37.3849 196.391 37.3199 196.437 37.272C196.484 37.2242 196.547 37.1973 196.612 37.1973H200.88C200.946 37.1973 201.009 37.2242 201.055 37.272C201.101 37.3199 201.127 37.3849 201.127 37.4526C201.127 37.5203 201.101 37.5852 201.055 37.6331C201.009 37.681 200.946 37.7079 200.88 37.7079H196.612Z" fill="#263238"/>
    <g opacity="0.3">
      <path d="M116.139 40.1895H129.971L115.907 100.354H104.758C104.436 100.347 104.12 100.266 103.833 100.115C103.546 99.9643 103.296 99.7485 103.101 99.4838C102.906 99.2192 102.772 98.9124 102.708 98.5864C102.644 98.2605 102.653 97.9238 102.732 97.6016L116.139 40.1895Z" fill="white"/>
      <path d="M136.097 40.1895H141.961L127.911 100.354H122.048L136.097 40.1895Z" fill="white"/>
    </g>
    <path d="M42.8051 21.4094H45.6111C44.9537 21.3998 44.3017 21.5326 43.6971 21.7995C43.0925 22.0664 42.5488 22.4613 42.101 22.9588C41.6532 23.4563 41.3113 24.0453 41.0973 24.6878C40.8834 25.3303 40.8021 26.0121 40.8588 26.6891L46.8115 114.666C46.9243 116.09 47.5465 117.42 48.5566 118.397C49.5668 119.373 50.8924 119.925 52.2751 119.946H49.4742C48.0909 119.925 46.7647 119.373 45.7537 118.397C44.7428 117.421 44.1196 116.091 44.0056 114.666L38.038 26.6891C37.9812 26.0108 38.0629 25.3277 38.2777 24.6841C38.4926 24.0405 38.8358 23.4508 39.2852 22.953C39.7346 22.4553 40.2802 22.0607 40.8866 21.7948C41.4929 21.5289 42.1466 21.3976 42.8051 21.4094Z" fill="#407BFF"/>
    <path d="M42.8051 21.4097H45.611C44.9537 21.4 44.3016 21.5329 43.6971 21.7998C43.0925 22.0666 42.5487 22.4616 42.1009 22.9591C41.6531 23.4565 41.3112 24.0456 41.0973 24.6881C40.8833 25.3306 40.802 26.0123 40.8587 26.6893L46.8114 114.666C46.9243 116.091 47.5464 117.421 48.5566 118.397C49.5667 119.373 50.8924 119.925 52.2751 119.946H49.4741C46.6533 119.946 43.8079 117.582 43.6103 114.666L37.6576 26.6893C37.46 23.7738 39.9843 21.4097 42.8051 21.4097Z" fill="#263238"/>
    <path d="M50.3089 119.951H84.6419C85.3009 119.963 85.955 119.832 86.562 119.567C87.169 119.301 87.7151 118.907 88.1651 118.409C88.615 117.911 88.9587 117.321 89.1739 116.677C89.389 116.033 89.4708 115.35 89.4139 114.671L83.4414 26.689C83.3297 25.2627 82.7073 23.9307 81.696 22.9535C80.6847 21.9762 79.3572 21.4238 77.9729 21.4043H43.6448C42.987 21.3946 42.3345 21.5276 41.7296 21.7948C41.1246 22.0619 40.5806 22.4573 40.1328 22.9554C39.6849 23.4535 39.3431 24.0431 39.1294 24.6862C38.9158 25.3294 38.8351 26.0117 38.8925 26.689L44.8205 114.666C44.9337 116.095 45.5592 117.429 46.5744 118.407C47.5896 119.385 48.9214 119.935 50.3089 119.951Z" fill="#407BFF"/>
    <g opacity="0.6">
      <path d="M77.884 23.115C78.8458 23.1307 79.7676 23.5158 80.4698 24.1954C81.172 24.875 81.6044 25.8003 81.6828 26.7913L87.6355 114.768C87.676 115.217 87.6242 115.67 87.4836 116.097C87.343 116.524 87.1168 116.915 86.8197 117.245C86.5226 117.575 86.1614 117.837 85.7597 118.013C85.358 118.189 84.9249 118.275 84.4887 118.266H50.1607C49.1983 118.25 48.276 117.865 47.5729 117.186C46.8699 116.506 46.4365 115.581 46.3569 114.589L40.4289 26.6126C40.3887 26.1658 40.4398 25.7153 40.579 25.2902C40.7181 24.8652 40.9421 24.4751 41.2365 24.1453C41.5309 23.8155 41.8891 23.5534 42.2878 23.3759C42.6865 23.1984 43.1169 23.1095 43.551 23.115H77.884Z" fill="white"/>
    </g>
    <g opacity="0.3">
      <path d="M68.172 118.255H54.4931L65.7859 23.1148H76.8071C77.283 23.1129 77.7542 23.2127 78.1911 23.4077C78.628 23.6028 79.0213 23.8889 79.3462 24.2483L68.172 118.255Z" fill="white"/>
      <path d="M52.0379 118.256H48.9554L60.2482 23.105H63.3308L52.0379 118.256Z" fill="white"/>
    </g>
    <path d="M75.8389 64.9335H50.9709C50.9054 64.9335 50.8426 64.9066 50.7963 64.8587C50.75 64.8108 50.7239 64.7459 50.7239 64.6782C50.7239 64.6104 50.75 64.5455 50.7963 64.4976C50.8426 64.4498 50.9054 64.4229 50.9709 64.4229H75.8389C75.904 64.4242 75.9661 64.4515 76.0122 64.4991C76.0582 64.5467 76.0846 64.6109 76.0859 64.6782C76.0859 64.7459 76.0599 64.8108 76.0136 64.8587C75.9672 64.9066 75.9044 64.9335 75.8389 64.9335Z" fill="white"/>
    <path d="M73.6554 68.7377H54.177C54.1115 68.7377 54.0487 68.7108 54.0023 68.6629C53.956 68.615 53.93 68.5501 53.93 68.4824C53.93 68.4146 53.956 68.3497 54.0023 68.3018C54.0487 68.2539 54.1115 68.2271 54.177 68.2271H73.6554C73.7209 68.2271 73.7837 68.2539 73.8301 68.3018C73.8764 68.3497 73.9024 68.4146 73.9024 68.4824C73.9024 68.5501 73.8764 68.615 73.8301 68.6629C73.7837 68.7108 73.7209 68.7377 73.6554 68.7377Z" fill="white"/>
    <path d="M51.7119 47.1544L51.7465 48.1756H51.1093L51.0747 47.1544L49.9434 45.3213H50.6202L51.4007 46.5876L52.0923 45.3213H52.7197L51.7119 47.1544Z" fill="#407BFF"/>
    <path d="M52.7444 46.7358C52.736 46.5351 52.769 46.3348 52.8414 46.1483C52.9137 45.9619 53.0236 45.7934 53.1638 45.6543C53.3041 45.5152 53.4713 45.4085 53.6546 45.3414C53.8378 45.2744 54.0327 45.2484 54.2264 45.2652C54.4223 45.255 54.6181 45.285 54.8027 45.3535C54.9873 45.422 55.1569 45.5278 55.3016 45.6646C55.4463 45.8013 55.5634 45.9665 55.6459 46.1504C55.7285 46.3342 55.7749 46.5332 55.7825 46.7358C55.7916 46.9369 55.7591 47.1377 55.6871 47.3248C55.6151 47.5119 55.5053 47.681 55.365 47.8207C55.2247 47.9604 55.0571 48.0675 54.8736 48.1349C54.69 48.2023 54.4946 48.2284 54.3005 48.2114C54.1042 48.2217 53.9079 48.1915 53.723 48.1227C53.5382 48.0538 53.3684 47.9476 53.2236 47.8103C53.0788 47.673 52.9618 47.5073 52.8795 47.3228C52.7973 47.1383 52.7513 46.9388 52.7444 46.7358ZM55.1156 46.7358C55.1163 46.6149 55.0935 46.4952 55.0486 46.3836C55.0038 46.272 54.9377 46.1708 54.8543 46.0861C54.7709 46.0013 54.672 45.9347 54.5633 45.8902C54.4546 45.8457 54.3383 45.8242 54.2214 45.8269C54.1069 45.8219 53.9926 45.8424 53.8864 45.8871C53.7802 45.9317 53.6845 45.9994 53.6058 46.0856C53.5271 46.1718 53.4673 46.2744 53.4303 46.3866C53.3933 46.4988 53.3801 46.6179 53.3915 46.7358C53.3902 46.8571 53.4124 46.9774 53.457 47.0896C53.5016 47.2018 53.5676 47.3035 53.651 47.3888C53.7344 47.4741 53.8336 47.5412 53.9427 47.586C54.0517 47.6308 54.1684 47.6525 54.2857 47.6498C54.4002 47.6532 54.5142 47.6314 54.62 47.5859C54.7259 47.5404 54.8211 47.4722 54.8996 47.3858C54.978 47.2994 55.0378 47.1968 55.0751 47.0847C55.1123 46.9727 55.1261 46.8538 55.1156 46.7358Z" fill="#407BFF"/>
    <path d="M56.2221 46.9092L56.1727 45.311H56.81L56.8594 46.8837C56.8594 47.4249 57.1163 47.6496 57.5016 47.6496C57.8869 47.6496 58.1043 47.4249 58.0894 46.8837L58.0351 45.311H58.6625L58.7168 46.9092C58.7428 47.081 58.7302 47.2567 58.68 47.4226C58.6297 47.5885 58.5433 47.7403 58.4272 47.8662C58.3112 47.992 58.1687 48.0886 58.0107 48.1485C57.8528 48.2083 57.6837 48.2298 57.5164 48.2113C57.3456 48.227 57.1735 48.2045 57.0118 48.1452C56.8502 48.0858 56.7029 47.9911 56.58 47.8674C56.4571 47.7438 56.3615 47.5941 56.2997 47.4288C56.238 47.2634 56.2115 47.0862 56.2221 46.9092Z" fill="#407BFF"/>
    <path d="M61.1472 48.1653L60.589 47.3688H60.0012L60.0308 48.1653H59.3935L59.2947 45.311H60.4902C61.2263 45.311 61.7005 45.7093 61.7203 46.3322C61.7363 46.522 61.6925 46.7121 61.5955 46.874C61.4984 47.036 61.3533 47.1611 61.1818 47.2309L61.8339 48.15L61.1472 48.1653ZM60.4705 45.8523H59.9765L60.011 46.8428H60.505C60.8953 46.8428 61.083 46.659 61.0731 46.3322C61.0633 46.0055 60.8607 45.8523 60.4705 45.8523Z" fill="#407BFF"/>
    <path d="M63.1825 46.7354C63.1723 46.5378 63.2028 46.3401 63.2719 46.1556C63.3411 45.971 63.4473 45.8037 63.5837 45.6647C63.72 45.5257 63.8833 45.4182 64.0628 45.3493C64.2423 45.2804 64.434 45.2516 64.625 45.2649C64.8413 45.258 65.0564 45.3001 65.2553 45.3883C65.4541 45.4765 65.6319 45.6087 65.776 45.7755L65.3808 46.1635C65.2934 46.0586 65.185 45.9745 65.063 45.9172C64.941 45.8599 64.8084 45.8307 64.6744 45.8316C64.5587 45.8253 64.443 45.8448 64.3351 45.8887C64.2273 45.9325 64.1298 45.9998 64.0492 46.086C63.9687 46.1721 63.907 46.2751 63.8682 46.3881C63.8295 46.501 63.8147 46.6212 63.8247 46.7405C63.824 46.8634 63.8473 46.9851 63.8934 47.0984C63.9394 47.2116 64.0072 47.3141 64.0926 47.3995C64.178 47.4849 64.2793 47.5516 64.3903 47.5954C64.5014 47.6392 64.6199 47.6593 64.7386 47.6545C64.8698 47.6573 64.9998 47.6282 65.1182 47.5697C65.2366 47.5112 65.3401 47.4248 65.4203 47.3175L65.8402 47.7056C65.7059 47.8751 65.5348 48.0097 65.3409 48.0983C65.147 48.187 64.9356 48.2274 64.7238 48.2162C64.5284 48.2244 64.3333 48.1925 64.1498 48.1223C63.9663 48.0522 63.7981 47.9453 63.6548 47.8076C63.5115 47.6699 63.396 47.5043 63.315 47.3203C63.2339 47.1363 63.1889 46.9375 63.1825 46.7354Z" fill="#407BFF"/>
    <path d="M66.0083 46.7353C66.0002 46.5369 66.0327 46.339 66.1036 46.1544C66.1744 45.9698 66.2821 45.8028 66.4196 45.664C66.557 45.5253 66.7212 45.4181 66.9014 45.3493C67.0817 45.2805 67.2739 45.2517 67.4656 45.2648C67.6615 45.2545 67.8573 45.2845 68.0419 45.353C68.2265 45.4216 68.3961 45.5273 68.5408 45.6641C68.6855 45.8009 68.8026 45.966 68.8851 46.1499C68.9677 46.3338 69.0141 46.5328 69.0217 46.7353C69.0304 46.9341 68.9985 47.1326 68.928 47.3178C68.8574 47.503 68.7499 47.6707 68.6123 47.81C68.4748 47.9493 68.3103 48.057 68.1298 48.1261C67.9492 48.1952 67.7565 48.2241 67.5644 48.211C67.3681 48.2212 67.1718 48.1911 66.9869 48.1222C66.8021 48.0534 66.6323 47.9472 66.4875 47.8099C66.3427 47.6725 66.2257 47.5068 66.1434 47.3223C66.0612 47.1379 66.0152 46.9383 66.0083 46.7353ZM68.3745 46.7353C68.3759 46.6147 68.3537 46.4951 68.3094 46.3835C68.2651 46.2719 68.1995 46.1707 68.1165 46.0859C68.0335 46.0011 67.9349 45.9344 67.8264 45.8898C67.718 45.8453 67.602 45.8237 67.4853 45.8264C67.3708 45.8215 67.2565 45.842 67.1503 45.8866C67.0441 45.9313 66.9484 45.999 66.8697 46.0851C66.791 46.1713 66.7312 46.274 66.6942 46.3862C66.6572 46.4983 66.644 46.6174 66.6554 46.7353C66.6534 46.8564 66.675 46.9766 66.7191 47.0887C66.7631 47.2009 66.8286 47.3027 66.9117 47.3881C66.9947 47.4735 67.0936 47.5406 67.2024 47.5855C67.3111 47.6304 67.4275 47.6521 67.5446 47.6493C67.6594 47.6535 67.7738 47.6323 67.88 47.5871C67.9862 47.5419 68.0818 47.4737 68.1604 47.3871C68.239 47.3005 68.2988 47.1976 68.3357 47.0852C68.3727 46.9728 68.3859 46.8535 68.3745 46.7353Z" fill="#407BFF"/>
    <path d="M69.4564 45.3107H70.7062C70.9009 45.291 71.0974 45.3129 71.2836 45.375C71.4698 45.4371 71.6416 45.5381 71.7884 45.6716C71.9353 45.8052 72.054 45.9686 72.1372 46.1515C72.2204 46.3345 72.2664 46.5332 72.2722 46.7353C72.2832 46.9349 72.2515 47.1346 72.1794 47.3202C72.1074 47.5057 71.9967 47.6726 71.8553 47.8091C71.7139 47.9455 71.5452 48.0481 71.3611 48.1096C71.177 48.1711 70.9821 48.19 70.7902 48.165H69.5355L69.4564 45.3107ZM70.7556 47.6237C70.8722 47.6362 70.9899 47.622 71.1005 47.5819C71.211 47.5419 71.3117 47.4772 71.3952 47.3923C71.4787 47.3074 71.5431 47.2045 71.5837 47.0909C71.6243 46.9774 71.6401 46.8559 71.63 46.7353C71.6298 46.6123 71.6048 46.4907 71.5568 46.3782C71.5087 46.2657 71.4386 46.1648 71.3508 46.0817C71.2631 45.9987 71.1596 45.9354 71.0469 45.8959C70.9343 45.8563 70.8149 45.8414 70.6964 45.852H70.1134L70.1727 47.6237H70.7556Z" fill="#407BFF"/>
    <path d="M74.92 47.6239V48.1345H72.7859L72.6871 45.2803H74.7718V45.7909H73.359V46.4087H74.6384V46.9193H73.359V47.578L74.92 47.6239Z" fill="#407BFF"/>
    <path d="M56.5037 58.7603V59.904H51.3217V59.0002L54.0782 56.2481C54.75 55.569 54.8637 55.1452 54.8587 54.7163C54.8587 54.0525 54.3944 53.6644 53.5299 53.6644C53.2178 53.6482 52.9064 53.7086 52.6213 53.8409C52.3362 53.9732 52.0855 54.1734 51.8898 54.4252L50.9611 53.6951C51.2804 53.2914 51.6877 52.9717 52.1497 52.7622C52.6117 52.5528 53.1152 52.4595 53.6188 52.49C55.1502 52.49 56.153 53.2917 56.1728 54.5835C56.1728 55.2882 56.0048 55.9366 55.0464 56.8863L53.1939 58.7398L56.5037 58.7603Z" fill="#263238"/>
    <path d="M62.2439 57.7186C62.2439 58.944 61.3844 60.0061 59.4924 60.0061C58.5394 60.0237 57.6055 59.7287 56.8248 59.1636L57.3731 58.1118C57.9683 58.5866 58.701 58.8402 59.4528 58.8317C60.3865 58.8317 60.9348 58.4028 60.9348 57.7288C60.9348 57.0548 60.4408 56.6412 59.3837 56.6412H58.7415V55.717L60.2679 53.7512H57.0619V52.6177H61.8734V53.5265L60.1938 55.6302C61.5425 55.7936 62.2439 56.6208 62.2439 57.7186Z" fill="#263238"/>
    <path d="M68.834 57.8359C68.834 59.189 67.7323 60.0315 65.9786 60.0315C64.2249 60.0315 63.0887 59.189 63.069 57.8359C63.0541 57.4639 63.1518 57.0963 63.3483 56.7843C63.5449 56.4723 63.8305 56.2313 64.1657 56.0947C63.8921 55.9514 63.6627 55.7322 63.503 55.4616C63.3433 55.1911 63.2597 54.8799 63.2616 54.5629C63.2616 53.3119 64.2892 52.5205 65.8502 52.5205C67.4112 52.5205 68.503 53.3017 68.5227 54.5629C68.538 54.878 68.4639 55.1909 68.3094 55.4631C68.1549 55.7352 67.9269 55.9548 67.6533 56.0947C67.9968 56.2284 68.2933 56.4661 68.5039 56.7767C68.7146 57.0874 68.8296 57.4565 68.834 57.8359ZM67.51 57.795C67.51 57.0751 66.8876 56.6258 65.9194 56.6258C64.9511 56.6258 64.3731 57.0751 64.388 57.795C64.4028 58.515 64.9906 58.9694 65.9589 58.9694C66.9271 58.9694 67.5249 58.5099 67.51 57.7695V57.795ZM64.546 54.6293C64.546 55.2522 65.04 55.6505 65.8947 55.6505C66.7493 55.6505 67.2383 55.2522 67.2235 54.6293C67.2087 54.0064 66.6653 53.6081 65.8551 53.6081C65.045 53.6081 64.546 53.9451 64.5559 54.6038L64.546 54.6293Z" fill="#263238"/>
    <path d="M75.4041 57.8359C75.4041 59.189 74.3025 60.0315 72.5488 60.0315C70.7951 60.0315 69.654 59.1635 69.654 57.8359C69.6399 57.464 69.7378 57.0968 69.9343 56.7849C70.1307 56.473 70.416 56.2319 70.7507 56.0947C70.477 55.9522 70.2476 55.7329 70.0886 55.4621C69.9296 55.1913 69.8475 54.8797 69.8516 54.5629C69.8269 53.3119 70.8742 52.5205 72.4352 52.5205C73.9962 52.5205 75.088 53.3017 75.1077 54.5629C75.123 54.878 75.0489 55.1909 74.8944 55.4631C74.74 55.7352 74.5119 55.9548 74.2383 56.0947C74.579 56.2308 74.8724 56.4696 75.0802 56.78C75.2881 57.0905 75.401 57.4583 75.4041 57.8359ZM74.0802 57.795C74.0802 57.0751 73.4578 56.6258 72.4895 56.6258C71.5213 56.6258 70.9433 57.0751 70.9581 57.795C70.973 58.515 71.5608 58.9694 72.5291 58.9694C73.4973 58.9694 74.1 58.5099 74.1 57.7695L74.0802 57.795ZM71.1162 54.6293C71.1162 55.2522 71.6349 55.6505 72.4648 55.6505C73.2948 55.6505 73.8085 55.2522 73.7986 54.6293C73.7888 54.0064 73.2355 53.6081 72.4303 53.6081C71.625 53.6081 71.136 53.9451 71.136 54.6038L71.1162 54.6293Z" fill="#263238"/>
    <path d="M38.774 46.7611C38.711 46.7612 38.6503 46.7364 38.6044 46.6918C38.5585 46.6472 38.5308 46.5861 38.527 46.5211L37.6527 34.1798C37.6486 34.1129 37.6701 34.047 37.7126 33.9964C37.7551 33.9458 37.8152 33.9144 37.8799 33.9092C37.9452 33.9049 38.0095 33.927 38.0593 33.9709C38.109 34.0147 38.1404 34.0768 38.1467 34.1441L39.026 46.4854C39.0287 46.5189 39.0249 46.5527 39.015 46.5847C39.005 46.6168 38.989 46.6465 38.9679 46.6721C38.9467 46.6977 38.9209 46.7188 38.8919 46.734C38.8629 46.7493 38.8312 46.7585 38.7987 46.7611H38.774Z" fill="#407BFF"/>
    <path d="M37.7317 32.0505C37.6694 32.0507 37.6094 32.0266 37.5637 31.9831C37.5179 31.9395 37.4897 31.8797 37.4847 31.8156L37.2525 28.558C37.2502 28.5245 37.2544 28.4908 37.2647 28.4589C37.275 28.427 37.2913 28.3976 37.3126 28.3722C37.3557 28.321 37.4167 28.2895 37.4822 28.2848C37.5477 28.2801 37.6124 28.3024 37.6619 28.3469C37.7115 28.3915 37.7419 28.4545 37.7465 28.5222L37.9787 31.7799C37.9828 31.8468 37.9612 31.9127 37.9187 31.9633C37.8762 32.014 37.8161 32.0453 37.7514 32.0505H37.7317Z" fill="#407BFF"/>
    <path d="M60.9448 16.523C60.8793 16.523 60.8165 16.4961 60.7702 16.4483C60.7238 16.4004 60.6978 16.3354 60.6978 16.2677V8.75677C60.6978 8.68906 60.7238 8.62412 60.7702 8.57624C60.8165 8.52836 60.8793 8.50146 60.9448 8.50146C61.0103 8.50146 61.0731 8.52836 61.1195 8.57624C61.1658 8.62412 61.1918 8.68906 61.1918 8.75677V16.2677C61.1918 16.3354 61.1658 16.4004 61.1195 16.4483C61.0731 16.4961 61.0103 16.523 60.9448 16.523Z" fill="#407BFF"/>
    <path d="M55.1896 18.1162C55.1465 18.1159 55.1042 18.104 55.067 18.0816C55.0297 18.0592 54.9988 18.0271 54.9772 17.9885L51.3414 11.4834C51.3086 11.4245 51.2998 11.3546 51.317 11.289C51.3341 11.2234 51.3758 11.1675 51.4328 11.1337C51.4898 11.0998 51.5574 11.0908 51.6209 11.1085C51.6843 11.1262 51.7384 11.1692 51.7712 11.2281L55.4021 17.7332C55.4188 17.7619 55.4297 17.7938 55.4343 17.827C55.4389 17.8601 55.437 17.8939 55.4287 17.9263C55.4204 17.9586 55.4059 17.989 55.386 18.0155C55.3662 18.0419 55.3414 18.064 55.3131 18.0804C55.2753 18.1024 55.233 18.1146 55.1896 18.1162Z" fill="#407BFF"/>
    <path d="M66.69 18.1162C66.647 18.1164 66.6047 18.1059 66.5665 18.0855C66.5101 18.0505 66.4692 17.994 66.4526 17.9281C66.4359 17.8623 66.4449 17.7923 66.4776 17.7332L70.1085 11.2281C70.1412 11.1692 70.1953 11.1262 70.2587 11.1085C70.3222 11.0908 70.3899 11.0998 70.4469 11.1337C70.5038 11.1675 70.5455 11.2234 70.5626 11.289C70.5798 11.3546 70.571 11.4245 70.5382 11.4834L66.9123 18.0089C66.8875 18.0453 66.8539 18.0743 66.8149 18.0931C66.7759 18.1119 66.7329 18.1199 66.69 18.1162Z" fill="#407BFF"/>
    <path d="M151.821 181.335C151.303 170.649 152.315 159.941 154.824 149.561L155.318 149.683C152.822 160.016 151.813 170.673 152.325 181.31L151.821 181.335Z" fill="#407BFF"/>
    <path d="M152.755 149.183C152.755 150.133 153.604 153.508 154.528 153.482C155.452 153.457 156.119 150.051 156.094 149.096C156.089 148.869 156.04 148.646 155.951 148.439C155.862 148.232 155.734 148.045 155.575 147.888C155.416 147.732 155.229 147.61 155.025 147.528C154.82 147.447 154.602 147.408 154.382 147.414C154.163 147.419 153.947 147.47 153.747 147.562C153.546 147.654 153.365 147.786 153.214 147.95C153.063 148.114 152.945 148.308 152.866 148.519C152.787 148.731 152.749 148.956 152.755 149.183Z" fill="#407BFF"/>
    <path d="M156.346 159.9C156.346 158.946 155.496 155.576 154.578 155.596C153.659 155.616 152.987 159.027 153.007 159.982C153.012 160.209 153.06 160.432 153.149 160.639C153.238 160.847 153.365 161.034 153.524 161.191C153.682 161.347 153.869 161.47 154.074 161.551C154.278 161.633 154.497 161.672 154.716 161.667C154.935 161.662 155.151 161.612 155.352 161.52C155.552 161.428 155.734 161.297 155.885 161.133C156.036 160.969 156.155 160.775 156.234 160.564C156.313 160.353 156.351 160.127 156.346 159.9Z" fill="#407BFF"/>
    <path d="M149.366 156.383C150.29 156.383 153.55 155.504 153.525 154.549C153.501 153.595 150.211 152.905 149.287 152.931C149.068 152.936 148.851 152.986 148.651 153.078C148.45 153.17 148.269 153.301 148.118 153.465C147.966 153.629 147.848 153.823 147.769 154.034C147.69 154.245 147.651 154.471 147.657 154.698C147.662 154.924 147.71 155.148 147.799 155.355C147.888 155.562 148.015 155.749 148.174 155.906C148.332 156.062 148.519 156.185 148.724 156.267C148.928 156.349 149.147 156.388 149.366 156.383Z" fill="#407BFF"/>
    <path d="M159.735 152.686C158.816 152.686 155.551 153.564 155.575 154.514C155.6 155.463 158.895 156.158 159.819 156.137C160.038 156.132 160.254 156.081 160.455 155.989C160.655 155.897 160.836 155.765 160.987 155.601C161.138 155.437 161.257 155.243 161.335 155.032C161.414 154.82 161.452 154.595 161.447 154.368C161.441 154.141 161.392 153.918 161.303 153.711C161.214 153.504 161.087 153.317 160.928 153.16C160.769 153.004 160.582 152.882 160.377 152.8C160.172 152.719 159.954 152.68 159.735 152.686Z" fill="#407BFF"/>
    <path d="M149.613 152.063C150.285 152.722 153.175 154.504 153.812 153.809C154.449 153.115 152.587 150.235 151.92 149.566C151.599 149.25 151.171 149.078 150.728 149.089C150.285 149.099 149.864 149.291 149.559 149.622C149.253 149.953 149.086 150.396 149.097 150.854C149.107 151.312 149.293 151.747 149.613 152.063Z" fill="#407BFF"/>
    <path d="M159.488 157.015C158.821 156.357 155.931 154.58 155.294 155.269C154.657 155.958 156.514 158.843 157.181 159.517C157.34 159.674 157.527 159.796 157.732 159.878C157.937 159.96 158.155 159.999 158.375 159.994C158.594 159.988 158.81 159.938 159.011 159.846C159.212 159.755 159.393 159.623 159.545 159.458C159.696 159.294 159.815 159.101 159.894 158.889C159.973 158.677 160.011 158.452 160.006 158.225C160.001 157.998 159.952 157.774 159.863 157.567C159.774 157.359 159.647 157.172 159.488 157.015Z" fill="#407BFF"/>
    <path d="M152.152 159.645C152.789 158.951 154.508 155.964 153.842 155.305C153.175 154.646 150.384 156.571 149.731 157.261C149.426 157.593 149.26 158.036 149.27 158.495C149.281 158.953 149.467 159.388 149.788 159.704C150.109 160.02 150.539 160.192 150.982 160.181C151.425 160.17 151.846 159.977 152.152 159.645Z" fill="#407BFF"/>
    <path d="M156.949 149.438C156.311 150.128 154.587 153.115 155.259 153.773C155.931 154.432 158.717 152.512 159.364 151.823C159.516 151.659 159.635 151.466 159.714 151.254C159.793 151.043 159.831 150.817 159.826 150.591C159.821 150.364 159.773 150.141 159.684 149.933C159.596 149.726 159.469 149.539 159.31 149.382C159.151 149.226 158.965 149.103 158.76 149.021C158.556 148.939 158.337 148.9 158.118 148.905C157.899 148.91 157.683 148.96 157.482 149.051C157.281 149.143 157.1 149.274 156.949 149.438Z" fill="#407BFF"/>
    <path d="M152.572 154.59C152.582 154.994 152.707 155.385 152.932 155.715C153.157 156.045 153.472 156.299 153.836 156.444C154.2 156.589 154.598 156.62 154.979 156.531C155.36 156.443 155.708 156.24 155.977 155.948C156.247 155.656 156.426 155.288 156.494 154.89C156.561 154.492 156.513 154.083 156.355 153.714C156.197 153.345 155.937 153.032 155.608 152.815C155.278 152.598 154.894 152.488 154.503 152.497C154.243 152.503 153.987 152.561 153.749 152.67C153.511 152.778 153.297 152.934 153.117 153.129C152.938 153.323 152.797 153.553 152.704 153.803C152.61 154.054 152.565 154.321 152.572 154.59Z" fill="white"/>
    <path d="M152.29 169.786C152.29 169.786 152.631 164.573 155.403 163.751C158.174 162.929 159.187 161.805 159.187 161.805C159.187 161.805 158.905 169.888 152.29 169.786Z" fill="#407BFF"/>
    <path opacity="0.5" d="M152.29 169.786C152.29 169.786 152.631 164.573 155.403 163.751C158.174 162.929 159.187 161.805 159.187 161.805C159.187 161.805 158.905 169.888 152.29 169.786Z" fill="white"/>
    <path d="M151.925 173.779C151.925 173.779 151.584 168.565 148.813 167.738C146.041 166.911 145.029 165.798 145.029 165.798C145.029 165.798 145.31 173.881 151.925 173.779Z" fill="#407BFF"/>
    <path opacity="0.5" d="M151.925 173.779C151.925 173.779 151.584 168.565 148.813 167.738C146.041 166.911 145.029 165.798 145.029 165.798C145.029 165.798 145.31 173.881 151.925 173.779Z" fill="white"/>
    <path d="M162.378 184.639C162.378 188.724 157.69 192.002 151.91 192.002C146.13 192.002 141.442 188.709 141.442 184.639C141.442 182.597 142.642 180.718 144.584 179.385C145.807 178.56 147.167 177.975 148.595 177.659H155.225C156.69 177.985 158.082 178.593 159.33 179.451C161.217 180.784 162.378 182.612 162.378 184.639Z" fill="#407BFF"/>
    <path opacity="0.8" d="M155.225 177.659C156.69 177.985 158.082 178.593 159.33 179.451C161.217 180.784 162.378 182.612 162.378 184.639C162.378 188.724 157.69 192.002 151.91 192.002C146.13 192.002 141.442 188.709 141.442 184.639C141.442 182.597 142.642 180.718 144.584 179.385C145.807 178.56 147.167 177.975 148.595 177.659H155.225Z" fill="white"/>
    <path d="M152.187 178.323H151.693V181.963H152.187V178.323Z" fill="#407BFF"/>
    <path d="M159.789 177.547L159.236 179.334L159.226 179.354H144.589L144.559 179.257L144.031 177.547H159.789Z" fill="#407BFF"/>
    <path d="M161.143 186.12C160.094 187.622 158.716 188.847 157.122 189.694C154.607 191.073 144.031 191.425 142.82 185.226C142.82 185.14 142.776 185.053 142.761 184.966C142.708 184.582 142.74 184.191 142.856 183.822C142.971 183.453 143.166 183.116 143.426 182.836C143.686 182.557 144.004 182.342 144.356 182.208C144.708 182.075 145.085 182.026 145.458 182.066C146.461 182.135 147.468 182.077 148.457 181.892C152.254 181.298 156.129 181.511 159.844 182.52C160.196 182.617 160.52 182.799 160.79 183.052C161.059 183.304 161.267 183.62 161.394 183.973C161.521 184.325 161.565 184.704 161.521 185.078C161.477 185.451 161.348 185.809 161.143 186.12Z" fill="#263238"/>
    <path d="M85.2198 184.057C85.3123 184.02 85.3942 183.959 85.4581 183.881C85.5219 183.802 85.5657 183.708 85.5854 183.608C85.6043 183.547 85.6069 183.482 85.593 183.42C85.579 183.358 85.5491 183.301 85.5064 183.256C85.126 182.847 83.5798 183.138 83.4069 183.174C83.3868 183.176 83.3677 183.184 83.3526 183.198C83.3375 183.212 83.3271 183.23 83.3229 183.25C83.319 183.27 83.3206 183.291 83.3276 183.31C83.3346 183.329 83.3467 183.346 83.3624 183.358C83.6707 183.59 84.0019 183.789 84.3504 183.95C84.6191 184.09 84.9268 184.128 85.2198 184.057ZM85.3582 183.399C85.3764 183.42 85.3887 183.446 85.3939 183.473C85.3992 183.501 85.397 183.53 85.3878 183.557C85.3764 183.624 85.3487 183.687 85.3072 183.739C85.2657 183.792 85.2118 183.833 85.1507 183.858C84.8691 183.965 84.3306 183.766 83.6687 183.347C84.3109 183.235 85.1556 183.179 85.3582 183.399Z" fill="#407BFF"/>
    <path d="M83.4365 183.378C83.9305 183.317 84.9976 182.74 85.0914 182.239C85.1078 182.158 85.0961 182.073 85.0582 181.999C85.0203 181.925 84.9587 181.868 84.884 181.836C84.8144 181.796 84.7373 181.772 84.658 181.766C84.5787 181.76 84.4991 181.772 84.4245 181.8C83.8317 182.01 83.3476 183.184 83.3279 183.235C83.3208 183.251 83.3171 183.268 83.3171 183.286C83.3171 183.304 83.3208 183.321 83.3279 183.337C83.3394 183.353 83.3547 183.365 83.3723 183.373L83.4365 183.378ZM84.7802 182.02C84.8988 182.086 84.9037 182.152 84.8938 182.198C84.8346 182.505 84.1084 182.98 83.5996 183.128C83.7823 182.745 84.138 182.107 84.4937 181.994C84.5728 181.961 84.6616 181.961 84.7407 181.994L84.7802 182.02Z" fill="#407BFF"/>
    <path d="M78.7485 181.32L82.7697 183L86.282 173.396L82.2559 171.716L78.7485 181.32Z" fill="#FFB573"/>
    <path d="M83.2785 182.658L78.7633 180.774C78.6864 180.739 78.5999 180.734 78.5199 180.761C78.4399 180.787 78.3719 180.843 78.3286 180.917L76.3526 184.338C76.3059 184.426 76.2779 184.523 76.2705 184.623C76.2631 184.723 76.2765 184.824 76.3097 184.918C76.3429 185.012 76.3952 185.098 76.4631 185.17C76.531 185.241 76.6129 185.297 76.7033 185.334C78.294 185.967 79.0893 186.186 81.0752 187.019C82.3003 187.529 84.0392 188.402 85.7188 189.112C87.3984 189.822 88.1888 188.157 87.5417 187.708C84.6715 185.701 84.5777 184.542 83.8614 183.194C83.7337 182.95 83.5275 182.761 83.2785 182.658Z" fill="#263238"/>
    <path d="M86.2277 178.109L79.2425 175.188L79.8847 172.543L87.3787 175.377L86.2277 178.109Z" fill="#407BFF"/>
    <path d="M93.2228 66.9397C91.805 71.1828 87.6109 81.1702 84.3752 77.0088C83.7928 76.2737 83.3168 75.455 82.9624 74.5783C81.594 71.0807 81.2531 65.413 81.0802 64.1722L79.9786 60.2865C79.9592 60.2203 79.9492 60.1515 79.949 60.0823V57.8612C79.949 56.9625 80.6505 56.4264 81.5989 56.5081C81.5989 56.5081 83.1303 56.3243 83.1303 57.2689L83.4267 60.6031C83.5799 61.7622 83.1353 63.3757 83.3971 64.4377C84.3851 68.4358 85.7436 68.6196 86.5982 72.7453C87.7888 69.7684 89.9179 64.6165 89.9179 64.6165C91.3307 64.8003 93.6871 65.5458 93.2228 66.9397Z" fill="#FFB573"/>
    <path d="M88.1543 78.5306C87.932 78.8889 87.6289 79.186 87.2711 79.3965C86.9132 79.607 86.5113 79.7246 86.0997 79.7392C85.6882 79.7537 85.2795 79.6648 84.9085 79.4801C84.5376 79.2954 84.2155 79.0204 83.9701 78.6787C83.3845 77.8744 82.9244 76.9802 82.6066 76.0287C81.3222 71.6732 80.5269 68.9773 80.4182 64.4278C80.8734 63.9524 81.4485 63.6185 82.0781 63.4641C82.7078 63.3098 83.3667 63.3411 83.98 63.5546L86.0844 70.9227C86.0844 70.9227 90.3674 59.9192 92.1013 59.526C94.1415 59.0613 94.9912 60.9455 95.8557 63.2636C96.4782 64.9282 90.9454 74.0833 88.1543 78.5306Z" fill="#407BFF"/>
    <path d="M105.459 48.5122C104.965 51.0652 103.888 56.641 105.617 58.3464C105.617 58.3464 104.94 60.9352 100.351 60.9352C95.2975 60.9352 97.9354 58.3464 97.9354 58.3464C100.692 57.6673 100.618 55.5534 100.139 53.5672L105.459 48.5122Z" fill="#FFB573"/>
    <path d="M97.7379 42.5177C97.7673 42.5225 97.7973 42.5225 97.8268 42.5177C97.8724 42.4917 97.9066 42.4486 97.9222 42.3973C97.9378 42.3459 97.9337 42.2903 97.9108 42.242C97.7787 41.9487 97.5799 41.6928 97.3313 41.4962C97.0826 41.2997 96.7916 41.1684 96.4831 41.1136C96.4574 41.11 96.4313 41.1119 96.4063 41.119C96.3813 41.1261 96.3579 41.1384 96.3376 41.1551C96.3173 41.1718 96.3005 41.1926 96.2881 41.2161C96.2758 41.2397 96.2682 41.2656 96.2657 41.2923C96.2623 41.3189 96.2641 41.3459 96.271 41.3717C96.2779 41.3976 96.2898 41.4217 96.3059 41.4427C96.3221 41.4636 96.3421 41.481 96.365 41.4938C96.3878 41.5066 96.4128 41.5144 96.4386 41.5169C96.6818 41.566 96.9102 41.6739 97.1051 41.8319C97.3001 41.9899 97.456 42.1935 97.56 42.4258C97.5792 42.456 97.6057 42.4804 97.6369 42.4966C97.6682 42.5127 97.703 42.52 97.7379 42.5177Z" fill="#263238"/>
    <path d="M96.2312 44.7239C95.8402 45.4705 95.3515 46.1577 94.7788 46.7663C94.9339 46.9132 95.1181 47.0236 95.3185 47.0897C95.519 47.1558 95.7309 47.1761 95.9397 47.1492L96.2312 44.7239Z" fill="#ED893E"/>
    <path d="M96.6263 43.978C96.7004 44.315 96.5819 44.6316 96.3695 44.6775C96.157 44.7235 95.9199 44.4886 95.8508 44.1669C95.7816 43.8452 95.8952 43.5134 96.1126 43.4623C96.3299 43.4112 96.5572 43.6359 96.6263 43.978Z" fill="#263238"/>
    <path d="M96.2114 43.4468L95.3716 43.3855C95.3716 43.3855 95.9101 43.9318 96.2114 43.4468Z" fill="#263238"/>
    <path opacity="0.2" d="M93.0448 64.7647C93.9192 63.9324 94.5268 64.1826 94.9121 64.8413C95.3122 66.751 92.9361 70.7541 92.0024 72.2706L93.0448 64.7647Z" fill="black"/>
    <path d="M113.274 67.282C113.16 69.3857 112.968 72.0357 112.657 75.3699C112.331 78.888 111.866 83.1617 111.229 88.3546C104.515 88.3546 97.4859 88.2473 94.2205 88.2473C94.4972 81.3491 94.596 74.3589 91.6023 60.6339C91.5648 60.4638 91.5607 60.2876 91.5904 60.1158C91.6201 59.9439 91.6829 59.7801 91.775 59.6338C91.8672 59.4876 91.9869 59.362 92.1269 59.2645C92.267 59.167 92.4246 59.0997 92.5903 59.0664C94.5418 58.7007 96.5134 58.4603 98.4936 58.3464C101.051 58.1573 103.618 58.1573 106.175 58.3464C109.47 58.6579 113.215 59.4493 113.215 59.4493C113.215 59.4493 113.62 60.7156 113.274 67.282Z" fill="#407BFF"/>
    <path opacity="0.2" d="M113.274 67.2819C113.161 69.3856 112.968 72.0356 112.657 75.3698C110.849 73.2049 109.139 65.7501 109.693 63.2021C111.04 64.2324 112.225 65.4726 113.205 66.8785C113.235 67.0115 113.258 67.1462 113.274 67.2819Z" fill="black"/>
    <path d="M130.707 76.6261L134.165 74.6245L134.808 78.2651C134.808 78.2651 131.893 79.4242 130.362 78.6123L130.707 76.6261Z" fill="#FFB573"/>
    <path d="M136.453 75.0383L136.695 76.228C136.73 76.4104 136.713 76.5997 136.646 76.7721C136.578 76.9446 136.463 77.0928 136.314 77.1981L134.793 78.2602L134.151 74.6196L135.341 74.3132C135.46 74.2824 135.584 74.2769 135.706 74.297C135.827 74.3171 135.943 74.3624 136.047 74.4302C136.151 74.4979 136.24 74.5867 136.31 74.6913C136.38 74.7958 136.428 74.9139 136.453 75.0383Z" fill="#FFB573"/>
    <path d="M109.964 63.6673C111.066 65.9854 115.107 74.7423 116.88 76.7643L117.231 77.1421L117.404 77.331C117.463 77.3923 117.513 77.4485 117.607 77.5353C117.925 77.8482 118.277 78.1239 118.654 78.3573C119.328 78.7596 120.053 79.0621 120.808 79.256C122.132 79.5734 123.491 79.7057 124.849 79.6492C127.379 79.5446 129.886 79.1053 132.308 78.342L131.898 76.2179C130.757 76.32 129.561 76.3915 128.405 76.4119C127.26 76.4468 126.113 76.4093 124.972 76.2996C123.914 76.2211 122.869 76.0102 121.86 75.6716C121.452 75.5299 121.066 75.3288 120.714 75.0742C120.579 74.9762 120.455 74.8632 120.343 74.7372C120.304 74.6955 120.268 74.6511 120.235 74.6044L120.106 74.4461L119.844 74.1296C118.481 72.3629 114.88 63.846 113.798 61.7168L109.964 63.6673Z" fill="#FFB573"/>
    <path d="M130.653 80.2515C127.806 81.8155 124.475 82.1497 121.39 81.1808C118.448 80.2027 115.965 78.1229 114.43 75.3498C112.647 72.6385 107.899 64.9692 108.502 62.9881C109.208 60.6189 110.71 59.1483 113.22 59.7866C114.983 60.2257 118.347 69.0795 119.978 72.618C120.615 73.6035 121.84 75.171 123.208 75.651C125.624 76.5139 127.402 76.1616 129.932 75.7684C130.396 76.0544 130.362 76.4986 130.594 76.9939C130.843 77.4964 130.978 78.0511 130.988 78.6156C130.998 79.1802 130.884 79.7397 130.653 80.2515Z" fill="#407BFF"/>
    <path d="M107.949 44.4227C107.193 48.6198 106.961 50.4121 104.629 52.3217C101.132 55.1913 96.3053 53.3123 95.836 48.9619C95.4112 45.0456 96.7203 38.8367 100.929 37.6674C101.856 37.4045 102.832 37.391 103.766 37.628C104.699 37.865 105.558 38.3448 106.262 39.0217C106.965 39.6986 107.489 40.5502 107.785 41.4955C108.08 42.4408 108.136 43.4484 107.949 44.4227Z" fill="#FFB573"/>
    <path d="M122.364 67.6601C121.588 68.574 121.346 69.1051 120.264 69.6004C119.182 70.0956 116.841 69.6616 116.095 68.717C116.337 69.4523 117.75 70.7594 118.491 70.8769C117.655 71.3509 116.687 71.5162 115.748 71.3454C114.808 71.1746 113.953 70.6779 113.324 69.9374C113.427 70.3979 113.643 70.8232 113.951 71.1728C114.259 71.5224 114.648 71.7844 115.082 71.9338C105.617 72.1891 109.604 67.5835 103.676 61.0324C97.1155 53.7819 98.5382 47.7874 98.5382 47.7874C98.5539 46.2944 98.1016 44.8363 97.2488 43.6311C96.3004 42.375 96.577 40.6798 96.8783 39.7301C97.318 38.3361 98.6567 37.846 99.9411 37.7643C100.168 36.3907 102.905 36.6409 103.236 36.8707C103.567 37.1005 103.607 37.0545 103.908 36.8707C104.575 36.4265 106.254 35.9669 108.053 37.4681C109.149 38.3872 110.325 40.0211 110.365 43.5341C110.404 47.1747 108.72 51.4995 114.549 57.0293C117.982 60.2767 116.337 67.2771 122.364 67.6601Z" fill="#263238"/>
    <path d="M97.7575 44.7393C97.2982 45.4125 97.1072 46.2426 97.224 47.0574C97.392 48.1348 98.4047 48.2063 99.1407 47.517C99.8768 46.8276 100.519 45.5818 99.9756 44.6882C99.4322 43.7947 98.3306 43.9223 97.7575 44.7393Z" fill="#FFB573"/>
    <path d="M106.926 88.3497C106.926 88.3497 104.906 117.663 102.633 136.995C101.95 142.796 100.239 148.418 97.5847 153.579L86.45 175.31L80.7393 172.987C80.7393 172.987 84.6913 152.333 92.3928 141.069C92.3928 141.069 86.6327 107.405 94.1712 88.2476L106.926 88.3497Z" fill="#263238"/>
    <path opacity="0.2" d="M99.1606 95.4521C99.1606 95.4521 100.86 108.728 101.789 116.627C98.306 111.878 95.6038 105.251 99.1606 95.4521Z" fill="black"/>
    <path d="M121.346 186.809C121.412 186.733 121.458 186.64 121.479 186.539C121.5 186.439 121.495 186.335 121.465 186.237C121.453 186.174 121.426 186.116 121.385 186.069C121.344 186.021 121.291 185.986 121.232 185.966C120.704 185.783 119.474 186.778 119.336 186.891C119.32 186.904 119.309 186.922 119.303 186.942C119.297 186.962 119.296 186.983 119.301 187.003C119.307 187.022 119.318 187.038 119.333 187.051C119.348 187.064 119.366 187.072 119.385 187.074C119.769 187.135 120.158 187.15 120.546 187.12C120.839 187.115 121.122 187.005 121.346 186.809ZM121.163 186.166C121.19 186.174 121.213 186.189 121.231 186.211C121.248 186.233 121.259 186.26 121.262 186.288C121.284 186.352 121.289 186.42 121.277 186.487C121.265 186.553 121.236 186.615 121.193 186.666C120.995 186.896 120.432 186.977 119.662 186.896C120.165 186.508 120.887 186.063 121.163 186.166Z" fill="#407BFF"/>
    <path d="M119.459 187.059C119.849 186.778 120.546 185.752 120.398 185.267C120.374 185.186 120.324 185.116 120.257 185.069C120.19 185.022 120.108 185 120.027 185.007C119.948 185.004 119.87 185.02 119.798 185.051C119.725 185.083 119.66 185.131 119.607 185.19C119.177 185.66 119.291 186.927 119.296 186.983C119.299 187.001 119.306 187.018 119.316 187.033C119.326 187.048 119.34 187.061 119.355 187.07C119.373 187.074 119.392 187.074 119.41 187.07C119.427 187.071 119.444 187.068 119.459 187.059ZM120.022 185.216C120.156 185.216 120.19 185.277 120.205 185.323C120.289 185.625 119.869 186.385 119.489 186.758C119.431 186.266 119.525 185.768 119.755 185.333C119.811 185.269 119.889 185.229 119.973 185.221L120.022 185.216Z" fill="#407BFF"/>
    <path d="M114.371 187.473L118.698 187.044L117.374 176.883L113.047 177.317L114.371 187.473Z" fill="#FFB573"/>
    <path d="M118.99 186.508L114.129 186.993C114.045 186.999 113.967 187.037 113.909 187.099C113.85 187.161 113.816 187.243 113.813 187.33L113.635 191.297C113.635 191.398 113.656 191.498 113.695 191.589C113.735 191.681 113.794 191.764 113.866 191.831C113.939 191.898 114.025 191.948 114.118 191.978C114.211 192.009 114.309 192.018 114.405 192.007C116.095 191.813 116.875 191.629 119.039 191.415C120.353 191.282 122.29 191.231 124.108 191.052C125.926 190.873 125.842 189.035 125.096 188.943C121.638 188.54 121 187.57 119.765 186.707C119.537 186.549 119.263 186.479 118.99 186.508Z" fill="#263238"/>
    <path d="M111.204 88.3447C111.204 88.3447 116.742 123.326 117.804 144.046L118.007 181.167L113.526 182.071C113.526 182.071 107.04 158.389 106.289 144.7C104.313 108.386 92.8671 108.325 99.7534 88.2783L111.204 88.3447Z" fill="#263238"/>
    <path d="M119.494 181.32L112.079 182.367L111.323 179.426L119.252 178.359L119.494 181.32Z" fill="#407BFF"/>
    <path d="M79.5339 50.8154H79.8155C79.7485 50.8153 79.6822 50.8293 79.6206 50.8566C79.559 50.8838 79.5034 50.9237 79.4572 50.9739C79.4109 51.024 79.3751 51.0834 79.3518 51.1483C79.3285 51.2132 79.3182 51.2824 79.3215 51.3516L79.776 60.2412C79.7894 60.3807 79.8524 60.5101 79.9528 60.6044C80.0531 60.6987 80.1837 60.7512 80.3194 60.7518H80.0279C79.8926 60.7501 79.7626 60.6972 79.6624 60.6031C79.5623 60.509 79.499 60.3802 79.4845 60.2412L79.0399 51.3516C79.0366 51.2824 79.0469 51.2132 79.0702 51.1483C79.0935 51.0834 79.1294 51.024 79.1756 50.9739C79.2218 50.9237 79.2774 50.8838 79.339 50.8566C79.4006 50.8293 79.4669 50.8153 79.5339 50.8154Z" fill="#407BFF"/>
    <path opacity="0.1" d="M79.5339 50.8154H79.8155C79.7485 50.8153 79.6822 50.8293 79.6206 50.8566C79.559 50.8838 79.5034 50.9237 79.4572 50.9739C79.4109 51.024 79.3751 51.0834 79.3518 51.1483C79.3285 51.2132 79.3182 51.2824 79.3215 51.3516L79.776 60.2412C79.7894 60.3807 79.8524 60.5101 79.9528 60.6044C80.0531 60.6987 80.1837 60.7512 80.3194 60.7518H80.0279C79.8926 60.7501 79.7626 60.6972 79.6624 60.6031C79.5623 60.509 79.499 60.3802 79.4845 60.2412L79.0399 51.3516C79.0366 51.2824 79.0469 51.2132 79.0702 51.1483C79.0935 51.0834 79.1294 51.024 79.1756 50.9739C79.2218 50.9237 79.2774 50.8838 79.339 50.8566C79.4006 50.8293 79.4669 50.8153 79.5339 50.8154Z" fill="white"/>
    <path d="M80.1021 60.7771H83.5601C83.6912 60.7771 83.8168 60.7234 83.9094 60.6276C84.0021 60.5318 84.0541 60.402 84.0541 60.2665L83.6046 51.377C83.5959 51.2333 83.5351 51.0983 83.4344 50.999C83.3337 50.8996 83.2004 50.8431 83.0612 50.8408H79.6032C79.5362 50.8407 79.4699 50.8547 79.4083 50.882C79.3467 50.9092 79.2911 50.9491 79.2449 50.9993C79.1986 51.0494 79.1628 51.1088 79.1395 51.1737C79.1161 51.2386 79.1058 51.3078 79.1092 51.377L79.5587 60.2665C79.5732 60.4056 79.6365 60.5344 79.7367 60.6285C79.8368 60.7226 79.9668 60.7755 80.1021 60.7771Z" fill="#407BFF"/>
    <path opacity="0.4" d="M80.1021 60.7771H83.5601C83.6912 60.7771 83.8168 60.7234 83.9094 60.6276C84.0021 60.5318 84.0541 60.402 84.0541 60.2665L83.6046 51.377C83.5959 51.2333 83.5351 51.0983 83.4344 50.999C83.3337 50.8996 83.2004 50.8431 83.0612 50.8408H79.6032C79.5362 50.8407 79.4699 50.8547 79.4083 50.882C79.3467 50.9092 79.2911 50.9491 79.2449 50.9993C79.1986 51.0494 79.1628 51.1088 79.1395 51.1737C79.1161 51.2386 79.1058 51.3078 79.1092 51.377L79.5587 60.2665C79.5732 60.4056 79.6365 60.5344 79.7367 60.6285C79.8368 60.7226 79.9668 60.7755 80.1021 60.7771Z" fill="white"/>
    <path d="M83.8465 60.0575C83.8492 60.102 83.8432 60.1467 83.8287 60.1888C83.8143 60.231 83.7918 60.2696 83.7626 60.3025C83.7004 60.3651 83.6171 60.3999 83.5304 60.3996H80.1662C80.0722 60.3984 79.982 60.3603 79.9141 60.293C79.8463 60.2256 79.8057 60.1341 79.8007 60.037L79.361 51.4129C79.3578 51.3691 79.3637 51.325 79.3781 51.2837C79.3926 51.2423 79.4154 51.2046 79.445 51.173C79.4747 51.1401 79.5106 51.1141 79.5506 51.0965C79.5906 51.0789 79.6337 51.0702 79.6772 51.0708H83.0413C83.1354 51.072 83.2255 51.1101 83.2934 51.1774C83.3613 51.2448 83.4019 51.3363 83.4069 51.4334L83.4365 52.0512L83.8465 60.0575Z" fill="#263238"/>
    <g opacity="0.1">
      <path d="M83.4366 52.0506L82.3201 60.3888H80.9814L82.246 51.0601H83.0414C83.1354 51.0612 83.2256 51.0993 83.2935 51.1667C83.3613 51.234 83.4019 51.3255 83.4069 51.4226L83.4366 52.0506Z" fill="white"/>
      <path d="M80.4972 60.3993H80.1959L81.4605 51.0706H81.7618L80.4972 60.3993Z" fill="white"/>
    </g>
    <path d="M93.1289 89.3399C90.6136 94.4637 89.262 100.113 89.1769 105.858C97.5749 112.593 105.395 104.704 115.008 106.037C114.672 101.548 113.195 93.2716 111.446 89.1255C105.079 89.4063 99.131 88.7476 93.1289 89.3399Z" fill="#407BFF"/>
    <path d="M94.0032 87.5177C94.0032 87.5177 93.3265 89.3201 93.5092 89.3201H111.15C111.303 89.3201 111.427 89.2435 111.436 89.1414L111.59 87.6096C111.59 87.5023 111.466 87.4104 111.303 87.4104H94.2799C94.2288 87.4032 94.1767 87.4092 94.1285 87.428C94.0802 87.4467 94.0371 87.4775 94.0032 87.5177Z" fill="white"/>
    <path d="M96.4881 89.4934H96.0336C95.9397 89.4934 95.8706 89.4424 95.8755 89.3811L96.0929 87.3387C96.0929 87.2774 96.1768 87.2314 96.2657 87.2314H96.7252C96.8141 87.2314 96.8833 87.2774 96.8783 87.3387L96.6659 89.3811C96.6521 89.4172 96.6273 89.4478 96.5952 89.4681C96.5631 89.4883 96.5255 89.4972 96.4881 89.4934Z" fill="#407BFF"/>
    <path d="M107.534 89.4934H107.079C106.991 89.4934 106.921 89.4424 106.926 89.3811L107.139 87.3387C107.139 87.2774 107.223 87.2314 107.317 87.2314H107.771C107.86 87.2314 107.929 87.2774 107.924 87.3387L107.712 89.3811C107.692 89.4219 107.628 89.4934 107.534 89.4934Z" fill="#407BFF"/>
  </g>
  <defs>
    <clipPath id="clip0_961_2664">
      <rect width="247" height="196" fill="white"/>
    </clipPath>
  </defs>
</svg>