<svg xmlns="http://www.w3.org/2000/svg" width="57" height="65" viewBox="0 0 57 65" fill="none">
  <path d="M50.7768 33.875C48.9494 33.6107 45.4785 31.3465 45.4785 31.3465C45.4785 31.3465 47.6622 29.5076 47.7771 29.4157C49.5471 28.2664 53.6386 27.1171 55.466 28.6227C55.7621 28.8806 56.0005 29.198 56.1656 29.5542C56.3307 29.9104 56.4188 30.2975 56.4242 30.6901C56.4297 31.0827 56.3523 31.472 56.197 31.8327C56.0418 32.1934 55.8123 32.5172 55.5235 32.7832C54.8561 33.2935 54.0872 33.6549 53.2684 33.8433C52.4497 34.0316 51.6001 34.0424 50.7768 33.875Z" fill="#263238"/>
  <path d="M16.7339 16.3713C16.7339 16.3713 17.5499 13.636 17.6189 13.4751C18.4694 11.5442 21.2507 8.32615 23.5953 8.57899C23.9824 8.63447 24.3534 8.77094 24.6842 8.97951C25.015 9.18807 25.298 9.46404 25.5149 9.7894C25.7319 10.1148 25.8777 10.4822 25.943 10.8678C26.0083 11.2533 25.9916 11.6483 25.8939 12.0269C25.6158 12.8361 25.1626 13.5739 24.5666 14.1878C23.9706 14.8016 23.2465 15.2764 22.446 15.5783C20.8829 16.3483 16.7454 16.3713 16.7339 16.3713Z" fill="#263238"/>
  <path d="M13.332 62.0334C12.5275 63.0333 11.7919 63.9757 11.1253 64.8492H9.47034C10.3093 63.7803 11.2748 62.5506 12.3781 61.2519C13.0217 60.4933 13.7228 59.6888 14.4468 58.8613C13.7784 58.0575 13.1604 57.2131 12.5964 56.3328C10.9881 56.6729 9.3405 56.789 7.70039 56.6776C7.58546 57.6545 7.48201 58.5969 7.40156 59.4934C7.20618 61.5277 7.09126 63.3321 7.0223 64.8492H5.66609C5.78102 63.2976 5.94194 61.4587 6.18329 59.367C6.28673 58.3786 6.42466 57.3212 6.58556 56.2408C4.95614 55.7802 3.40608 55.075 1.98832 54.1491C1.39845 53.6917 0.915105 53.1114 0.571779 52.4486C0.228453 51.7857 0.0333454 51.0561 0 50.3104C0.016958 49.9682 0.105568 49.6334 0.260075 49.3276C0.414582 49.0218 0.631543 48.7519 0.896951 48.5352C1.16236 48.3185 1.47031 48.16 1.80085 48.0698C2.13139 47.9797 2.47716 47.9599 2.81582 48.0118C4.8616 48.3796 6.41316 51.7701 6.65452 53.6089C6.65452 53.7239 6.65452 54.9076 6.65452 55.6662C6.72347 55.218 6.78092 54.7927 6.84988 54.333C6.9878 53.4365 7.1487 52.5401 7.3211 51.5746L7.63144 50.1725C7.72338 49.7128 7.87276 49.2186 7.99919 48.7358C8.29801 47.5865 8.6658 46.5177 9.05657 45.4029C7.41485 45.2002 5.81398 44.7467 4.30991 44.0581C3.66201 43.7018 3.09929 43.2089 2.66073 42.6135C2.22216 42.0182 1.91823 41.3346 1.76995 40.6102C1.73291 40.2677 1.76828 39.9212 1.87373 39.5931C1.97918 39.2651 2.15235 38.9629 2.38206 38.7061C2.61178 38.4493 2.89289 38.2436 3.20718 38.1024C3.52147 37.9612 3.86193 37.8876 4.20648 37.8864C6.27524 37.9438 8.3325 41.0699 8.80372 42.8399C8.80372 42.9548 9.06808 44.2765 9.18301 45.0006C9.41287 44.334 9.65421 43.6674 9.91855 43.0008C10.6886 41.07 11.5276 39.1506 12.3436 37.2543C12.608 36.6566 12.8493 36.1049 13.0907 35.4843C11.3912 35.2735 9.73299 34.8086 8.17161 34.1052C7.52515 33.747 6.96358 33.2535 6.52523 32.6585C6.08689 32.0634 5.78206 31.3808 5.63161 30.6572C5.59458 30.3147 5.62995 29.9681 5.7354 29.6401C5.84085 29.3121 6.01405 29.0099 6.24376 28.7531C6.47348 28.4963 6.75459 28.2906 7.06888 28.1494C7.38317 28.0082 7.72363 27.9346 8.06818 27.9333C10.1369 27.9908 12.1942 31.1169 12.6654 32.8984C12.6654 33.0248 13.0332 34.9211 13.0907 35.4154C13.6423 34.1166 14.171 32.8179 14.6422 31.5077C15.2903 29.7561 15.8202 27.963 16.2283 26.1404C14.5221 25.9261 12.8568 25.4614 11.2862 24.7613C10.6383 24.4049 10.0756 23.912 9.63705 23.3166C9.19848 22.7213 8.89455 22.0378 8.74627 21.3133C8.70749 20.9714 8.74124 20.6251 8.84532 20.2971C8.9494 19.9691 9.12145 19.6667 9.35028 19.4096C9.57911 19.1526 9.85959 18.9467 10.1734 18.8054C10.4871 18.6641 10.8272 18.5905 11.1713 18.5895C13.2515 18.6469 15.2973 21.7731 15.7685 23.543C15.7685 23.6579 16.0559 25.1061 16.1593 25.8416H16.2857C16.6484 23.997 16.8484 22.1241 16.8834 20.2445C16.8834 19.2101 16.8834 18.2102 16.8834 17.2563C15.2001 17.2298 13.5303 16.9508 11.9298 16.4288C11.2426 16.1418 10.6263 15.7082 10.1241 15.1583C9.62184 14.6085 9.24575 13.9555 9.02209 13.2451C8.94738 12.9083 8.94438 12.5596 9.01325 12.2215C9.08213 11.8835 9.22134 11.5637 9.42187 11.283C9.62239 11.0023 9.87971 10.7669 10.1772 10.5921C10.4746 10.4173 10.8055 10.307 11.1483 10.2684C13.2056 10.096 15.5846 12.9808 16.2972 14.6933C16.2972 14.7852 16.6305 15.7737 16.8259 16.4977C16.8259 16.061 16.8259 15.6127 16.7455 15.199C16.619 13.6359 16.4007 12.2108 16.1938 10.9465C16.0788 10.234 15.9524 9.59036 15.8375 8.99272C14.3603 8.20082 13.0118 7.1894 11.8379 5.99301C11.3537 5.42347 10.9999 4.75495 10.8014 4.03426C10.6029 3.31356 10.5644 2.55815 10.6886 1.82101C10.7768 1.48805 10.9343 1.17749 11.1508 0.909568C11.3672 0.641644 11.6378 0.422408 11.9448 0.266203C12.2518 0.109998 12.5883 0.0203403 12.9323 0.00307666C13.2763 -0.0141869 13.6201 0.0413452 13.9411 0.166031C15.8605 0.970548 16.642 4.62533 16.4811 6.46423C16.4811 6.62513 15.9754 9.09617 15.9409 9.07318C16.0674 9.64784 16.1938 10.2225 16.3317 10.9465C16.5615 12.2108 16.8029 13.6244 16.9753 15.199C17.188 16.8193 17.3146 18.4498 17.3546 20.0836C17.3656 21.983 17.204 23.8795 16.8719 25.7496C16.8719 25.7496 16.8719 25.7496 16.8719 25.8186C17.1592 25.2784 18.0212 23.8073 18.0787 23.7039C19.1705 22.2098 22.1587 19.9571 24.124 20.6122C24.4479 20.7303 24.7434 20.9151 24.9912 21.1547C25.2391 21.3943 25.4338 21.6833 25.5627 22.003C25.6917 22.3226 25.752 22.6659 25.7398 23.0104C25.7275 23.3549 25.643 23.693 25.4917 24.0027C25.1064 24.64 24.5873 25.186 23.9701 25.6027C23.3529 26.0195 22.6525 26.2971 21.9174 26.4163C20.2108 26.5451 18.4946 26.4173 16.8259 26.037C16.4424 27.9299 15.9356 29.7958 15.3088 31.6226C14.941 32.6915 14.5503 33.7604 14.1595 34.8177L14.6882 33.8983C15.8375 32.4041 18.7797 30.163 20.7451 30.8181C21.0686 30.9349 21.3638 31.1185 21.6116 31.357C21.8594 31.5954 22.0542 31.8835 22.1832 32.2023C22.3123 32.5211 22.3727 32.8635 22.3605 33.2072C22.3484 33.5509 22.264 33.8882 22.1128 34.1971C21.7299 34.8376 21.2116 35.3865 20.5941 35.8054C19.9766 36.2244 19.275 36.5031 18.5384 36.6221C16.8787 36.757 15.2082 36.6368 13.5849 36.2658L13.1021 37.4841C12.3206 39.4265 11.5276 41.3573 10.8035 43.2881C10.5507 43.9662 10.3323 44.6328 10.1024 45.3109C10.3323 44.9087 10.5277 44.5639 10.5622 44.5179C11.7115 43.0238 14.6537 40.7826 16.619 41.4377C16.9425 41.5545 17.2378 41.7381 17.4856 41.9766C17.7334 42.2151 17.9282 42.5031 18.0572 42.8219C18.1862 43.1407 18.2466 43.4831 18.2345 43.8268C18.2224 44.1705 18.1379 44.5078 17.9867 44.8167C17.6014 45.454 17.0823 46 16.4651 46.4167C15.8479 46.8335 15.1475 47.1111 14.4124 47.2303C12.8002 47.3733 11.1756 47.2648 9.59675 46.9085C9.37838 47.6095 9.17151 48.3106 8.99912 49.0002C8.88419 49.4714 8.74626 49.9196 8.66581 50.3909C8.58536 50.8621 8.48191 51.3333 8.40145 51.8045C8.25204 52.701 8.10263 53.6319 7.99919 54.5054C7.90724 55.126 7.83831 55.7122 7.76935 56.2983C8.0107 55.6202 8.51638 54.2985 8.57384 54.1951C9.3791 52.7776 10.5346 51.5904 11.9298 50.7471C12.005 50.582 12.1016 50.4274 12.2172 50.2874C12.4189 50.0079 12.6773 49.7741 12.9756 49.6013C13.2739 49.4285 13.6053 49.3207 13.9482 49.2849C14.291 49.2491 14.6376 49.2861 14.9652 49.3935C15.2927 49.5009 15.5939 49.6763 15.849 49.9082C17.3431 51.3333 16.7685 55.0341 15.9639 56.7006C15.9639 56.7925 15.2743 57.8499 14.8146 58.436C15.1134 58.1027 15.4008 57.7694 15.7111 57.4361C16.3202 56.758 16.9523 56.1029 17.6304 55.3904L18.6533 54.3905C18.9866 54.0457 19.3889 53.7353 19.8026 53.402C20.6646 52.6435 21.5841 51.9079 22.5265 51.2069C21.2703 50.1281 20.1853 48.8648 19.3084 47.4601C18.9661 46.7986 18.7713 46.0707 18.7375 45.3266C18.7038 44.5825 18.8319 43.84 19.113 43.1502C19.2709 42.8447 19.4911 42.5757 19.7594 42.3606C20.0277 42.1455 20.338 41.9891 20.6705 41.9013C21.003 41.8136 21.3502 41.7966 21.6897 41.8514C22.0292 41.9061 22.3534 42.0315 22.6414 42.2193C24.3424 43.3686 24.3309 47.1498 23.7907 48.9197C23.7907 49.0347 23.2276 50.2529 22.9172 50.9195C23.4919 50.4943 24.0666 50.069 24.6412 49.6668C26.3422 48.5175 28.0891 47.3682 29.8476 46.2189L31.4451 45.15C30.1447 44.036 29.0175 42.7345 28.1006 41.2883C27.7583 40.6268 27.5635 39.8989 27.5298 39.1548C27.496 38.4107 27.6241 37.6682 27.9052 36.9784C28.0628 36.6726 28.2831 36.4034 28.5517 36.1884C28.8203 35.9734 29.1312 35.8175 29.4641 35.7307C29.797 35.644 30.1445 35.6284 30.4839 35.6849C30.8232 35.7415 31.1468 35.8689 31.4336 36.059C33.1346 37.2083 33.1231 40.9895 32.583 42.7595C32.583 42.8859 31.7784 44.6443 31.56 45.0581C32.7094 44.2765 33.8587 43.4835 35.008 42.656C36.4813 41.5476 37.8789 40.342 39.1915 39.0472C37.8829 37.9305 36.7479 36.6251 35.824 35.174C35.4816 34.5125 35.2869 33.7846 35.2531 33.0405C35.2194 32.2964 35.3475 31.5539 35.6286 30.8641C35.7865 30.5586 36.0067 30.2896 36.275 30.0745C36.5432 29.8594 36.8536 29.7029 37.1861 29.6152C37.5186 29.5275 37.8658 29.5105 38.2053 29.5652C38.5447 29.62 38.869 29.7453 39.157 29.9332C40.858 31.0825 40.8465 34.8637 40.3063 36.6336C40.3063 36.7485 39.6742 38.0932 39.3869 38.7254L39.4788 38.7943C40.8012 37.4528 42.0048 35.9993 43.0762 34.4499C43.6738 33.5994 44.2255 32.7604 44.6852 31.9329C43.2905 30.978 42.0502 29.8153 41.0074 28.485C40.5925 27.8679 40.3178 27.1674 40.2026 26.4327C40.0874 25.698 40.1346 24.947 40.3408 24.2326C40.4605 23.9037 40.6497 23.6044 40.8954 23.3552C41.1412 23.106 41.4377 22.9126 41.7649 22.7883C42.092 22.664 42.4422 22.6116 42.7914 22.6347C43.1407 22.6578 43.4808 22.756 43.7887 22.9224C45.6161 23.9108 46.0069 27.6345 45.6621 29.4504C45.6621 29.5539 45.3403 30.5308 45.1104 31.2433C45.3173 30.8641 45.5472 30.4848 45.754 30.094C46.5011 28.7149 47.1102 27.4162 47.6389 26.2553C47.9262 25.5887 48.1791 24.9796 48.4089 24.4164C47.6184 22.942 47.0528 21.3576 46.731 19.7158C46.6509 18.9746 46.7328 18.2249 46.9709 17.5184C47.2091 16.812 47.5978 16.1657 48.1101 15.6242C48.3665 15.3955 48.6682 15.2234 48.9956 15.1189C49.3229 15.0145 49.6685 14.9801 50.01 15.0181C50.3515 15.056 50.6811 15.1654 50.9776 15.3391C51.274 15.5129 51.5305 15.7471 51.7305 16.0265C52.8798 17.7505 51.5236 21.2329 50.3743 22.6925C50.2823 22.8189 48.5009 24.6003 48.4894 24.5659C48.2825 25.1175 48.0527 25.7152 47.7768 26.3358C47.2826 27.4851 46.6965 28.8298 45.9724 30.232C45.2101 31.7449 44.3581 33.211 43.4209 34.6223C42.3801 36.2146 41.1993 37.7108 39.8925 39.0932C40.4212 38.7943 41.9383 38.0358 42.0648 37.9438C43.8002 37.3002 47.524 37.0704 48.8112 38.7024C49.0168 38.9783 49.162 39.2945 49.2372 39.6303C49.3124 39.9661 49.316 40.314 49.2477 40.6513C49.1793 40.9886 49.0407 41.3077 48.8407 41.5877C48.6407 41.8678 48.3839 42.1026 48.0871 42.2767C47.4105 42.5921 46.673 42.7556 45.9264 42.7556C45.1799 42.7556 44.4424 42.5921 43.7657 42.2767C42.2681 41.4486 40.9074 40.3941 39.7317 39.1506C38.3656 40.5209 36.9104 41.7994 35.3758 42.9778C34.4908 43.6674 33.5713 44.334 32.6404 45.0006L33.5943 44.5294C35.3298 43.8858 39.0651 43.6559 40.3408 45.2879C40.5464 45.5638 40.6916 45.88 40.7668 46.2158C40.842 46.5517 40.8455 46.8996 40.7772 47.2369C40.7089 47.5741 40.5703 47.8932 40.3703 48.1733C40.1703 48.4534 39.9135 48.6881 39.6167 48.8623C38.942 49.1775 38.2064 49.3408 37.4618 49.3408C36.7171 49.3408 35.9815 49.1775 35.3068 48.8623C33.8442 48.0649 32.5143 47.0452 31.3647 45.8396L30.2958 46.5866C28.5604 47.736 26.8479 48.9542 25.1814 50.161C24.5952 50.5863 24.0321 51.023 23.4689 51.4597L24.2964 51.0575C26.0319 50.4139 29.7671 50.1955 31.0429 51.8275C31.2485 52.1034 31.3937 52.4196 31.4689 52.7554C31.5441 53.0912 31.5476 53.4391 31.4793 53.7764C31.411 54.1137 31.2723 54.4328 31.0724 54.7129C30.8724 54.9929 30.6156 55.2277 30.3188 55.4019C29.6433 55.714 28.908 55.8756 28.1639 55.8756C27.4197 55.8756 26.6844 55.714 26.0089 55.4019C24.5836 54.6323 23.2882 53.6432 22.1702 52.4711C21.607 52.9308 21.0209 53.4021 20.5152 53.8733C20.0095 54.3445 19.8026 54.5054 19.4693 54.8617L18.4694 55.8846C17.8603 56.5627 17.2167 57.2522 16.642 57.9303C16.2283 58.3901 15.849 58.8383 15.4927 59.298C16.0674 58.8613 17.2167 58.0453 17.3201 57.9878C18.9406 57.0914 22.5954 56.2983 24.101 57.7235C24.3463 57.9649 24.5379 58.2554 24.6633 58.5759C24.7887 58.8965 24.8451 59.2398 24.8289 59.5836C24.8126 59.9274 24.724 60.264 24.5689 60.5712C24.4138 60.8785 24.1956 61.1496 23.9286 61.3668C23.3133 61.7856 22.6137 62.0643 21.8789 62.1835C21.1442 62.3026 20.3923 62.2592 19.6762 62.0563C18.0765 61.4687 16.5765 60.6393 15.2284 59.5968C14.5043 60.5967 13.9067 61.3323 13.332 62.0334Z" fill="#263238"/>
</svg>