<svg xmlns="http://www.w3.org/2000/svg" width="7" height="22" viewBox="0 0 7 22" fill="none">
  <path d="M6.61321 2.40735C6.61334 2.72361 6.53295 3.03679 6.37663 3.32902C6.22031 3.62124 5.99111 3.88679 5.70214 4.11049C5.41316 4.33419 5.07006 4.51167 4.69242 4.63279C4.31479 4.75391 3.91001 4.8163 3.50121 4.81641C3.0924 4.81651 2.68757 4.75432 2.30984 4.63338C1.9321 4.51245 1.58885 4.33514 1.29969 4.11158C1.01053 3.88803 0.781118 3.6226 0.624554 3.33045C0.46799 3.0383 0.387339 2.72516 0.387207 2.4089C0.386942 1.77018 0.714664 1.15755 1.29828 0.70576C1.88189 0.253975 2.67359 5.00679e-05 3.49921 -0.000154972C4.32483 -0.000360489 5.11674 0.25317 5.70072 0.704666C6.28471 1.15616 6.61294 1.76864 6.61321 2.40735Z" fill="#4E4E4E"/>
  <path d="M6.61316 10.6726C6.61316 9.34294 5.21987 8.26506 3.50116 8.26506C1.78245 8.26506 0.38916 9.34294 0.38916 10.6726C0.38916 12.0022 1.78245 13.0801 3.50116 13.0801C5.21987 13.0801 6.61316 12.0022 6.61316 10.6726Z" fill="#4E4E4E"/>
  <path d="M6.61316 18.9401C6.61316 17.6105 5.21987 16.5326 3.50116 16.5326C1.78245 16.5326 0.38916 17.6105 0.38916 18.9401C0.38916 20.2698 1.78245 21.3477 3.50116 21.3477C5.21987 21.3477 6.61316 20.2698 6.61316 18.9401Z" fill="#4E4E4E"/>
</svg>