<svg xmlns="http://www.w3.org/2000/svg" width="53" height="52" viewBox="0 0 53 52" fill="none">
  <g clip-path="url(#clip0_1206_913)">
    <rect x="0.387207" width="52" height="52" rx="26" fill="#FFB573"/>
    <path d="M46.0969 51.4932C41.9365 50.0913 31.5406 44.71 31.5406 44.71H21.205C21.205 44.71 10.8141 50.0913 6.64866 51.4932C2.48828 52.8951 2.48828 59.9999 2.48828 59.9999H50.2623C50.2623 59.9999 50.2623 52.8951 46.1019 51.4932H46.0969Z" fill="#424777"/>
    <path fill-rule="evenodd" clip-rule="evenodd" d="M21.1147 45.4938L21.7931 39.7959H30.9027L31.6061 45.1923L30.6409 45.2201L28.2393 46.8508L27.0837 58.2265L25.1743 46.9915L23.338 45.4299L21.1147 45.4938Z" fill="#C1735C"/>
    <path d="M21.4009 43.0816C21.4009 43.0816 28.4605 43.7297 30.9476 40.6346V37.0771L21.9988 37.9364L21.4009 43.0816Z" fill="#A5503C"/>
    <path d="M21.3255 43.7148L17.9238 46.3729L22.5113 50.8498L25.1743 46.9909L21.3255 43.7148Z" fill="#515882"/>
    <path d="M28.2393 46.8499L31.4198 43.7598L34.52 46.2118L30.4149 50.7038L28.2393 46.8499Z" fill="#515882"/>
    <path d="M24.28 10.6228C23.6218 8.99487 20.5166 8 20.5166 8C21.2854 13.0899 24.2097 11.9946 24.2097 11.9946C24.27 11.874 24.3102 11.7534 24.3454 11.6378C26.6366 12.9141 28.5459 8.23113 28.5459 8.23113C25.3553 8.46226 24.481 9.70837 24.28 10.6228Z" fill="#FF7C59"/>
    <path fill-rule="evenodd" clip-rule="evenodd" d="M26.7975 41.2231C31.4121 41.2231 35.3184 37.3456 36.6314 32.0002C37.063 31.9149 37.2536 31.8217 37.2536 31.8217C38.3088 31.259 38.8765 29.9576 38.7158 28.2643C38.5951 26.9936 37.5633 26.7982 37.0558 26.7798C36.5564 20.0989 32.1543 14.874 26.7975 14.874C21.4411 14.874 17.0392 20.0982 16.5393 26.7784C16.0998 26.7721 14.8897 26.8816 14.7584 28.2643C14.5976 29.9576 15.1654 31.259 16.2206 31.8217C16.2206 31.8217 16.4467 31.9323 16.9642 32.0227L16.9629 31.9972C18.2752 37.3442 22.182 41.2231 26.7975 41.2231Z" fill="#C1735C"/>
    <path d="M26.7971 14.0991C15.7429 13.9433 16.4916 26.8616 16.4916 26.8616L26.7971 27.6153L37.1026 26.8616C37.1026 26.8616 37.8512 13.9433 26.7971 14.0991Z" fill="#C1735C"/>
    <path d="M19.7326 25.4055C21.4309 25.099 22.9333 25.3401 23.697 25.4859C23.9282 25.5311 24.1593 25.4205 24.2296 25.2296C24.31 25.0135 24.1593 24.7925 23.898 24.7422C23.0287 24.5764 21.4661 24.3252 19.8281 24.898C19.5768 24.9884 19.1297 25.2346 19.2653 25.4306C19.3407 25.5009 19.5065 25.4406 19.7326 25.4004V25.4055Z" fill="#441D39"/>
    <path d="M33.9674 25.4107C32.2691 25.1042 30.7667 25.3454 30.003 25.4911C29.7719 25.5363 29.5407 25.4208 29.4704 25.2298C29.39 25.0138 29.5407 24.7877 29.802 24.7374C30.6713 24.5666 32.2339 24.3153 33.8719 24.8982C34.1232 24.9886 34.5704 25.2349 34.4347 25.4358C34.3593 25.5062 34.1935 25.4459 33.9674 25.4057V25.4107Z" fill="#441D39"/>
    <path d="M31.6666 29.1025C32.0023 29.1025 32.2746 28.6301 32.2746 28.0474C32.2746 27.4646 32.0023 26.9922 31.6666 26.9922C31.3308 26.9922 31.0586 27.4646 31.0586 28.0474C31.0586 28.6301 31.3308 29.1025 31.6666 29.1025Z" fill="#441D39"/>
    <path d="M22.5465 28.8867C22.8822 28.8867 23.1544 28.4143 23.1544 27.8315C23.1544 27.2488 22.8822 26.7764 22.5465 26.7764C22.2107 26.7764 21.9385 27.2488 21.9385 27.8315C21.9385 28.4143 22.2107 28.8867 22.5465 28.8867Z" fill="#441D39"/>
    <path d="M27.5109 32.7912H26.5512C26.1241 32.7912 25.7473 32.6254 25.5463 32.3541C25.4006 32.1581 25.3604 31.927 25.4307 31.7009C25.6518 30.9773 25.8377 30.294 25.8377 30.289C25.8729 30.1533 26.0085 30.0779 26.1442 30.1131C26.2799 30.1483 26.3603 30.289 26.3201 30.4196C26.3201 30.4196 26.1342 31.118 25.908 31.8466C25.8879 31.9169 25.898 31.9873 25.9482 32.0576C26.0538 32.2033 26.2899 32.2938 26.5512 32.2938H27.5109C27.6516 32.2938 27.7621 32.4043 27.7621 32.545C27.7621 32.6857 27.6516 32.7962 27.5109 32.7962V32.7912Z" fill="#A5503C"/>
    <path d="M25.3206 36.0671C24.8533 36.0671 24.5468 36.0419 24.5116 36.0369C24.3709 36.0269 24.2704 35.9012 24.2805 35.7656C24.2905 35.6299 24.4111 35.5244 24.5518 35.5344C24.582 35.5344 27.4158 35.7656 29.5161 34.7305C29.6417 34.6702 29.7925 34.7205 29.8528 34.8461C29.9131 34.9717 29.8628 35.1224 29.7372 35.1827C28.1997 35.9414 26.3556 36.062 25.3155 36.062L25.3206 36.0671Z" fill="#A5503C"/>
    <path d="M32.1686 30.7561C33.1371 30.7561 33.9222 30.5761 33.9222 30.3541C33.9222 30.1321 33.1371 29.9521 32.1686 29.9521C31.2001 29.9521 30.415 30.1321 30.415 30.3541C30.415 30.5761 31.2001 30.7561 32.1686 30.7561Z" fill="#AF5D4E"/>
    <path d="M21.9386 30.7561C22.9071 30.7561 23.6922 30.5761 23.6922 30.3541C23.6922 30.1321 22.9071 29.9521 21.9386 29.9521C20.9702 29.9521 20.1851 30.1321 20.1851 30.3541C20.1851 30.5761 20.9702 30.7561 21.9386 30.7561Z" fill="#AF5D4E"/>
    <path d="M33.52 18.9385C33.52 18.9385 36.5649 24.4304 37.0975 26.8623C37.0975 26.8623 38.7456 19.5414 34.8616 15.582L33.52 18.9334V18.9385Z" fill="#FF7C59"/>
    <path d="M16.4917 26.8631L17.587 22.6826H16.2505L16.4917 26.8631Z" fill="#FF7C59"/>
    <path d="M33.1736 13.4163C33.1736 13.4163 33.1736 13.3912 33.1736 13.3811C33.1736 12.2104 32.2239 11.2658 31.0582 11.2658C30.802 11.2658 30.5658 11.316 30.3397 11.4014C29.7166 10.7432 28.7419 10.3161 27.6365 10.3161C26.6165 10.3161 25.702 10.6829 25.0739 11.2607C24.4157 10.8638 23.6017 10.6226 22.7224 10.6226C22.3506 10.6226 21.9938 10.6678 21.6521 10.7432C21.1547 10.3111 20.5116 10.0498 19.8031 10.0498C18.6876 10.0498 17.7279 10.698 17.2707 11.6376C16.9943 11.4064 16.6426 11.2658 16.2557 11.2658C15.3714 11.2658 14.6579 11.9843 14.6579 12.8636C14.6579 12.9591 14.6679 13.0495 14.688 13.1399C12.9445 13.1651 11.5376 14.587 11.5376 16.3356C11.5376 17.3958 12.0551 18.3354 12.854 18.9182C12.5576 19.4006 12.3868 19.9684 12.3868 20.5814C12.3868 22.3501 13.8188 23.7821 15.5874 23.7821C17.3561 23.7821 18.7881 22.3501 18.7881 20.5814C18.7881 20.5462 18.7881 20.511 18.7831 20.4759C19.2102 20.6869 19.6875 20.8075 20.195 20.8075C21.8883 20.8075 23.2701 19.491 23.3856 17.8329C23.9635 18.4208 24.7674 18.7826 25.6568 18.7826C26.9782 18.7826 28.1138 17.9786 28.6012 16.833C28.8675 18.3354 30.1739 19.476 31.7516 19.476C33.5203 19.476 34.9523 18.044 34.9523 16.2753C34.9523 15.0242 34.2338 13.9439 33.1836 13.4163H33.1736Z" fill="#441D39"/>
  </g>
  <defs>
    <clipPath id="clip0_1206_913">
      <rect x="0.387207" width="52" height="52" rx="26" fill="white"/>
    </clipPath>
  </defs>
</svg>