<svg xmlns="http://www.w3.org/2000/svg" width="70" height="146" viewBox="0 0 70 146" fill="none">
  <path d="M78.599 90.6808L92.0054 37.2058C94.5391 27.0998 85.155 18.0548 75.1491 20.9584C70.3235 22.3588 66.675 26.3234 65.6794 31.2484L64.6937 36.125C63.4446 42.3048 59.5714 47.6367 54.0804 50.7351L52.7135 51.5065C49.1311 53.5279 46.0993 56.3973 43.8837 59.8629L38.5065 68.2741C36.5264 71.3713 35.4599 74.9641 35.4292 78.6401C35.3766 84.9456 32.2854 90.8386 27.1276 94.4662L17.3785 101.323C12.2039 104.209 11.6012 111.418 16.2246 115.123L22.674 120.292C25.7681 122.772 29.7737 123.813 33.6837 123.153L45.6555 121.134C61.7098 118.426 74.6397 106.473 78.599 90.6808Z" fill="#FFB573"/>
  <g filter="url(#filter0_f_701_824)">
    <path d="M80.9005 92.152L94.307 38.677C96.8406 28.571 87.4566 19.526 77.4506 22.4296C72.625 23.83 68.9765 27.7946 67.981 32.7196L66.9953 37.5962C65.7461 43.776 61.8729 49.1079 56.382 52.2063L55.015 52.9777C51.4327 54.9991 48.4009 57.8684 46.1853 61.3341L40.808 69.7453C38.828 72.8425 37.7614 76.4353 37.7307 80.1112C37.6782 86.4168 34.587 92.3098 29.4291 95.9374L19.6801 102.794C14.5055 105.68 13.9027 112.889 18.5261 116.594L24.9755 121.763C28.0696 124.243 32.0753 125.284 35.9853 124.625L47.9571 122.605C64.0114 119.897 76.9413 107.944 80.9005 92.152Z" fill="#407BFF"/>
  </g>
  <path d="M83.202 93.6234L96.6085 40.1484C99.1422 30.0424 89.7581 20.9974 79.7522 23.901C74.9266 25.3014 71.2781 29.266 70.2825 34.191L69.2968 39.0676C68.0477 45.2474 64.1744 50.5793 58.6835 53.6777L57.3166 54.4491C53.7342 56.4706 50.7024 59.3399 48.4868 62.8055L43.1096 71.2167C41.1295 74.3139 40.063 77.9067 40.0323 81.5827C39.9797 87.8883 36.8885 93.7812 31.7307 97.4088L21.9816 104.265C16.807 107.152 16.2043 114.36 20.8277 118.066L27.2771 123.235C30.3712 125.715 34.3768 126.756 38.2868 126.096L50.2586 124.076C66.3129 121.368 79.2428 109.416 83.202 93.6234Z" fill="#185777" stroke="#407BFF"/>
  <defs>
    <filter id="filter0_f_701_824" x="0.399384" y="6.87915" width="109.326" height="132.939" filterUnits="userSpaceOnUse" color-interpolation-filters="sRGB">
      <feFlood flood-opacity="0" result="BackgroundImageFix"/>
      <feBlend mode="normal" in="SourceGraphic" in2="BackgroundImageFix" result="shape"/>
      <feGaussianBlur stdDeviation="7.5" result="effect1_foregroundBlur_701_824"/>
    </filter>
  </defs>
</svg>