<svg xmlns="http://www.w3.org/2000/svg" width="24" height="24" viewBox="0 0 24 24" fill="none">
  <path d="M3.42857 3.43767C3.42857 2.52876 3.78979 1.65708 4.43278 1.01438C5.07576 0.371681 5.94783 0.0106171 6.85714 0.0106171C7.76646 0.0106171 8.63853 0.371681 9.28151 1.01438C9.92449 1.65708 10.2857 2.52876 10.2857 3.43767C10.2857 4.34658 9.92449 5.21827 9.28151 5.86097C8.63853 6.50366 7.76646 6.86473 6.85714 6.86473C5.94783 6.86473 5.07576 6.50366 4.43278 5.86097C3.78979 5.21827 3.42857 4.34658 3.42857 3.43767ZM6.85714 1.72414C6.40249 1.72414 5.96645 1.90468 5.64496 2.22602C5.32347 2.54737 5.14286 2.98322 5.14286 3.43767C5.14286 3.89213 5.32347 4.32797 5.64496 4.64932C5.96645 4.97067 6.40249 5.1512 6.85714 5.1512C7.3118 5.1512 7.74783 4.97067 8.06933 4.64932C8.39082 4.32797 8.57143 3.89213 8.57143 3.43767C8.57143 2.98322 8.39082 2.54737 8.06933 2.22602C7.74783 1.90468 7.3118 1.72414 6.85714 1.72414ZM15.0497 6.1519C14.6906 5.87807 14.3891 5.53599 14.1626 5.14534C13.9361 4.75468 13.7891 4.32314 13.73 3.87551C13.6709 3.42788 13.7008 2.97299 13.8182 2.53697C13.9355 2.10096 14.1378 1.69241 14.4136 1.33481C14.6894 0.97721 15.0331 0.677604 15.4251 0.453207C15.8171 0.228811 16.2496 0.0840481 16.6977 0.0272368C17.1458 -0.0295744 17.6007 0.00268568 18.0363 0.122164C18.472 0.241642 18.8796 0.445983 19.236 0.723444C19.9376 1.28446 20.3909 2.09837 20.4983 2.99005C20.6057 3.88172 20.3586 4.7799 19.8102 5.49133C19.2618 6.20275 18.4559 6.67056 17.5659 6.7941C16.6759 6.91764 15.7713 6.68703 15.0497 6.1519ZM17.1429 1.72414C16.6882 1.72414 16.2522 1.90468 15.9307 2.22602C15.6092 2.54737 15.4286 2.98322 15.4286 3.43767C15.4286 3.89213 15.6092 4.32797 15.9307 4.64932C16.2522 4.97067 16.6882 5.1512 17.1429 5.1512C17.5975 5.1512 18.0335 4.97067 18.355 4.64932C18.6765 4.32797 18.8571 3.89213 18.8571 3.43767C18.8571 2.98322 18.6765 2.54737 18.355 2.22602C18.0335 1.90468 17.5975 1.72414 17.1429 1.72414ZM2.57143 8.57825H7.14857C6.96 9.11459 6.85714 9.69205 6.85714 10.2918H2.57143C2.3441 10.2918 2.12608 10.382 1.96534 10.5427C1.80459 10.7034 1.71429 10.9213 1.71429 11.1485C1.71429 12.5485 2.27143 13.5869 3.15086 14.2929C3.55543 14.6184 4.04057 14.8806 4.58914 15.0725C4.1863 15.5005 3.87586 16.0068 3.67714 16.5599C3.10171 16.3288 2.56294 16.0154 2.07771 15.6294C0.788571 14.5927 0 13.0608 0 11.1485C0 10.4669 0.270918 9.8131 0.753154 9.33107C1.23539 8.84905 1.88944 8.57825 2.57143 8.57825ZM9.03086 8.57825C8.5762 9.36583 8.45317 10.3017 8.68882 11.1799C8.92447 12.0582 9.49951 12.8069 10.2874 13.2613C11.0753 13.7158 12.0116 13.8388 12.8902 13.6032C13.7689 13.3677 14.5179 12.7929 14.9726 12.0053C15.4272 11.2177 15.5503 10.2819 15.3146 9.40364C15.079 8.5254 14.5039 7.77669 13.716 7.32224C12.9281 6.86778 11.9918 6.7448 11.1132 6.98035C10.2345 7.2159 9.48551 7.79068 9.03086 8.57825ZM11.616 8.62109C11.8672 8.56438 12.1279 8.56478 12.3789 8.62226C12.6299 8.67975 12.8648 8.79285 13.0662 8.95322C13.2676 9.11358 13.4304 9.31712 13.5426 9.5488C13.6547 9.78049 13.7134 10.0344 13.7143 10.2918C13.7142 10.6142 13.623 10.93 13.4514 11.203C13.2797 11.4759 13.0345 11.695 12.7439 11.8349C12.4533 11.9748 12.1291 12.0299 11.8086 11.9939C11.4881 11.9579 11.1842 11.8322 10.9319 11.6314C10.6796 11.4305 10.4891 11.1625 10.3824 10.8583C10.2756 10.5541 10.2569 10.2259 10.3283 9.91151C10.3997 9.59711 10.5585 9.30924 10.7863 9.08098C11.0141 8.85271 11.3016 8.69331 11.616 8.62109ZM20.8491 14.2929C20.4446 14.6184 19.9594 14.8806 19.4109 15.0725C19.8131 15.5007 20.1229 16.007 20.3211 16.5599C20.904 16.3217 21.444 16.0115 21.9223 15.6294C23.2114 14.5927 24 13.0608 24 11.1485C24 10.4669 23.7291 9.8131 23.2468 9.33107C22.7646 8.84905 22.1106 8.57825 21.4286 8.57825H16.8514C17.04 9.11459 17.1429 9.69205 17.1429 10.2918H21.4286C21.6559 10.2918 21.8739 10.382 22.0347 10.5427C22.1954 10.7034 22.2857 10.9213 22.2857 11.1485C22.2857 12.5485 21.7286 13.5869 20.8491 14.2929ZM16.2857 15.4324C16.9677 15.4324 17.6218 15.7032 18.104 16.1852C18.5862 16.6672 18.8571 17.321 18.8571 18.0027C18.8571 19.915 18.0703 21.4468 16.7794 22.4835C15.5091 23.5031 13.8051 24 12 24C10.1949 24 8.49086 23.5031 7.22057 22.4835C5.93143 21.4468 5.14286 19.915 5.14286 18.0027C5.14195 17.6649 5.20785 17.3302 5.33675 17.018C5.46566 16.7057 5.65503 16.422 5.89399 16.1832C6.13295 15.9443 6.41678 15.755 6.72917 15.6262C7.04156 15.4973 7.37635 15.4315 7.71429 15.4324H16.2857ZM16.2857 17.1459H7.71429C7.48696 17.1459 7.26894 17.2362 7.10819 17.3968C6.94745 17.5575 6.85714 17.7754 6.85714 18.0027C6.85714 19.4026 7.41429 20.441 8.29371 21.147C9.19543 21.8701 10.4914 22.2865 12 22.2865C13.5086 22.2865 14.8046 21.8701 15.7063 21.147C16.5857 20.441 17.1429 19.4026 17.1429 18.0027C17.1429 17.7754 17.0526 17.5575 16.8918 17.3968C16.7311 17.2362 16.513 17.1459 16.2857 17.1459Z" fill="#111111" fill-opacity="0.7"/>
</svg>