<svg xmlns="http://www.w3.org/2000/svg" width="164" height="221" viewBox="0 0 164 221" fill="none">
  <path fill-rule="evenodd" clip-rule="evenodd" d="M204.75 110.5H180.18V0H177.45V110.5H166.53V0H163.8V110.5H152.88V0H150.15V110.5H139.23V0H136.5V110.5H0V112.71H136.5V121.55H0V123.76H136.5V132.6H0V134.81H136.5V143.65H0V145.86H136.5V165.75C136.5 196.264 167.057 221 204.75 221C242.443 221 273 196.264 273 165.75C273 135.236 242.443 110.5 204.75 110.5ZM150.15 121.55H139.23V112.71H150.15V121.55ZM152.88 121.55H163.8V112.71H152.88V121.55ZM166.53 121.55H177.45V112.71H166.53V121.55ZM180.18 121.55V112.71H204.75C240.936 112.71 270.27 136.457 270.27 165.75C270.27 195.043 240.936 218.79 204.75 218.79C168.564 218.79 139.23 195.043 139.23 165.75V145.86H150.15V165.75C150.15 190.161 174.595 209.95 204.75 209.95C234.905 209.95 259.35 190.161 259.35 165.75C259.35 141.339 234.905 121.55 204.75 121.55H180.18ZM150.15 143.65H139.23V134.81H150.15V143.65ZM152.88 145.86V165.75C152.88 188.94 176.103 207.74 204.75 207.74C233.397 207.74 256.62 188.94 256.62 165.75C256.62 142.56 233.397 123.76 204.75 123.76H180.18V132.6H204.75C227.366 132.6 245.7 147.442 245.7 165.75C245.7 184.058 227.366 198.9 204.75 198.9C182.134 198.9 163.8 184.058 163.8 165.75V145.86H152.88ZM166.53 132.6H177.45V123.76H166.53V132.6ZM163.8 123.76V132.6H152.88V123.76H163.8ZM163.8 134.81V143.65H152.88V134.81H163.8ZM166.53 165.75V145.86H177.45V165.75C177.45 177.955 189.673 187.85 204.75 187.85C219.827 187.85 232.05 177.955 232.05 165.75C232.05 153.545 219.827 143.65 204.75 143.65H180.18V134.81H204.75C225.858 134.81 242.97 148.662 242.97 165.75C242.97 182.838 225.858 196.69 204.75 196.69C183.642 196.69 166.53 182.838 166.53 165.75ZM180.18 165.75C180.18 176.735 191.18 185.64 204.75 185.64C218.32 185.64 229.32 176.735 229.32 165.75C229.32 154.765 218.32 145.86 204.75 145.86H180.18V165.75ZM177.45 143.65V134.81H166.53V143.65H177.45ZM150.15 132.6H139.23V123.76H150.15V132.6Z" fill="url(#paint0_linear_380_629)"/>
  <defs>
    <linearGradient id="paint0_linear_380_629" x1="248.43" y1="208.845" x2="54.0997" y2="-45.7189" gradientUnits="userSpaceOnUse">
      <stop stop-color="#407BFF"/>
      <stop offset="1" stop-color="white" stop-opacity="0"/>
    </linearGradient>
  </defs>
</svg>