<svg xmlns="http://www.w3.org/2000/svg" width="82" height="82" viewBox="0 0 82 82" fill="none">
  <g clip-path="url(#clip0_96_902)">
    <rect width="82" height="82" rx="40" fill="#FFCDC8"/>
    <path d="M66.0271 60.712C68.3346 55.0774 64.5849 54.5006 60.681 51.5894C56.7771 48.6782 63.1361 47.4305 64.4374 44.4389C65.7387 41.4472 63.4245 39.3409 60.5401 37.7512C57.6491 36.1614 53.45 29.9768 53.45 29.9768L53.2622 29.8896C55.4422 34.2631 55.3483 39.2604 55.3148 40.005C56.0124 40.0453 57.3137 40.3337 57.4747 41.9838C57.6893 44.2443 56.9313 45.9817 55.5227 46.7329C55.5227 46.7329 55.2544 46.8537 54.6842 46.9677C52.9335 54.1048 47.7215 59.2899 41.5571 59.2899C35.3926 59.2899 30.1739 54.1048 28.4299 46.9543V47.0012C27.739 46.8805 27.4371 46.7329 27.4371 46.7329C26.0285 45.9817 25.2705 44.2443 25.4852 41.9838C25.6529 40.1995 27.1688 40.005 27.7994 39.9983C27.7859 39.5824 27.7524 37.8988 28.0744 35.7523C27.0078 36.2755 23.8082 38.0061 23.8686 39.9983C23.9491 42.393 24.6333 45.6798 21.5544 46.572C18.4755 47.4641 18.3682 53.1993 19.6628 56.1104C20.9574 59.0216 21.8294 60.8529 17.7645 62.6304C13.6996 64.408 18.2206 67.7887 17.7846 74.2819C17.3486 80.775 23.2716 77.8974 35.0639 75.7308C46.8562 73.5641 55.3282 76.4552 61.6872 75.7308C68.0395 75.0063 67.3217 72.994 65.0075 70.0023C62.6933 67.0106 63.7062 66.3465 66.0204 60.712H66.0271Z" fill="#441D39"/>
    <path d="M43.5224 25.3347L53.2688 29.8893C51.4376 26.2201 48.0032 22.987 41.5637 23.0742C31.6496 22.9333 28.8525 30.6674 28.0811 35.7519C28.2957 35.6446 28.4299 35.5842 28.4299 35.5842L43.5224 25.328V25.3347Z" fill="#C1735C"/>
    <path d="M67.3283 72.995C61.7743 71.1235 47.8958 63.9395 47.8958 63.9395H34.0979C34.0979 63.9395 20.2262 71.1235 14.6654 72.995C9.11133 74.8665 9.11133 84.3513 9.11133 84.3513H72.8891C72.8891 84.3513 72.8891 74.8665 67.335 72.995H67.3283Z" fill="#4598C4"/>
    <path d="M47.0443 57.3779H34.8831L33.9775 64.9846L41.1281 80.3119L47.9834 64.5821L47.0443 57.3779Z" fill="#C1735C"/>
    <path d="M34.9027 57.084L34.3594 61.766C34.3594 61.766 43.7838 62.6313 47.1042 58.4993V57.795C45.4071 58.7542 43.5356 59.2909 41.5568 59.2909C39.142 59.2909 36.8748 58.4859 34.9027 57.084Z" fill="#A5503C"/>
    <path d="M57.481 41.9837C57.3268 40.3336 56.0187 40.0452 55.3211 40.0049C55.348 39.2604 55.4486 34.263 53.2685 29.8896L43.5221 25.335L28.4296 35.5912C28.4296 35.5912 28.2954 35.6516 28.0808 35.7589C27.7521 37.9054 27.7856 39.589 27.8057 40.0049C27.1752 40.0049 25.6592 40.2062 25.4915 41.9904C25.2769 44.251 26.0349 45.9883 27.4435 46.7396C27.4435 46.7396 27.7454 46.8871 28.4363 47.0079V46.9609C29.4961 51.3076 31.8438 54.9231 34.9093 57.0897C36.8814 58.4916 39.1486 59.2966 41.5634 59.2966C43.5355 59.2966 45.4137 58.7599 47.1108 57.8007C50.7129 55.7683 53.5033 51.8241 54.6906 46.9743C55.2675 46.8603 55.5291 46.7396 55.5291 46.7396C56.9377 45.9883 57.6957 44.251 57.481 41.9904V41.9837Z" fill="#C1735C"/>
    <path d="M32.0923 37.8729C34.3931 37.712 36.3518 38.2486 37.3445 38.5504C37.6464 38.6443 37.9616 38.5236 38.0891 38.2888C38.2232 38.0138 38.0555 37.6985 37.7202 37.5912C36.5932 37.2424 34.5541 36.6857 32.2935 37.2156C31.9447 37.2961 31.3209 37.5577 31.4685 37.8461C31.5557 37.9467 31.7905 37.8998 32.0923 37.8797V37.8729Z" fill="#441D39"/>
    <path d="M51.162 37.9857C48.868 37.7308 46.8959 38.1936 45.8897 38.462C45.5879 38.5424 45.2726 38.415 45.1586 38.1668C45.0311 37.8851 45.2122 37.5698 45.5543 37.4826C46.6946 37.1741 48.7539 36.6978 50.9943 37.3149C51.3364 37.4088 51.9536 37.6973 51.7926 37.979C51.6987 38.0796 51.4706 38.0192 51.1688 37.979L51.162 37.9857Z" fill="#441D39"/>
    <path d="M48.0636 43.1034C48.5119 43.1034 48.8752 42.4727 48.8752 41.6948C48.8752 40.9168 48.5119 40.2861 48.0636 40.2861C47.6153 40.2861 47.252 40.9168 47.252 41.6948C47.252 42.4727 47.6153 43.1034 48.0636 43.1034Z" fill="#441D39"/>
    <path d="M35.8888 42.8153C36.3371 42.8153 36.7004 42.1847 36.7004 41.4067C36.7004 40.6287 36.3371 39.998 35.8888 39.998C35.4405 39.998 35.0771 40.6287 35.0771 41.4067C35.0771 42.1847 35.4405 42.8153 35.8888 42.8153Z" fill="#441D39"/>
    <path d="M42.5164 48.028H41.2352C40.6651 48.028 40.162 47.8067 39.8937 47.4377C39.6991 47.1761 39.6455 46.8676 39.7394 46.5657C40.0345 45.6065 40.2827 44.6875 40.2827 44.6808C40.3297 44.4997 40.5108 44.3991 40.6919 44.4461C40.873 44.493 40.9803 44.6808 40.9267 44.8552C40.9267 44.8552 40.6785 45.7876 40.3766 46.7603C40.3498 46.8609 40.3632 46.9481 40.4303 47.042C40.5711 47.2365 40.8864 47.3572 41.2352 47.3572H42.5164C42.7042 47.3572 42.8518 47.5048 42.8518 47.6926C42.8518 47.8805 42.7042 48.028 42.5164 48.028Z" fill="#A5503C"/>
    <path d="M41.289 52.2469C39.7261 52.2469 38.5388 52.0323 38.4516 52.0121C38.2705 51.9786 38.1498 51.8042 38.1833 51.6231C38.2169 51.442 38.3913 51.3212 38.5724 51.3548C38.6059 51.3548 42.3489 52.0457 45.2735 50.9523C45.4479 50.8852 45.6424 50.9724 45.7028 51.1468C45.7699 51.3212 45.6759 51.5158 45.5082 51.5761C44.1063 52.0993 42.5702 52.2469 41.2823 52.2469H41.289Z" fill="#A5503C"/>
    <path d="M48.7341 45.3106C50.027 45.3106 51.0751 45.0703 51.0751 44.7739C51.0751 44.4776 50.027 44.2373 48.7341 44.2373C47.4412 44.2373 46.3931 44.4776 46.3931 44.7739C46.3931 45.0703 47.4412 45.3106 48.7341 45.3106Z" fill="#AF5D4E"/>
    <path d="M35.0769 45.3106C36.3698 45.3106 37.4179 45.0703 37.4179 44.7739C37.4179 44.4776 36.3698 44.2373 35.0769 44.2373C33.784 44.2373 32.7358 44.4776 32.7358 44.7739C32.7358 45.0703 33.784 45.3106 35.0769 45.3106Z" fill="#AF5D4E"/>
    <path d="M27.3163 36.1949L27.3566 36.5102L25.4516 38.489L23.9893 42.8155C23.9893 42.8155 25.6997 48.3628 28.1347 51.804C30.5629 55.2518 29.4561 50.0465 28.4298 46.9475C27.4035 43.8485 29.322 43.8083 29.7714 41.6953C30.0531 40.3604 29.5567 39.1329 29.1543 38.4152C28.7987 37.1877 29.114 35.7119 30.7977 35.2558C34.7419 34.1758 32.1594 27.6357 32.1594 27.6357C29.8921 29.0913 27.92 34.9674 27.323 36.1882L27.3163 36.1949Z" fill="#441D39"/>
    <path d="M57.5151 38.4893L56.1199 38.5966C55.5497 35.6519 54.2953 29.8429 53.1617 29.2392C51.6323 28.4276 49.895 29.749 49.895 29.749C49.895 29.749 50.767 34.5049 52.6788 35.5781C53.8124 36.2153 53.8057 37.6508 53.8325 38.7106C53.1751 42.1383 51.4714 45.9484 55.3149 49.3895C59.5073 53.1391 60.4129 43.1043 60.4129 43.1043L57.5151 38.4893Z" fill="#441D39"/>
    <path d="M55.4222 24.1486C53.2556 20.5465 44.9245 18.7623 37.9886 20.1776L37.5258 18.6147C37.4386 18.3262 37.1367 18.1586 36.8416 18.2458C36.5532 18.333 36.3855 18.6348 36.4727 18.9299L36.9154 20.4392C31.5559 21.8411 25.975 25.8323 23.5266 30.8497C21.0045 36.0147 27.3635 36.1288 27.3635 36.1288C32.7767 27.9654 53.4501 29.9777 53.4501 29.9777C54.6508 29.7228 57.6492 27.8647 55.4155 24.1553L55.4222 24.1486Z" fill="#FF7C59"/>
    <path d="M30.905 69.6135C30.7775 69.6135 30.6568 69.5464 30.6031 69.4257C30.5226 69.258 30.5964 69.0568 30.7574 68.9763L33.2862 67.7622C33.4539 67.6817 33.6552 67.7554 33.7357 67.9231C33.8162 68.0908 33.7424 68.2921 33.5814 68.3726L31.0525 69.5867C31.0056 69.6068 30.9586 69.6202 30.905 69.6202V69.6135Z" fill="#2A5E70"/>
    <path d="M32.0588 73.6039C31.9313 73.6039 31.8106 73.5368 31.7569 73.4161C31.6764 73.2484 31.7502 73.0471 31.9112 72.9666L34.44 71.7525C34.6077 71.672 34.809 71.7458 34.8895 71.9068C34.97 72.0678 34.8962 72.2757 34.7352 72.3562L32.2063 73.5703C32.1594 73.5905 32.1124 73.6039 32.0588 73.6039Z" fill="#2A5E70"/>
    <path d="M33.528 78.3207C33.4006 78.3207 33.2798 78.2536 33.2262 78.1329C33.1457 77.9652 33.2195 77.7639 33.3804 77.6834L35.9093 76.4693C36.077 76.3888 36.2782 76.4626 36.3587 76.6236C36.4392 76.7913 36.3654 76.9925 36.2044 77.073L33.6756 78.2871C33.6286 78.3073 33.5817 78.3207 33.528 78.3207Z" fill="#2A5E70"/>
    <path d="M50.6395 69.6134C50.5926 69.6134 50.5389 69.6 50.492 69.5798L47.9631 68.3657C47.7954 68.2852 47.7284 68.084 47.8089 67.9163C47.8893 67.7486 48.0906 67.6748 48.2583 67.7553L50.7871 68.9694C50.9548 69.0499 51.0219 69.2512 50.9414 69.4189C50.881 69.5396 50.767 69.6067 50.6395 69.6067V69.6134Z" fill="#2A5E70"/>
    <path d="M49.4857 73.6041C49.4388 73.6041 49.3851 73.5906 49.3382 73.5705L46.8093 72.3564C46.6416 72.2759 46.5745 72.0747 46.655 71.907C46.7355 71.7393 46.9368 71.6722 47.1045 71.7527L49.6333 72.9668C49.801 73.0473 49.8681 73.2485 49.7876 73.4162C49.7272 73.537 49.6132 73.6041 49.4857 73.6041Z" fill="#2A5E70"/>
    <path d="M48.0165 78.3199C47.9695 78.3199 47.9159 78.3065 47.8689 78.2863L45.3401 77.0722C45.1724 76.9917 45.1053 76.7905 45.1858 76.6228C45.2663 76.4551 45.4675 76.388 45.6352 76.4685L48.1641 77.6826C48.3318 77.7631 48.3988 77.9644 48.3183 78.1321C48.258 78.2528 48.1439 78.3199 48.0165 78.3199Z" fill="#2A5E70"/>
  </g>
  <defs>
    <clipPath id="clip0_96_902">
      <rect width="82" height="82" rx="40" fill="white"/>
    </clipPath>
  </defs>
</svg>