<svg xmlns="http://www.w3.org/2000/svg" width="52" height="52" viewBox="0 0 52 52" fill="none">
  <g clip-path="url(#clip0_1641_986)">
    <rect width="52" height="52" rx="26" fill="#FFCDC8"/>
    <path d="M41.8709 38.5C43.3341 34.9268 40.9563 34.561 38.4806 32.7149C36.005 30.8688 40.0375 30.0776 40.8627 28.1804C41.6879 26.2833 40.2204 24.9476 38.3913 23.9395C36.5579 22.9313 33.8951 19.0094 33.8951 19.0094L33.776 18.9541C35.1585 21.7275 35.0989 24.8966 35.0777 25.3687C35.52 25.3942 36.3453 25.5772 36.4474 26.6236C36.5835 28.0571 36.1028 29.1588 35.2095 29.6352C35.2095 29.6352 35.0394 29.7118 34.6778 29.7841C33.5676 34.3101 30.2624 37.5982 26.3533 37.5982C22.4441 37.5982 19.1347 34.3101 18.0287 29.7756V29.8054C17.5906 29.7288 17.3992 29.6352 17.3992 29.6352C16.5059 29.1588 16.0252 28.0571 16.1613 26.6236C16.2677 25.4921 17.229 25.3687 17.6289 25.3645C17.6204 25.1007 17.5991 24.0331 17.8033 22.6719C17.1269 23.0036 15.0979 24.1011 15.1362 25.3645C15.1872 26.8831 15.6211 28.9674 13.6686 29.5331C11.7162 30.0989 11.6481 33.7358 12.4691 35.5819C13.2901 37.428 13.843 38.5893 11.2653 39.7165C8.68753 40.8438 11.5545 42.9877 11.278 47.1053C11.0016 51.2229 14.7576 49.398 22.2356 48.0241C29.7137 46.6501 35.0862 48.4835 39.1187 48.0241C43.147 47.5647 42.6918 46.2886 41.2243 44.3914C39.7568 42.4942 40.3991 42.0731 41.8666 38.5H41.8709Z" fill="#441D39"/>
    <path d="M27.5997 16.0656L33.7804 18.9539C32.6191 16.6271 30.4412 14.5768 26.3576 14.6321C20.0706 14.5427 18.2968 19.4473 17.8076 22.6716C17.9437 22.6035 18.0288 22.5653 18.0288 22.5653L27.5997 16.0613V16.0656Z" fill="#C1735C"/>
    <path d="M42.6959 46.2894C39.1738 45.1026 30.3729 40.5469 30.3729 40.5469H21.623C21.623 40.5469 12.8263 45.1026 9.29992 46.2894C5.77783 47.4762 5.77783 53.491 5.77783 53.491H46.2223C46.2223 53.491 46.2223 47.4762 42.7002 46.2894H42.6959Z" fill="#4598C4"/>
    <path d="M29.8326 36.3857H22.1206L21.5464 41.2095L26.0809 50.9292L30.4282 40.9542L29.8326 36.3857Z" fill="#C1735C"/>
    <path d="M22.1331 36.1992L21.7886 39.1683C21.7886 39.1683 27.7651 39.7171 29.8707 37.0968V36.6501C28.7945 37.2584 27.6077 37.5987 26.3528 37.5987C24.8215 37.5987 23.3837 37.0882 22.1331 36.1992Z" fill="#A5503C"/>
    <path d="M36.4514 26.6242C36.3536 25.5777 35.5241 25.3948 35.0817 25.3693C35.0987 24.8971 35.1625 21.7281 33.7801 18.9547L27.5994 16.0664L18.0285 22.5704C18.0285 22.5704 17.9434 22.6086 17.8073 22.6767C17.5989 24.0379 17.6202 25.1056 17.6329 25.3693C17.2331 25.3693 16.2717 25.4969 16.1654 26.6284C16.0293 28.0619 16.5099 29.1636 17.4032 29.6401C17.4032 29.6401 17.5946 29.7336 18.0328 29.8102V29.7804C18.7049 32.5368 20.1937 34.8296 22.1376 36.2036C23.3882 37.0926 24.826 37.603 26.3573 37.603C27.6079 37.603 28.799 37.2627 29.8752 36.6544C32.1594 35.3656 33.929 32.8644 34.6819 29.7889C35.0477 29.7166 35.2136 29.6401 35.2136 29.6401C36.1069 29.1636 36.5875 28.0619 36.4514 26.6284V26.6242Z" fill="#C1735C"/>
    <path d="M20.3511 24.0164C21.8101 23.9143 23.0522 24.2546 23.6817 24.446C23.8732 24.5056 24.0731 24.429 24.1539 24.2801C24.239 24.1057 24.1326 23.9058 23.92 23.8377C23.2053 23.6165 21.9122 23.2635 20.4787 23.5995C20.2575 23.6506 19.8619 23.8164 19.9555 23.9994C20.0108 24.0632 20.1597 24.0334 20.3511 24.0206V24.0164Z" fill="#441D39"/>
    <path d="M32.4443 24.0884C30.9896 23.9268 29.739 24.2203 29.1009 24.3905C28.9095 24.4415 28.7096 24.3607 28.6373 24.2033C28.5564 24.0246 28.6713 23.8247 28.8882 23.7694C29.6114 23.5737 30.9173 23.2717 32.338 23.6631C32.5549 23.7226 32.9463 23.9055 32.8442 24.0842C32.7846 24.148 32.64 24.1097 32.4486 24.0842L32.4443 24.0884Z" fill="#441D39"/>
    <path d="M30.4795 27.3334C30.7638 27.3334 30.9942 26.9335 30.9942 26.4402C30.9942 25.9468 30.7638 25.5469 30.4795 25.5469C30.1953 25.5469 29.9648 25.9468 29.9648 26.4402C29.9648 26.9335 30.1953 27.3334 30.4795 27.3334Z" fill="#441D39"/>
    <path d="M22.7588 27.1508C23.0431 27.1508 23.2735 26.7509 23.2735 26.2575C23.2735 25.7642 23.0431 25.3643 22.7588 25.3643C22.4746 25.3643 22.2441 25.7642 22.2441 26.2575C22.2441 26.7509 22.4746 27.1508 22.7588 27.1508Z" fill="#441D39"/>
    <path d="M26.9615 30.4565H26.149C25.7875 30.4565 25.4684 30.3161 25.2983 30.0822C25.1749 29.9163 25.1409 29.7206 25.2004 29.5292C25.3876 28.9209 25.545 28.3382 25.545 28.3339C25.5748 28.2191 25.6896 28.1552 25.8045 28.185C25.9193 28.2148 25.9874 28.3339 25.9533 28.4445C25.9533 28.4445 25.796 29.0358 25.6045 29.6526C25.5875 29.7164 25.596 29.7717 25.6386 29.8312C25.7279 29.9546 25.9278 30.0311 26.149 30.0311H26.9615C27.0806 30.0311 27.1742 30.1247 27.1742 30.2438C27.1742 30.3629 27.0806 30.4565 26.9615 30.4565Z" fill="#A5503C"/>
    <path d="M26.183 33.1322C25.1919 33.1322 24.439 32.9961 24.3837 32.9833C24.2688 32.962 24.1922 32.8514 24.2135 32.7366C24.2348 32.6217 24.3454 32.5452 24.4602 32.5664C24.4815 32.5664 26.8551 33.0046 28.7097 32.3112C28.8203 32.2687 28.9437 32.324 28.9819 32.4346C29.0245 32.5452 28.9649 32.6685 28.8586 32.7068C27.9695 33.0386 26.9954 33.1322 26.1787 33.1322H26.183Z" fill="#A5503C"/>
    <path d="M30.9045 28.7333C31.7244 28.7333 32.389 28.581 32.389 28.393C32.389 28.2051 31.7244 28.0527 30.9045 28.0527C30.0846 28.0527 29.4199 28.2051 29.4199 28.393C29.4199 28.581 30.0846 28.7333 30.9045 28.7333Z" fill="#AF5D4E"/>
    <path d="M22.2438 28.7333C23.0637 28.7333 23.7284 28.581 23.7284 28.393C23.7284 28.2051 23.0637 28.0527 22.2438 28.0527C21.4239 28.0527 20.7593 28.2051 20.7593 28.393C20.7593 28.581 21.4239 28.7333 22.2438 28.7333Z" fill="#AF5D4E"/>
    <path d="M17.3223 22.9531L17.3478 23.1531L16.1397 24.4079L15.2124 27.1516C15.2124 27.1516 16.2971 30.6694 17.8412 32.8516C19.3811 35.038 18.6792 31.7371 18.0284 29.7719C17.3775 27.8067 18.5941 27.7811 18.8791 26.4412C19.0578 25.5947 18.743 24.8163 18.4878 24.3611C18.2623 23.5827 18.4622 22.6469 19.5299 22.3576C22.0311 21.6728 20.3934 17.5254 20.3934 17.5254C18.9557 18.4484 17.7051 22.1747 17.3265 22.9489L17.3223 22.9531Z" fill="#441D39"/>
    <path d="M36.4729 24.4071L35.5881 24.4752C35.2265 22.6078 34.4311 18.924 33.7122 18.5412C32.7423 18.0265 31.6406 18.8645 31.6406 18.8645C31.6406 18.8645 32.1936 21.8804 33.4059 22.561C34.1248 22.9651 34.1205 23.8754 34.1376 24.5475C33.7207 26.7211 32.6403 29.1372 35.0776 31.3194C37.7362 33.6972 38.3105 27.3337 38.3105 27.3337L36.4729 24.4071Z" fill="#441D39"/>
    <path d="M35.1456 15.3136C33.7716 13.0293 28.4885 11.8978 24.0901 12.7954L23.7966 11.8043C23.7413 11.6214 23.5499 11.515 23.3627 11.5703C23.1798 11.6256 23.0735 11.817 23.1288 12.0042L23.4095 12.9613C20.0108 13.8503 16.4717 16.3813 14.9191 19.5631C13.3197 22.8384 17.3522 22.9107 17.3522 22.9107C20.785 17.734 33.895 19.0101 33.895 19.0101C34.6564 18.8484 36.5578 17.6702 35.1413 15.3178L35.1456 15.3136Z" fill="#FF7C59"/>
    <path d="M19.598 44.1449C19.5171 44.1449 19.4406 44.1024 19.4065 44.0258C19.3555 43.9195 19.4023 43.7919 19.5044 43.7408L21.108 42.9709C21.2144 42.9199 21.342 42.9667 21.393 43.073C21.4441 43.1793 21.3973 43.307 21.2952 43.358L19.6915 44.1279C19.6618 44.1407 19.632 44.1492 19.598 44.1492V44.1449Z" fill="#2A5E70"/>
    <path d="M20.3299 46.6753C20.2491 46.6753 20.1725 46.6328 20.1385 46.5562C20.0874 46.4499 20.1342 46.3222 20.2363 46.2712L21.84 45.5013C21.9463 45.4502 22.0739 45.497 22.125 45.5991C22.176 45.7012 22.1292 45.8331 22.0271 45.8841L20.4235 46.654C20.3937 46.6668 20.3639 46.6753 20.3299 46.6753Z" fill="#2A5E70"/>
    <path d="M21.2615 49.6665C21.1807 49.6665 21.1041 49.624 21.0701 49.5474C21.0191 49.4411 21.0659 49.3135 21.168 49.2624L22.7716 48.4925C22.878 48.4414 23.0056 48.4882 23.0566 48.5903C23.1077 48.6967 23.0609 48.8243 22.9588 48.8753L21.3551 49.6452C21.3253 49.658 21.2956 49.6665 21.2615 49.6665Z" fill="#2A5E70"/>
    <path d="M32.1125 44.1453C32.0827 44.1453 32.0487 44.1368 32.0189 44.124L30.4153 43.3541C30.3089 43.303 30.2664 43.1754 30.3174 43.0691C30.3685 42.9627 30.4961 42.916 30.6024 42.967L32.2061 43.7369C32.3124 43.788 32.355 43.9156 32.3039 44.0219C32.2656 44.0985 32.1933 44.141 32.1125 44.141V44.1453Z" fill="#2A5E70"/>
    <path d="M31.3811 46.676C31.3513 46.676 31.3172 46.6675 31.2875 46.6548L29.6838 45.8848C29.5775 45.8338 29.5349 45.7062 29.586 45.5998C29.637 45.4935 29.7646 45.451 29.871 45.502L31.4746 46.2719C31.581 46.323 31.6235 46.4506 31.5725 46.5569C31.5342 46.6335 31.4619 46.676 31.3811 46.676Z" fill="#2A5E70"/>
    <path d="M30.4494 49.6663C30.4196 49.6663 30.3856 49.6578 30.3558 49.645L28.7522 48.8751C28.6458 48.824 28.6033 48.6964 28.6543 48.5901C28.7054 48.4837 28.833 48.4412 28.9393 48.4922L30.543 49.2622C30.6493 49.3132 30.6919 49.4408 30.6408 49.5472C30.6025 49.6237 30.5302 49.6663 30.4494 49.6663Z" fill="#2A5E70"/>
  </g>
  <defs>
    <clipPath id="clip0_1641_986">
      <rect width="52" height="52" rx="26" fill="white"/>
    </clipPath>
  </defs>
</svg>